<svg width="87" height="30" viewBox="0 0 87 30" fill="none" xmlns="http://www.w3.org/2000/svg">
<path d="M20.1813 16.5746H21.5901L23.662 22.2928H22.2531L21.7973 20.9668H19.7669L19.3111 22.2928H17.9437L20.1813 16.5746ZM21.5487 19.9724L20.8443 17.8177L20.1399 19.9724H21.5487Z" fill="black"/>
<path d="M24.5322 20.5939L24.7808 20.8425C24.8749 20.935 24.988 21.0057 25.1123 21.0497C25.2393 21.1295 25.3797 21.1857 25.5267 21.2155C25.6743 21.263 25.8276 21.2909 25.9825 21.2983C26.081 21.305 26.1798 21.2909 26.2725 21.2569L26.5212 21.1326C26.604 21.0911 26.6455 21.0083 26.7283 20.9254C26.7743 20.8498 26.8026 20.7648 26.8112 20.6768C26.8143 20.575 26.7888 20.4745 26.7375 20.3865C26.6862 20.2986 26.6113 20.2269 26.5212 20.1795C26.2113 20.0125 25.8748 19.9003 25.5267 19.8481C25.3137 19.7978 25.1057 19.7284 24.9051 19.6409C24.7301 19.5449 24.5638 19.434 24.4079 19.3094C24.2746 19.1754 24.1628 19.0216 24.0764 18.8536C23.9915 18.6721 23.949 18.4738 23.9521 18.2735C23.9494 18.0464 23.9916 17.8211 24.0764 17.6105C24.1607 17.3941 24.2875 17.1969 24.4493 17.0304C24.6337 16.8499 24.8624 16.7213 25.1123 16.6574C25.4081 16.5699 25.7155 16.528 26.0239 16.5331C26.2882 16.538 26.5517 16.5658 26.8112 16.616C27.0127 16.6598 27.2077 16.7294 27.3913 16.8232C27.5278 16.8862 27.6536 16.9701 27.7642 17.0718L27.9714 17.279L27.2256 18.1077C27.1427 18.0663 27.1013 17.9834 27.0184 17.942C26.927 17.8779 26.8299 17.8224 26.7283 17.7762C26.6205 17.728 26.5098 17.6865 26.3968 17.6519C26.2757 17.6177 26.1497 17.6037 26.0239 17.6105C25.9389 17.604 25.8536 17.6182 25.7753 17.6519L25.5267 17.7762C25.4438 17.8177 25.4024 17.9005 25.3609 17.942C25.3195 17.9834 25.2781 18.0663 25.2781 18.1492C25.2757 18.2453 25.3021 18.34 25.3537 18.4212C25.4054 18.5024 25.48 18.5663 25.5681 18.605C25.8297 18.7393 26.1086 18.8369 26.3968 18.895C26.6098 18.9453 26.8178 19.0146 27.0184 19.1022C27.2121 19.1879 27.3933 19.2994 27.5571 19.4337C27.7273 19.5767 27.8561 19.7627 27.93 19.9724C28.0331 20.2079 28.0894 20.4612 28.0957 20.7182C28.105 20.9637 28.0477 21.2071 27.93 21.4226C27.8151 21.6424 27.6606 21.8391 27.4742 22.0028C27.2682 22.1752 27.0282 22.3023 26.7698 22.3757C26.4882 22.4634 26.1944 22.5054 25.8996 22.5C25.6353 22.4951 25.3719 22.4674 25.1123 22.4171C24.8959 22.3797 24.6864 22.3099 24.4908 22.2099C24.3149 22.1317 24.1482 22.0345 23.9935 21.9199C23.8612 21.8187 23.7366 21.7079 23.6206 21.5884L24.5322 20.5939Z" fill="black"/>
<path d="M29.2145 20.5939L29.4631 20.8425C29.5571 20.935 29.6703 21.0057 29.7946 21.0497C29.9216 21.1295 30.0619 21.1857 30.2089 21.2155C30.3566 21.263 30.5098 21.2909 30.6647 21.2983C30.7633 21.305 30.8621 21.2909 30.9548 21.2569L31.2034 21.1326C31.2863 21.0911 31.3277 21.0083 31.4106 20.9254C31.4566 20.8498 31.4849 20.7648 31.4935 20.6768C31.4966 20.575 31.4711 20.4745 31.4198 20.3865C31.3685 20.2986 31.2935 20.2269 31.2034 20.1795C30.8935 20.0125 30.5571 19.9003 30.2089 19.8481C29.996 19.7978 29.7879 19.7284 29.5874 19.6409C29.4124 19.5449 29.246 19.434 29.0901 19.3094C28.9569 19.1754 28.8451 19.0216 28.7587 18.8536C28.6738 18.6721 28.6313 18.4738 28.6343 18.2735C28.6316 18.0464 28.6739 17.8211 28.7587 17.6105C28.8429 17.3941 28.9697 17.1969 29.1316 17.0304C29.3159 16.8499 29.5446 16.7213 29.7946 16.6574C30.0903 16.5699 30.3978 16.528 30.7062 16.5331C30.9705 16.538 31.2339 16.5658 31.4935 16.616C31.6949 16.6598 31.8899 16.7294 32.0736 16.8232C32.21 16.8862 32.3359 16.9701 32.4465 17.0718L32.6537 17.279L31.9078 18.1077C31.825 18.0663 31.7835 17.9834 31.7006 17.942C31.6093 17.8779 31.5122 17.8224 31.4106 17.7762C31.3028 17.728 31.1921 17.6865 31.0791 17.6519C30.9579 17.6177 30.8319 17.6037 30.7062 17.6105C30.6212 17.604 30.5358 17.6182 30.4576 17.6519L30.2089 17.7762C30.1261 17.8177 30.0846 17.9005 30.0432 17.942C30.0018 17.9834 29.9603 18.0663 29.9603 18.1492C29.958 18.2453 29.9843 18.34 30.036 18.4212C30.0876 18.5024 30.1623 18.5663 30.2504 18.605C30.5119 18.7393 30.7908 18.8369 31.0791 18.895C31.2921 18.9453 31.5001 19.0146 31.7006 19.1022C31.8943 19.1879 32.0755 19.2994 32.2393 19.4337C32.4096 19.5767 32.5383 19.7627 32.6122 19.9724C32.7154 20.2079 32.7717 20.4612 32.778 20.7182C32.7872 20.9637 32.7299 21.2071 32.6122 21.4226C32.4973 21.6424 32.3428 21.8391 32.1564 22.0028C31.9505 22.1752 31.7104 22.3023 31.452 22.3757C31.1705 22.4634 30.8767 22.5054 30.5819 22.5C30.3175 22.4951 30.0541 22.4674 29.7946 22.4171C29.5781 22.3797 29.3686 22.3099 29.173 22.2099C28.9972 22.1317 28.8304 22.0345 28.6758 21.9199C28.5435 21.8187 28.4189 21.7079 28.3029 21.5884L29.2145 20.5939Z" fill="black"/>
<path d="M36.2173 22.4171C35.8167 22.423 35.42 22.338 35.0571 22.1685C34.7099 22.0105 34.3886 21.801 34.104 21.5469C33.8409 21.2694 33.6303 20.9465 33.4825 20.5939C33.3268 20.2132 33.2561 19.8031 33.2753 19.3922C33.2801 18.9832 33.35 18.5776 33.4825 18.1906C33.6404 17.8434 33.85 17.5221 34.104 17.2375C34.3706 16.9609 34.6965 16.7484 35.0571 16.616C35.4214 16.4506 35.8172 16.3658 36.2173 16.3674C36.6179 16.3614 37.0146 16.4464 37.3775 16.616C37.7247 16.7739 38.046 16.9835 38.3305 17.2375C38.5937 17.515 38.8043 17.8379 38.9521 18.1906C39.1078 18.5713 39.1785 18.9814 39.1593 19.3922C39.1545 19.8012 39.0846 20.2069 38.9521 20.5939C38.8043 20.9465 38.5937 21.2694 38.3305 21.5469C38.064 21.8235 37.7381 22.036 37.3775 22.1685C37.0198 22.3531 36.6193 22.4389 36.2173 22.4171ZM36.2173 21.2154C36.4496 21.2248 36.6797 21.1673 36.8803 21.0497C37.0693 20.9598 37.2383 20.833 37.3775 20.6768C37.5121 20.4982 37.6235 20.3033 37.709 20.0966C37.7939 19.8716 37.836 19.6327 37.8333 19.3922C37.8324 19.152 37.7903 18.9138 37.709 18.6878C37.6399 18.4735 37.527 18.276 37.3775 18.1077C37.2498 17.9394 37.0776 17.8102 36.8803 17.7348C36.6697 17.65 36.4443 17.6077 36.2173 17.6105C35.9899 17.6036 35.7638 17.646 35.5543 17.7348C35.3632 17.8211 35.1935 17.9484 35.0571 18.1077C34.7608 18.47 34.5996 18.9241 34.6013 19.3922C34.6022 19.6324 34.6443 19.8706 34.7256 20.0966C34.7947 20.3109 34.9076 20.5084 35.0571 20.6768C35.1935 20.836 35.3632 20.9633 35.5543 21.0497C35.7529 21.172 35.9845 21.2298 36.2173 21.2154Z" fill="black"/>
<path d="M45.0017 21.2569C44.8825 21.4383 44.7274 21.5934 44.5459 21.7127C44.3794 21.8745 44.1822 22.0013 43.9658 22.0856C43.7631 22.2108 43.5379 22.2953 43.3028 22.3342C43.0604 22.4026 42.8085 22.4306 42.557 22.4171C42.148 22.4123 41.7423 22.3424 41.3553 22.2099C41.0069 22.0771 40.6947 21.8641 40.4437 21.5884C40.1806 21.3109 39.97 20.988 39.8222 20.6353C39.6862 20.2492 39.6162 19.843 39.615 19.4337C39.6198 19.0247 39.6897 18.619 39.8222 18.232C39.9389 17.8638 40.1538 17.5343 40.4437 17.279C40.699 16.989 41.0285 16.7742 41.3968 16.6574C41.7804 16.5073 42.1867 16.4232 42.5984 16.4088C43.0844 16.3923 43.5673 16.4917 44.0073 16.6989C44.4074 16.8804 44.751 17.1667 45.0017 17.5276L44.1316 18.3563C43.9667 18.1221 43.7551 17.9245 43.51 17.7762C43.2628 17.621 42.9725 17.5484 42.6813 17.569C42.4408 17.5663 42.2019 17.6085 41.9769 17.6933C41.7732 17.7786 41.5897 17.9057 41.4382 18.0663C41.3036 18.2448 41.1922 18.4398 41.1067 18.6464C40.9421 19.1016 40.9421 19.6 41.1067 20.0552C41.1922 20.2618 41.3036 20.4568 41.4382 20.6353C41.5746 20.7946 41.7443 20.9219 41.9354 21.0083C42.1461 21.0931 42.3714 21.1353 42.5984 21.1326C42.7808 21.1285 42.9619 21.1006 43.1371 21.0497C43.2841 21.0199 43.4245 20.9637 43.5515 20.884C43.6758 20.8011 43.7586 20.7182 43.8829 20.6353C44.0073 20.5525 44.0487 20.4282 44.1316 20.3453L45.0017 21.2569Z" fill="black"/>
<path d="M45.5404 16.4917H46.8249V22.2099H45.5404V16.4917Z" fill="black"/>
<path d="M49.3526 16.4917H50.7614L52.8332 22.2099H51.4244L50.9686 20.884H48.9382L48.4824 22.2099H47.115L49.3526 16.4917ZM50.72 19.8895L50.0155 17.7348L49.3111 19.8895H50.72Z" fill="black"/>
<path d="M53.952 17.6519H52.0874V16.5331H57.0598V17.6519H55.2366V22.2099H53.952V17.6519Z" fill="black"/>
<path d="M57.7228 16.4917H59.0073V22.2099H57.7228V16.4917Z" fill="black"/>
<path d="M62.6123 22.3756C62.2117 22.3816 61.815 22.2966 61.4521 22.127C61.1049 21.9691 60.7836 21.7595 60.499 21.5055C60.2359 21.228 60.0253 20.9051 59.8775 20.5524C59.7218 20.1717 59.6511 19.7616 59.6703 19.3508C59.6751 18.9418 59.745 18.5361 59.8775 18.1491C60.0355 17.8019 60.245 17.4806 60.499 17.1961C60.7656 16.9195 61.0915 16.707 61.4521 16.5745C61.8164 16.4091 62.2122 16.3243 62.6123 16.3259C63.0129 16.32 63.4096 16.405 63.7725 16.5745C64.1197 16.7325 64.441 16.942 64.7256 17.1961C64.9887 17.4736 65.1993 17.7965 65.3471 18.1491C65.5028 18.5298 65.5735 18.9399 65.5543 19.3508C65.5495 19.7598 65.4796 20.1654 65.3471 20.5524C65.1993 20.9051 64.9887 21.228 64.7256 21.5055C64.459 21.7821 64.1331 21.9946 63.7725 22.127C63.4096 22.2966 63.0129 22.3816 62.6123 22.3756ZM62.6123 21.1325C62.8446 21.1419 63.0747 21.0844 63.2753 20.9668C63.4643 20.877 63.6334 20.7501 63.7725 20.5939C63.9071 20.4153 64.0185 20.2204 64.104 20.0138C64.1889 19.7887 64.231 19.5498 64.2283 19.3093C64.2274 19.0692 64.1853 18.8309 64.104 18.6049C64.0445 18.3866 63.9304 18.1869 63.7725 18.0248C63.6449 17.8565 63.4726 17.7273 63.2753 17.6519C63.0647 17.5671 62.8393 17.5248 62.6123 17.5276C62.3849 17.5208 62.1588 17.5632 61.9493 17.6519C61.7582 17.7382 61.5885 17.8655 61.4521 18.0248C61.3089 18.1975 61.1967 18.3938 61.1206 18.6049C60.956 19.0601 60.956 19.5586 61.1206 20.0138C61.1897 20.228 61.3026 20.4256 61.4521 20.5939C61.5885 20.7531 61.7582 20.8805 61.9493 20.9668C62.1479 21.0891 62.3795 21.147 62.6123 21.1325Z" fill="black"/>
<path d="M66.0929 16.4917H67.336L69.8222 20.1795V16.4917H71.1067V22.2099H69.9465L67.4189 18.4392V22.2099H66.1343V16.4917H66.0929Z" fill="black"/>
<path d="M18.2753 24.0746H22.0874V25.1934H19.5598V26.4779H21.5073V27.5967H19.5598V29.7514H18.2753V24.0746Z" fill="black"/>
<path d="M25.1951 29.9171C24.7945 29.923 24.3978 29.838 24.0349 29.6685C23.6877 29.5105 23.3663 29.301 23.0818 29.0469C22.8187 28.7694 22.6081 28.4465 22.4603 28.0939C22.3046 27.7132 22.2339 27.3031 22.2531 26.8922C22.2579 26.4832 22.3278 26.0776 22.4603 25.6906C22.6182 25.3434 22.8278 25.0221 23.0818 24.7375C23.3484 24.4609 23.6743 24.2484 24.0349 24.116C24.3992 23.9506 24.7949 23.8658 25.1951 23.8674C25.5956 23.8614 25.9923 23.9464 26.3553 24.116C26.7025 24.2739 27.0238 24.4835 27.3083 24.7375C27.5714 25.015 27.782 25.3379 27.9299 25.6906C28.0856 26.0713 28.1563 26.4814 28.1371 26.8922C28.1323 27.3012 28.0623 27.7069 27.9299 28.0939C27.782 28.4465 27.5714 28.7694 27.3083 29.0469C27.0417 29.3235 26.7159 29.536 26.3553 29.6685C25.9923 29.838 25.5956 29.923 25.1951 29.9171ZM25.1951 28.7154C25.4274 28.7248 25.6575 28.6673 25.8581 28.5497C26.047 28.4598 26.2161 28.333 26.3553 28.1768C26.4899 27.9982 26.6013 27.8033 26.6868 27.5966C26.7716 27.3716 26.8138 27.1327 26.8111 26.8922C26.8101 26.652 26.7681 26.4138 26.6868 26.1878C26.6177 25.9735 26.5048 25.776 26.3553 25.6077C26.2276 25.4394 26.0554 25.3102 25.8581 25.2348C25.6474 25.15 25.4221 25.1077 25.1951 25.1105C24.9677 25.1036 24.7415 25.146 24.5321 25.2348C24.3348 25.3102 24.1625 25.4394 24.0349 25.6077C23.7385 25.97 23.5774 26.4241 23.579 26.8922C23.58 27.1324 23.622 27.3706 23.7034 27.5966C23.7725 27.8109 23.8853 28.0084 24.0349 28.1768C24.1829 28.3389 24.3617 28.4701 24.5609 28.5625C24.7601 28.655 24.9756 28.707 25.1951 28.7154Z" fill="black"/>
<path d="M28.6758 24.0746H30.789C31.0839 24.0692 31.3777 24.1111 31.6592 24.1989C31.8928 24.2727 32.1057 24.4005 32.2808 24.5718C32.4513 24.7312 32.5795 24.9306 32.6537 25.1519C32.7385 25.3769 32.7807 25.6158 32.778 25.8563C32.7901 26.1915 32.7036 26.5228 32.5294 26.8094C32.3704 27.0991 32.1238 27.3312 31.825 27.4723L33.1095 29.7514H31.7006L30.6233 27.6381H29.9189V29.7514H28.6758V24.0746ZM30.7476 26.6436C30.9593 26.645 31.1648 26.5716 31.3277 26.4364C31.4625 26.2896 31.5365 26.0971 31.5349 25.8978C31.5396 25.7985 31.5236 25.6994 31.4879 25.6067C31.4522 25.5139 31.3977 25.4296 31.3277 25.3591C31.1681 25.2181 30.9604 25.1439 30.7476 25.1519H29.9603V26.6851H30.7476V26.6436Z" fill="black"/>
<path d="M37.336 24.0746H38.7448L40.8166 29.7928H39.4078L38.952 28.4668H36.9216L36.4658 29.7928H35.0984L37.336 24.0746ZM38.6619 27.4724L37.9575 25.3177L37.2531 27.4724H38.6619Z" fill="black"/>
<path d="M41.2311 24.0746H43.3443C43.6392 24.0692 43.933 24.1111 44.2145 24.1989C44.4481 24.2727 44.661 24.4005 44.8361 24.5718C45.0066 24.7312 45.1348 24.9306 45.209 25.1519C45.2938 25.3769 45.336 25.6158 45.3333 25.8563C45.3454 26.1915 45.2589 26.5228 45.0847 26.8094C44.9257 27.0991 44.6791 27.3312 44.3803 27.4723L45.6648 29.7514H44.2559L43.1786 27.6381H42.4742V29.7514H41.2311V24.0746ZM43.3029 26.6436C43.5146 26.645 43.7201 26.5716 43.883 26.4364C44.0178 26.2896 44.0918 26.0971 44.0902 25.8978C44.0949 25.7985 44.0789 25.6994 44.0432 25.6067C44.0075 25.5139 43.953 25.4296 43.883 25.3591C43.7234 25.2181 43.5157 25.1439 43.3029 25.1519H42.5156V26.6851H43.3029V26.6436Z" fill="black"/>
<path d="M47.6537 25.1934H45.7891V24.0746H50.7614V25.1934H48.9382V29.7514H47.6537V25.1934Z" fill="black"/>
<path d="M53.1648 24.0746H54.4493V26.2707H56.9355V24.0746H58.22V29.7928H56.9355V27.4309H54.4493V29.7928H53.1648V24.0746Z" fill="black"/>
<path d="M59.0073 24.0746H60.2919V29.7928H59.0073V24.0746Z" fill="black"/>
<path d="M61.6592 28.0939L61.9078 28.3425C62.0018 28.435 62.115 28.5057 62.2393 28.5497C62.3663 28.6295 62.5066 28.6857 62.6536 28.7155C62.8013 28.763 62.9545 28.7909 63.1094 28.7983C63.208 28.805 63.3068 28.7909 63.3995 28.7569L63.6481 28.6326C63.731 28.5911 63.7724 28.5083 63.8553 28.4254C63.9013 28.3498 63.9296 28.2648 63.9382 28.1768C63.9413 28.075 63.9158 27.9745 63.8645 27.8866C63.8132 27.7986 63.7382 27.7269 63.6481 27.6795C63.3382 27.5125 63.0018 27.4003 62.6536 27.3481C62.4407 27.2978 62.2326 27.2284 62.0321 27.1409C61.8571 27.0449 61.6907 26.934 61.5348 26.8094C61.4016 26.6754 61.2898 26.5216 61.2034 26.3536C61.1185 26.1721 61.076 25.9738 61.0791 25.7735C61.0763 25.5464 61.1186 25.3211 61.2034 25.1105C61.2876 24.8941 61.4144 24.6969 61.5763 24.5304C61.7606 24.3499 61.9893 24.2213 62.2393 24.1574C62.535 24.0699 62.8425 24.028 63.1509 24.0331C63.4152 24.038 63.6786 24.0658 63.9382 24.116C64.1396 24.1598 64.3346 24.2295 64.5183 24.3232C64.6547 24.3862 64.7806 24.4701 64.8912 24.5718L65.0984 24.779L64.3525 25.6077C64.2697 25.5663 64.2282 25.4834 64.1453 25.442C64.054 25.3779 63.9569 25.3224 63.8553 25.2762C63.7475 25.228 63.6368 25.1865 63.5238 25.1519C63.4026 25.1177 63.2766 25.1037 63.1509 25.1105C63.0659 25.104 62.9805 25.1182 62.9023 25.1519L62.6536 25.2762C62.5708 25.3177 62.5293 25.4005 62.4879 25.442C62.4465 25.4834 62.405 25.5663 62.405 25.6492C62.4027 25.7453 62.429 25.84 62.4807 25.9212C62.5323 26.0024 62.607 26.0663 62.6951 26.105C62.9566 26.2393 63.2355 26.3369 63.5238 26.395C63.7368 26.4453 63.9448 26.5146 64.1453 26.6022C64.339 26.6879 64.5202 26.7994 64.684 26.9337C64.8543 27.0767 64.983 27.2627 65.0569 27.4724C65.1601 27.7079 65.2164 27.9612 65.2227 28.2182C65.2319 28.4637 65.1746 28.7071 65.0569 28.9226C64.942 29.1424 64.7875 29.3391 64.6012 29.5028C64.3952 29.6752 64.1551 29.8023 63.8967 29.8757C63.6152 29.9634 63.3214 30.0054 63.0266 30C62.7622 29.9951 62.4988 29.9674 62.2393 29.9171C62.0228 29.8797 61.8133 29.8099 61.6177 29.7099C61.4419 29.6317 61.2751 29.5345 61.1205 29.4199C60.9882 29.3187 60.8636 29.2079 60.7476 29.0884L61.6592 28.0939Z" fill="black"/>
<path d="M67.4603 25.2348H65.6371V24.116H70.6095V25.2348H68.7863V29.7928H67.5017V25.2348H67.4603Z" fill="black"/>
<path d="M73.51 29.9585C73.1094 29.9645 72.7127 29.8795 72.3498 29.7099C72.0026 29.552 71.6813 29.3424 71.3968 29.0884C71.1336 28.8109 70.9231 28.488 70.7752 28.1353C70.6195 27.7546 70.5488 27.3445 70.568 26.9337C70.5728 26.5246 70.6427 26.119 70.7752 25.732C70.9332 25.3848 71.1427 25.0635 71.3968 24.779C71.6633 24.5024 71.9892 24.2899 72.3498 24.1574C72.7141 23.992 73.1099 23.9072 73.51 23.9088C73.9106 23.9028 74.3073 23.9878 74.6702 24.1574C75.0174 24.3154 75.3387 24.5249 75.6233 24.779C75.8864 25.0564 76.097 25.3794 76.2448 25.732C76.4005 26.1127 76.4712 26.5228 76.452 26.9337C76.4472 27.3427 76.3773 27.7483 76.2448 28.1353C76.097 28.488 75.8864 28.8109 75.6233 29.0884C75.3567 29.3649 75.0308 29.5775 74.6702 29.7099C74.3073 29.8795 73.9106 29.9645 73.51 29.9585ZM73.51 28.7154C73.7423 28.7248 73.9724 28.6673 74.173 28.5497C74.362 28.4598 74.5311 28.333 74.6702 28.1768C74.8048 27.9982 74.9162 27.8033 75.0017 27.5966C75.0866 27.3716 75.1287 27.1327 75.126 26.8922C75.1251 26.652 75.083 26.4138 75.0017 26.1878C74.9326 25.9736 74.8197 25.776 74.6702 25.6077C74.5426 25.4394 74.3703 25.3102 74.173 25.2348C73.9624 25.15 73.7371 25.1077 73.51 25.1105C73.2826 25.1036 73.0565 25.1461 72.847 25.2348C72.6497 25.3102 72.4775 25.4394 72.3498 25.6077C72.0535 25.9701 71.8923 26.4241 71.894 26.8922C71.8949 27.1324 71.937 27.3707 72.0183 27.5966C72.0874 27.8109 72.2003 28.0084 72.3498 28.1768C72.4979 28.3389 72.6767 28.4701 72.8758 28.5625C73.075 28.655 73.2906 28.707 73.51 28.7154Z" fill="black"/>
<path d="M77.0736 24.116H79.1869C79.4817 24.1106 79.7755 24.1526 80.057 24.2403C80.2906 24.3142 80.5035 24.4419 80.6786 24.6132C80.8492 24.7726 80.9773 24.972 81.0515 25.1933C81.1364 25.4184 81.1785 25.6573 81.1758 25.8978C81.1879 26.2329 81.1014 26.5643 80.9272 26.8508C80.7682 27.1406 80.5217 27.3727 80.2228 27.5138L81.5073 29.7928H80.1399L79.0626 27.6795H78.3581V29.7928H77.115V24.116H77.0736ZM79.1454 26.6851C79.3572 26.6865 79.5626 26.6131 79.7255 26.4779C79.8603 26.331 79.9343 26.1385 79.9327 25.9392C79.9374 25.84 79.9214 25.7408 79.8857 25.6481C79.8501 25.5554 79.7955 25.4711 79.7255 25.4005C79.566 25.2595 79.3582 25.1853 79.1454 25.1933H78.3581V26.7265H79.1454V26.6851Z" fill="black"/>
<path d="M83.289 27.4309L81.3 24.116H82.7503L83.9934 26.2707L85.1951 24.116H86.6039L84.615 27.4309V29.8343H83.289V27.4309Z" fill="black"/>
<path d="M29.6703 0.497215H15.5819V4.06075C14.8527 2.58395 13.6453 1.39727 12.1561 0.693712C10.6669 -0.00984855 8.98349 -0.18891 7.37962 0.185646C5.77575 0.560203 4.34577 1.46635 3.32222 2.75671C2.29868 4.04708 1.74178 5.64577 1.74209 7.2928C1.75273 8.65686 2.14188 9.99119 2.86617 11.1471C3.59046 12.3031 4.62146 13.2352 5.8443 13.8398H0.333252L16.2863 29.7928V14.5856H29.6288V0.497215H29.6703ZM2.48795 7.2928C2.48245 5.55643 3.16695 3.88901 4.39086 2.65733C5.61477 1.42565 7.27783 0.730611 9.01419 0.725116C10.7506 0.719621 12.418 1.40412 13.6497 2.62803C14.8813 3.85193 15.5764 5.515 15.5819 7.25136V7.33423C15.5764 9.07059 14.8813 10.7337 13.6497 11.9576C12.418 13.1815 10.7506 13.866 9.01419 13.8605C7.27783 13.855 5.61477 13.1599 4.39086 11.9283C3.16695 10.6966 2.48245 9.02916 2.48795 7.2928ZM15.5404 10.5248V13.8398H12.1841C13.642 13.1411 14.8237 11.974 15.5404 10.5248ZM15.5404 27.9696L2.15646 14.5856H15.5404V27.9696ZM28.883 13.8398H16.2863V1.24307H28.883V13.8398Z" fill="black"/>
</svg>
