<svg width="326" height="40" viewBox="0 0 326 40" fill="none" xmlns="http://www.w3.org/2000/svg">
<path d="M301.481 29.9796C302.838 35.275 307.309 38.2892 312.259 38.2892C316.57 38.2892 321.121 36.0082 321.121 31.2831C321.121 22.8106 300.603 20.2037 300.603 9.85744C300.603 4.96945 305.473 1.30346 312.019 1.30346C317.368 1.30346 318.486 2.76986 320.722 2.76986C321.201 2.76986 321.52 2.68839 321.839 2.19959H322.877L323.995 9.77597H322.877C321.121 5.53972 316.969 2.76986 312.578 2.76986C308.347 2.76986 305.393 5.05092 305.393 8.30957C305.393 16.7006 325.911 18.9002 325.911 29.8167C325.911 35.6008 320.322 39.9185 312.818 39.9185C309.305 39.9185 304.834 38.2892 303.956 38.2892C303.397 38.2892 302.918 38.6151 302.678 38.9409H301.641L300.283 29.9796H301.481ZM288.787 12.5458C291.98 10.835 293.737 8.79837 293.737 6.68024C293.737 5.94705 293.497 5.45825 292.858 5.45825C292.3 5.45825 292.06 5.62118 291.342 5.62118C289.665 5.62118 288.467 4.48065 288.467 2.93279C288.467 1.30346 289.984 0 291.9 0C294.455 0 296.371 2.03666 296.371 4.88798C296.371 8.55397 293.497 12.057 289.266 13.6049L288.787 12.5458ZM278.967 25.6619H277.689C277.21 21.5071 275.933 21.0183 273.298 21.0183H262.52V33.5642C262.52 36.2525 263.638 36.8228 265.953 36.8228H275.773C280.244 36.8228 281.601 35.1935 283.198 30.1426H284.316L283.278 38.9409H249.267V37.8004H251.024C256.133 37.8004 257.012 36.4969 257.012 32.9939V8.06517C257.012 4.72505 256.213 3.34012 251.902 3.34012H250.465V2.28106H281.202L281.681 10.5092H280.564C279.765 5.45825 278.168 4.39919 275.853 4.39919H262.52V18.9002H273.937C276.252 18.9002 277.29 17.9226 277.61 14.501H278.807L278.967 25.6619ZM246.393 38.9409H230.825V37.8004C234.817 37.6375 235.615 36.6599 235.615 32.7495V7.65784C235.615 4.48065 234.418 3.58452 230.825 3.42159V2.28106H246.393V3.42159C242.401 3.42159 240.964 4.23625 240.964 8.22811V33.2383C240.964 36.7413 242.002 37.8819 246.393 37.8819V38.9409ZM208.95 33.5642C208.95 36.7413 210.067 37.8819 213.979 37.8819H216.375V39.0224H196.256V37.8819H198.651C202.563 37.8819 203.68 36.7413 203.68 33.5642V4.39919H192.583C190.028 4.39919 188.911 5.78411 187.873 10.9165H186.675L187.713 1.38493H188.911C188.99 1.71079 189.23 1.95519 189.629 2.11813C190.028 2.19959 190.428 2.28106 190.907 2.28106H221.724C222.602 2.28106 223.56 2.11813 223.72 1.38493H224.917L225.955 10.9165H224.837C223.879 5.70265 222.762 4.39919 220.127 4.39919H209.03V33.5642H208.95ZM159.85 29.9796C161.207 35.275 165.678 38.2892 170.628 38.2892C174.939 38.2892 179.49 36.0082 179.49 31.2831C179.49 22.8106 158.972 20.2037 158.972 9.85744C158.972 4.96945 163.842 1.30346 170.388 1.30346C175.737 1.30346 176.855 2.76986 179.091 2.76986C179.57 2.76986 179.889 2.68839 180.208 2.19959H181.246L182.364 9.6945H181.246C179.49 5.45825 175.338 2.68839 170.947 2.68839C166.716 2.68839 163.762 4.96945 163.762 8.22811C163.762 16.6191 184.28 18.8187 184.28 29.7352C184.28 35.5194 178.691 39.8371 171.267 39.8371C167.754 39.8371 163.283 38.2077 162.405 38.2077C161.846 38.2077 161.367 38.5336 161.127 38.8595H160.01L158.652 29.8982C158.652 29.9796 159.85 29.9796 159.85 29.9796ZM152.984 38.9409H137.416V37.8004C141.408 37.6375 142.206 36.6599 142.206 32.7495V7.65784C142.206 4.48065 141.008 3.58452 137.416 3.42159V2.28106H152.984V3.42159C148.912 3.42159 147.555 4.23625 147.555 8.22811V33.2383C147.555 36.7413 148.593 37.8819 152.984 37.8819V38.9409ZM105.88 21.833C106.678 21.9959 108.115 22.3218 109.313 22.3218C116.259 22.3218 120.73 17.9226 120.73 11.9756C120.73 7.33198 118.734 2.85132 110.271 2.85132C108.834 2.85132 107.397 2.85132 105.88 3.09572V21.833ZM105.88 22.9735V33.3198C105.88 36.6599 106.998 37.8819 110.99 37.8819H113.065V39.0224H95.3416V37.8819H96.2198C99.5729 37.8819 100.531 37.2301 100.531 34.4603V6.51731C100.531 4.31772 99.7326 3.42159 97.4972 3.42159H94.3037V2.28106C96.0601 2.19959 99.2536 2.03666 102.367 1.95519C105.481 1.87373 108.595 1.79226 110.271 1.79226C123.684 1.79226 126.718 7.65784 126.718 12.22C126.718 19.1446 120.73 21.6701 119.133 22.1589L126.718 32.7495C127.596 33.9715 129.192 35.7638 130.23 36.8228C131.109 37.6375 131.987 38.1263 133.823 38.6151V39.6741H133.025C126.797 39.6741 123.125 36.7413 116.498 26.721C115.381 24.9287 114.582 24.0326 113.784 23.2179C113.944 23.2994 109.393 23.7067 105.88 22.9735ZM55.1037 21.4257V32.668C55.1037 36.4969 55.902 37.8819 60.2132 37.8819H60.3729V39.0224H44.3257V37.8819H44.7248C48.4772 37.8819 49.7546 36.9043 49.7546 33.5642V7.57638C49.7546 4.48065 48.6369 3.58452 45.124 3.42159V2.28106H60.3729V3.42159C55.8222 3.42159 55.0238 4.56212 55.0238 9.12424V19.389H80.0927V7.65784C80.0927 4.56212 78.975 3.34012 75.0629 3.34012H73.8654V2.28106H90.3118V3.42159C86.4796 3.50306 85.4417 4.56212 85.4417 8.22811V32.7495C85.4417 36.9043 86.7191 37.8819 90.5513 37.8819H91.19V39.0224H73.1469V37.8819H75.1428C79.2943 37.8819 80.1725 36.4969 80.1725 33.4827V21.4257H55.1037ZM38.5774 11.8941C36.5016 6.43585 30.9929 2.85132 24.047 2.85132C13.3489 2.85132 6.7224 10.0204 6.7224 19.8778C6.7224 30.5499 15.0255 38.4521 24.7656 38.4521C29.7953 38.4521 36.0226 36.8228 40.4136 29.7352H41.6112C40.8128 32.4236 39.0564 36.0896 37.5395 38.3707C33.4678 37.8819 30.5937 40 23.089 40C9.99572 39.9185 0.654785 32.0163 0.654785 21.0998C0.654785 9.61303 10.2352 1.38493 23.6479 1.38493C31.7114 1.38493 35.1444 3.74745 37.1403 3.74745C37.8589 3.74745 38.1782 3.58452 38.258 3.42159H39.2161L39.775 11.9756C39.8548 11.8941 38.5774 11.8941 38.5774 11.8941Z" fill="#777777"/>
</svg>
