<svg width="179" height="40" viewBox="0 0 179 40" fill="none" xmlns="http://www.w3.org/2000/svg">
<path d="M33.0645 3.55329H32.4793C32.4284 3.34976 32.3351 3.10949 32.1995 2.83246C32.0694 2.54978 31.9224 2.28406 31.7585 2.0353C31.5889 1.77523 31.4023 1.54909 31.1988 1.35687C31.0009 1.15899 30.8087 1.04592 30.6221 1.01765C30.4468 0.995035 30.2263 0.978075 29.9606 0.966767C29.6949 0.95546 29.449 0.949807 29.2228 0.949807H28.731V10.5751C28.731 10.7616 28.7705 10.9341 28.8497 11.0924C28.9288 11.245 29.0674 11.3638 29.2652 11.4486C29.367 11.4881 29.579 11.5418 29.9013 11.6097C30.2292 11.6775 30.4836 11.7143 30.6645 11.7199V12.322H24.9826V11.7199C25.1409 11.7086 25.3812 11.686 25.7035 11.6521C26.0314 11.6182 26.2575 11.5758 26.3819 11.5249C26.5685 11.4514 26.7041 11.3468 26.7889 11.2111C26.8794 11.0698 26.9246 10.8832 26.9246 10.6514V0.949807H26.4328C26.2575 0.949807 26.0398 0.95546 25.7798 0.966767C25.5197 0.972421 25.271 0.989382 25.0335 1.01765C24.8469 1.04026 24.6519 1.15334 24.4484 1.35687C24.2505 1.55474 24.0667 1.78089 23.8971 2.0353C23.7275 2.28971 23.5777 2.56109 23.4477 2.84942C23.3176 3.1321 23.2272 3.36672 23.1763 3.55329H22.5827V0.288334H33.0645V3.55329Z" fill="#777777"/>
<path d="M46.4974 12.322H41.5025V11.7199C41.6382 11.7086 41.8332 11.6917 42.0876 11.6691C42.3477 11.6464 42.5258 11.6125 42.6219 11.5673C42.7915 11.4994 42.9159 11.3977 42.995 11.262C43.0742 11.1207 43.1137 10.9397 43.1137 10.7192V6.43664H37.4573V10.626C37.4573 10.8238 37.4884 10.9906 37.5506 11.1263C37.6184 11.262 37.7485 11.3807 37.9407 11.4825C38.0368 11.5334 38.2064 11.5842 38.4495 11.6351C38.6983 11.686 38.8933 11.7143 39.0347 11.7199V12.322H34.0397V11.7199C34.1754 11.7086 34.3704 11.6917 34.6249 11.6691C34.8849 11.6464 35.063 11.6125 35.1591 11.5673C35.3287 11.4994 35.4531 11.3977 35.5323 11.262C35.6114 11.1207 35.651 10.9397 35.651 10.7192V2.0353C35.651 1.85438 35.6142 1.69043 35.5407 1.54344C35.4672 1.39079 35.34 1.27206 35.1591 1.18726C35.0065 1.11376 34.8199 1.04874 34.5994 0.992209C34.3846 0.935673 34.198 0.901751 34.0397 0.890444V0.288334H39.0347V0.890444C38.8764 0.896097 38.6813 0.921539 38.4495 0.966767C38.2234 1.012 38.0538 1.0544 37.9407 1.09397C37.7485 1.16182 37.6184 1.27489 37.5506 1.43319C37.4884 1.59149 37.4573 1.76393 37.4573 1.9505V5.68188H43.1137V2.0353C43.1137 1.85438 43.077 1.69043 43.0035 1.54344C42.93 1.39079 42.8028 1.27206 42.6219 1.18726C42.4692 1.11376 42.2827 1.04874 42.0622 0.992209C41.8473 0.935673 41.6608 0.901751 41.5025 0.890444V0.288334H46.4974V0.890444C46.3391 0.896097 46.1441 0.921539 45.9123 0.966767C45.6861 1.012 45.5165 1.0544 45.4035 1.09397C45.2112 1.16182 45.0812 1.27489 45.0134 1.43319C44.9512 1.59149 44.9201 1.76393 44.9201 1.9505V10.626C44.9201 10.8238 44.9512 10.9906 45.0134 11.1263C45.0812 11.262 45.2112 11.3807 45.4035 11.4825C45.4996 11.5334 45.6692 11.5842 45.9123 11.6351C46.161 11.686 46.3561 11.7143 46.4974 11.7199V12.322Z" fill="#777777"/>
<path d="M58.3191 8.77723L58.0902 12.322H48.1002V11.7199C48.2698 11.7086 48.496 11.686 48.7787 11.6521C49.0613 11.6125 49.2451 11.5729 49.3299 11.5334C49.5108 11.4486 49.6352 11.3383 49.703 11.2026C49.7765 11.0669 49.8133 10.8945 49.8133 10.6853V2.0353C49.8133 1.84873 49.7822 1.68478 49.72 1.54344C49.6578 1.39644 49.5278 1.27772 49.3299 1.18726C49.1772 1.11376 48.9709 1.04874 48.7108 0.992209C48.4564 0.935673 48.2529 0.901751 48.1002 0.890444V0.288334H57.4117V3.18864H56.7757C56.6626 2.75896 56.4167 2.30385 56.0379 1.82329C55.6648 1.33708 55.3086 1.07136 54.9694 1.02613C54.7941 1.00352 54.5849 0.986555 54.3418 0.975248C54.0987 0.963941 53.8217 0.958287 53.5107 0.958287H51.6196V5.74124H52.9765C53.4118 5.74124 53.7284 5.70167 53.9263 5.62252C54.1298 5.53771 54.3079 5.3992 54.4605 5.20698C54.5849 5.04302 54.6895 4.82536 54.7743 4.55398C54.8648 4.27696 54.9241 4.01689 54.9524 3.77378H55.5884V8.48042H54.9524C54.9298 8.20904 54.8676 7.92353 54.7658 7.62389C54.6697 7.3186 54.568 7.09811 54.4605 6.96242C54.2853 6.74193 54.0846 6.59776 53.8584 6.52992C53.6379 6.46208 53.344 6.42815 52.9765 6.42815H51.6196V10.0408C51.6196 10.4026 51.645 10.6882 51.6959 10.8973C51.7468 11.1065 51.8457 11.2648 51.9927 11.3722C52.1397 11.4797 52.3404 11.5503 52.5949 11.5842C52.8493 11.6125 53.2111 11.6266 53.6803 11.6266C53.8669 11.6266 54.1128 11.6266 54.4181 11.6266C54.7234 11.6266 54.9807 11.6153 55.1899 11.5927C55.4047 11.5701 55.6252 11.5305 55.8513 11.474C56.0831 11.4118 56.2471 11.3298 56.3432 11.2281C56.6033 10.9567 56.8746 10.5468 57.1573 9.99841C57.4457 9.44436 57.6294 9.0373 57.7085 8.77723H58.3191Z" fill="#777777"/>
<path d="M80.1053 0.890444C79.964 0.896097 79.8 0.930019 79.6135 0.992209C79.4269 1.04874 79.2545 1.12507 79.0962 1.22118C78.8983 1.34556 78.7371 1.48973 78.6128 1.65368C78.494 1.81198 78.3895 2.0353 78.299 2.32363C77.8976 3.62962 77.4312 5.15609 76.8997 6.90306C76.3683 8.64437 75.7944 10.5016 75.1782 12.4747H74.398L71.362 3.21408L68.1988 12.4747H67.4525C66.8928 10.4959 66.3133 8.44367 65.7141 6.31791C65.1148 4.1865 64.7134 2.75896 64.5098 2.0353C64.459 1.86004 64.3826 1.70456 64.2809 1.56888C64.1848 1.43319 64.0519 1.30881 63.8823 1.19574C63.7409 1.09963 63.5742 1.02896 63.3819 0.983728C63.1954 0.932846 63.0258 0.901751 62.8731 0.890444V0.288334H67.7833V0.890444C67.3536 0.913058 66.9861 0.95546 66.6808 1.01765C66.3812 1.07984 66.2314 1.18443 66.2314 1.33143C66.2314 1.38796 66.2398 1.46429 66.2568 1.5604C66.2738 1.65085 66.2879 1.72435 66.2992 1.78089C66.4292 2.2784 66.6582 3.10101 66.9861 4.24869C67.3197 5.39072 67.8115 7.10376 68.4617 9.38782L71.4638 0.457942H72.2949L75.3224 9.58287C75.7294 8.18077 76.0799 6.95677 76.3739 5.91085C76.6679 4.85928 76.911 3.96035 77.1033 3.21408C77.2389 2.68829 77.3237 2.32929 77.3577 2.13706C77.3916 1.93919 77.4085 1.77241 77.4085 1.63672C77.4085 1.4445 77.2757 1.28337 77.01 1.15334C76.7499 1.0233 76.3259 0.935673 75.7379 0.890444V0.288334H80.1053V0.890444Z" fill="#777777"/>
<path d="M90.4005 1.71304C90.932 2.2671 91.3475 2.93705 91.6472 3.7229C91.9468 4.5031 92.0966 5.3681 92.0966 6.31791C92.0966 7.27337 91.944 8.1412 91.6387 8.9214C91.3334 9.7016 90.9094 10.3659 90.3666 10.9143C89.8408 11.457 89.2302 11.8754 88.5349 12.1694C87.8395 12.4634 87.0988 12.6104 86.313 12.6104C85.4762 12.6104 84.7017 12.4549 83.9893 12.144C83.2827 11.8274 82.6749 11.3892 82.1661 10.8295C81.6572 10.2811 81.2558 9.61679 80.9618 8.83659C80.6735 8.05074 80.5293 7.21118 80.5293 6.31791C80.5293 5.33984 80.682 4.46918 80.9873 3.70594C81.2926 2.93705 81.7138 2.27275 82.2509 1.71304C82.7823 1.15899 83.3986 0.734969 84.0996 0.440982C84.8063 0.146994 85.5441 0 86.313 0C87.1101 0 87.8621 0.149821 88.5688 0.449462C89.2755 0.749103 89.8861 1.1703 90.4005 1.71304ZM89.137 10.2443C89.4536 9.72986 89.6825 9.14754 89.8239 8.49738C89.9709 7.84721 90.0444 7.12072 90.0444 6.31791C90.0444 5.49248 89.9624 4.7349 89.7984 4.04516C89.6401 3.35542 89.4055 2.76744 89.0946 2.28123C88.7836 1.80067 88.3935 1.42754 87.9243 1.16182C87.455 0.890444 86.9179 0.754757 86.313 0.754757C85.6346 0.754757 85.0579 0.910231 84.583 1.22118C84.1081 1.53213 83.7208 1.94767 83.4212 2.4678C83.1385 2.96532 82.9265 3.54764 82.7851 4.21477C82.6494 4.88189 82.5816 5.58294 82.5816 6.31791C82.5816 7.13203 82.6551 7.867 82.8021 8.52282C82.9491 9.17864 83.1809 9.76096 83.4975 10.2698C83.8028 10.7673 84.1872 11.1574 84.6508 11.4401C85.1144 11.7171 85.6685 11.8556 86.313 11.8556C86.9179 11.8556 87.4635 11.7143 87.9497 11.4316C88.4359 11.1489 88.8317 10.7532 89.137 10.2443Z" fill="#777777"/>
<path d="M105.326 12.322H102.087C101.369 11.197 100.718 10.2246 100.136 9.40478C99.5594 8.58501 98.9318 7.73979 98.2534 6.86914H97.0238V10.6853C97.0238 10.8832 97.0548 11.0585 97.117 11.2111C97.1792 11.3581 97.3121 11.4712 97.5156 11.5503C97.6174 11.5899 97.7955 11.6266 98.0499 11.6606C98.3043 11.6945 98.5191 11.7143 98.6944 11.7199V12.322H93.6061V11.7199C93.7418 11.7086 93.9369 11.6888 94.1913 11.6606C94.4514 11.6323 94.6323 11.5956 94.734 11.5503C94.9036 11.4768 95.0252 11.3694 95.0987 11.2281C95.1778 11.0867 95.2174 10.9058 95.2174 10.6853V1.98442C95.2174 1.78654 95.1892 1.61128 95.1326 1.45863C95.0761 1.30598 94.9432 1.19009 94.734 1.11093C94.5927 1.06005 94.409 1.01482 94.1828 0.975248C93.9567 0.930019 93.7644 0.901751 93.6061 0.890444V0.288334H99.1608C99.6696 0.288334 100.147 0.342043 100.594 0.449462C101.041 0.551227 101.445 0.718009 101.807 0.949807C102.157 1.17595 102.437 1.47277 102.646 1.84025C102.855 2.20208 102.96 2.64024 102.96 3.15471C102.96 3.61831 102.889 4.0282 102.748 4.38438C102.607 4.74055 102.398 5.04867 102.12 5.30874C101.866 5.55185 101.561 5.76386 101.205 5.94477C100.848 6.12003 100.455 6.26985 100.026 6.39423C100.619 7.18009 101.111 7.84156 101.501 8.37865C101.897 8.91574 102.381 9.56874 102.952 10.3376C103.2 10.6768 103.424 10.9284 103.622 11.0924C103.825 11.2507 104.026 11.3807 104.224 11.4825C104.371 11.556 104.554 11.6125 104.775 11.6521C104.995 11.6917 105.179 11.7143 105.326 11.7199V12.322ZM100.865 3.34976C100.865 2.62045 100.656 2.04378 100.238 1.61976C99.8195 1.19008 99.2287 0.975248 98.4654 0.975248H97.0238V6.13982H98.1347C98.9149 6.13982 99.565 5.89106 100.085 5.39354C100.605 4.89037 100.865 4.20911 100.865 3.34976Z" fill="#777777"/>
<path d="M115.46 8.74331L115.206 12.322H105.801V11.7199C105.937 11.7086 106.132 11.6888 106.386 11.6606C106.646 11.6323 106.827 11.5956 106.929 11.5503C107.098 11.4768 107.22 11.3694 107.294 11.2281C107.373 11.0867 107.412 10.9058 107.412 10.6853V2.06922C107.412 1.877 107.378 1.70739 107.31 1.5604C107.248 1.4134 107.121 1.29468 106.929 1.20422C106.799 1.13638 106.615 1.07136 106.378 1.00917C106.146 0.941326 105.954 0.901751 105.801 0.890444V0.288334H110.881V0.890444C110.722 0.896097 110.516 0.924365 110.262 0.975248C110.013 1.02613 109.832 1.07136 109.719 1.11093C109.527 1.17878 109.394 1.29468 109.32 1.45863C109.253 1.62259 109.219 1.79785 109.219 1.98442V10.0663C109.219 10.4394 109.236 10.7306 109.269 10.9397C109.309 11.1433 109.397 11.3016 109.532 11.4146C109.662 11.5164 109.855 11.5842 110.109 11.6182C110.369 11.6464 110.731 11.6606 111.195 11.6606C111.404 11.6606 111.621 11.6549 111.848 11.6436C112.074 11.6323 112.288 11.6097 112.492 11.5758C112.69 11.5418 112.871 11.4966 113.035 11.4401C113.204 11.3779 113.329 11.3016 113.408 11.2111C113.64 10.951 113.908 10.5581 114.214 10.0323C114.524 9.50089 114.739 9.07122 114.858 8.74331H115.46Z" fill="#777777"/>
<path d="M127.808 6.37727C127.808 7.40058 127.615 8.28819 127.231 9.04012C126.847 9.79205 126.346 10.4083 125.73 10.8889C125.108 11.3694 124.41 11.7284 123.635 11.9659C122.861 12.2033 122.061 12.322 121.235 12.322H116.249V11.7199C116.413 11.7199 116.625 11.7058 116.885 11.6775C117.151 11.6436 117.326 11.6069 117.411 11.5673C117.58 11.4938 117.702 11.3864 117.775 11.245C117.854 11.098 117.894 10.9228 117.894 10.7192V2.0353C117.894 1.84308 117.86 1.67064 117.792 1.51799C117.73 1.36535 117.603 1.24379 117.411 1.15334C117.235 1.06853 117.046 1.00634 116.842 0.966767C116.639 0.927192 116.464 0.901751 116.317 0.890444V0.288334H121.575C122.298 0.288334 123.011 0.401406 123.712 0.627551C124.413 0.848042 125.023 1.14768 125.543 1.52647C126.25 2.02965 126.804 2.68829 127.206 3.50241C127.607 4.31653 127.808 5.27482 127.808 6.37727ZM125.73 6.36879C125.73 5.56033 125.623 4.83101 125.408 4.18084C125.193 3.52503 124.879 2.95401 124.466 2.4678C124.076 2.0042 123.596 1.63955 123.025 1.37383C122.459 1.10811 121.829 0.975248 121.134 0.975248C120.902 0.975248 120.639 0.980901 120.345 0.992209C120.057 0.997862 119.842 1.00352 119.7 1.00917V10.2613C119.7 10.7758 119.85 11.132 120.15 11.3298C120.449 11.5277 120.91 11.6266 121.532 11.6266C122.25 11.6266 122.878 11.4994 123.415 11.245C123.952 10.9906 124.387 10.6373 124.721 10.185C125.071 9.71008 125.326 9.16168 125.484 8.53978C125.648 7.91223 125.73 7.18857 125.73 6.36879Z" fill="#777777"/>
<path d="M143.2 1.71304C143.731 2.2671 144.147 2.93705 144.446 3.7229C144.746 4.5031 144.896 5.3681 144.896 6.31791C144.896 7.27337 144.743 8.1412 144.438 8.9214C144.132 9.7016 143.708 10.3659 143.166 10.9143C142.64 11.457 142.029 11.8754 141.334 12.1694C140.639 12.4634 139.898 12.6104 139.112 12.6104C138.275 12.6104 137.501 12.4549 136.788 12.144C136.082 11.8274 135.474 11.3892 134.965 10.8295C134.456 10.2811 134.055 9.61679 133.761 8.83659C133.473 8.05074 133.328 7.21118 133.328 6.31791C133.328 5.33984 133.481 4.46918 133.786 3.70594C134.092 2.93705 134.513 2.27275 135.05 1.71304C135.581 1.15899 136.198 0.734969 136.899 0.440982C137.605 0.146994 138.343 0 139.112 0C139.909 0 140.661 0.149821 141.368 0.449462C142.075 0.749103 142.685 1.1703 143.2 1.71304ZM141.936 10.2443C142.253 9.72986 142.482 9.14754 142.623 8.49738C142.77 7.84721 142.843 7.12072 142.843 6.31791C142.843 5.49248 142.761 4.7349 142.598 4.04516C142.439 3.35542 142.205 2.76744 141.894 2.28123C141.583 1.80067 141.193 1.42754 140.723 1.16182C140.254 0.890444 139.717 0.754757 139.112 0.754757C138.434 0.754757 137.857 0.910231 137.382 1.22118C136.907 1.53213 136.52 1.94767 136.22 2.4678C135.938 2.96532 135.726 3.54764 135.584 4.21477C135.449 4.88189 135.381 5.58294 135.381 6.31791C135.381 7.13203 135.454 7.867 135.601 8.52282C135.748 9.17864 135.98 9.76096 136.297 10.2698C136.602 10.7673 136.986 11.1574 137.45 11.4401C137.913 11.7171 138.468 11.8556 139.112 11.8556C139.717 11.8556 140.263 11.7143 140.749 11.4316C141.235 11.1489 141.631 10.7532 141.936 10.2443Z" fill="#777777"/>
<path d="M155.742 3.29888H155.106C154.987 2.85225 154.739 2.37452 154.36 1.86569C153.987 1.35687 153.628 1.07701 153.283 1.02613C153.108 1.00352 152.898 0.986555 152.655 0.975248C152.418 0.963941 152.146 0.958287 151.841 0.958287H149.823V5.79212H151.205C151.623 5.79212 151.949 5.74972 152.18 5.66492C152.412 5.57446 152.61 5.43877 152.774 5.25786C152.887 5.13348 152.989 4.94126 153.079 4.68119C153.175 4.41547 153.238 4.13279 153.266 3.83315H153.91V8.55674H153.266C153.249 8.30798 153.19 8.0253 153.088 7.7087C152.992 7.3921 152.887 7.16312 152.774 7.02178C152.604 6.8126 152.39 6.67126 152.129 6.59776C151.875 6.51861 151.567 6.47904 151.205 6.47904H149.823V10.626C149.823 10.8125 149.86 10.9793 149.933 11.1263C150.007 11.2733 150.137 11.392 150.323 11.4825C150.408 11.5221 150.592 11.5701 150.874 11.6266C151.157 11.6832 151.372 11.7143 151.519 11.7199V12.322H146.303V11.7199C146.473 11.7086 146.699 11.6917 146.982 11.6691C147.265 11.6408 147.448 11.6069 147.533 11.5673C147.703 11.4938 147.824 11.3864 147.898 11.245C147.977 11.098 148.016 10.9228 148.016 10.7192V2.0353C148.016 1.84873 147.985 1.68478 147.923 1.54344C147.861 1.39644 147.731 1.27772 147.533 1.18726C147.38 1.11376 147.174 1.04874 146.914 0.992209C146.66 0.935673 146.456 0.901751 146.303 0.890444V0.288334H155.742V3.29888Z" fill="#777777"/>
<path d="M11.0769 39.4594H0.91626V38.3304C1.20247 38.3092 1.61589 38.2774 2.15652 38.235C2.69715 38.1926 3.07877 38.129 3.30138 38.0442C3.65119 37.9064 3.90561 37.7209 4.06461 37.4877C4.22362 37.2439 4.30313 36.91 4.30313 36.4859V20.1399C4.30313 19.7689 4.24482 19.4615 4.12822 19.2177C4.01161 18.9633 3.736 18.7513 3.30138 18.5817C2.98336 18.4544 2.58054 18.3378 2.09292 18.2318C1.61589 18.1152 1.22367 18.0463 0.91626 18.0251V16.8962H11.0769V18.0251C10.7482 18.0357 10.356 18.0781 9.9002 18.1523C9.44438 18.2159 9.04686 18.3007 8.70764 18.4067C8.30482 18.5339 8.03451 18.7407 7.8967 19.0269C7.7589 19.3131 7.68999 19.6311 7.68999 19.9809V36.311C7.68999 36.6608 7.7642 36.9736 7.9126 37.2492C8.07161 37.5142 8.33662 37.7262 8.70764 37.8852C8.93025 37.97 9.29067 38.0654 9.78889 38.1714C10.2977 38.2668 10.727 38.3198 11.0769 38.3304V39.4594Z" fill="#777777"/>
<path d="M37.0587 18.0251C36.7619 18.0357 36.3061 18.1205 35.6913 18.2795C35.0764 18.4385 34.6365 18.6029 34.3715 18.7725C33.9899 19.0375 33.7302 19.5463 33.5924 20.2989C33.4652 21.0516 33.4016 22.0056 33.4016 23.1611V39.682H32.0182L18.3435 21.2212V32.8605C18.3435 34.1644 18.423 35.1662 18.582 35.8658C18.7516 36.5654 19.006 37.0637 19.3453 37.3605C19.5891 37.5937 20.0926 37.811 20.8558 38.0124C21.6191 38.2138 22.1226 38.3198 22.3664 38.3304V39.4594H13.1122V38.3304C13.3984 38.3092 13.8807 38.2085 14.5591 38.0283C15.2376 37.8375 15.6616 37.6679 15.8312 37.5195C16.2022 37.2227 16.4566 36.7721 16.5944 36.1679C16.7322 35.5531 16.8011 34.5089 16.8011 33.0355V21.9208C16.8011 21.4332 16.7163 20.9456 16.5467 20.4579C16.3771 19.9703 16.1492 19.594 15.863 19.329C15.4814 18.9792 14.9619 18.6824 14.3047 18.4385C13.6581 18.1841 13.1334 18.0463 12.7305 18.0251V16.8962H19.1704L31.8592 34.1008V23.3678C31.8592 22.0533 31.7744 21.0463 31.6048 20.3466C31.4352 19.6364 31.1913 19.1647 30.8733 18.9315C30.5765 18.7301 30.0889 18.5339 29.4105 18.3431C28.7426 18.1523 28.2338 18.0463 27.884 18.0251V16.8962H37.0587V18.0251Z" fill="#777777"/>
<path d="M57.2368 23.018H56.1397C56.0443 22.6363 55.8694 22.1858 55.6149 21.6664C55.3711 21.1364 55.0955 20.6382 54.7881 20.1717C54.4701 19.6841 54.1203 19.2601 53.7386 18.8997C53.3676 18.5286 53.0072 18.3166 52.6574 18.2636C52.3288 18.2212 51.9154 18.1894 51.4171 18.1682C50.9189 18.147 50.4578 18.1364 50.0338 18.1364H49.1115V36.1838C49.1115 36.5336 49.1857 36.8569 49.3341 37.1538C49.4825 37.44 49.7423 37.6626 50.1133 37.8216C50.3041 37.8958 50.7016 37.9965 51.3058 38.1237C51.9207 38.2509 52.3977 38.3198 52.7369 38.3304V39.4594H42.0834V38.3304C42.3802 38.3092 42.8307 38.2668 43.4349 38.2032C44.0498 38.1396 44.4738 38.0601 44.707 37.9647C45.0568 37.8269 45.3112 37.6308 45.4702 37.3764C45.6399 37.1114 45.7247 36.7615 45.7247 36.3269V18.1364H44.8024C44.4738 18.1364 44.0657 18.147 43.5781 18.1682C43.0904 18.1788 42.624 18.2106 42.1788 18.2636C41.829 18.306 41.4632 18.518 41.0816 18.8997C40.7106 19.2707 40.3661 19.6947 40.0481 20.1717C39.7301 20.6488 39.4492 21.1576 39.2053 21.6982C38.9615 22.2282 38.7919 22.6682 38.6965 23.018H37.5835V16.8962H57.2368V23.018Z" fill="#777777"/>
<path d="M78.035 32.8128L77.6057 39.4594H58.8746V38.3304C59.1926 38.3092 59.6166 38.2668 60.1467 38.2032C60.6767 38.129 61.0212 38.0548 61.1802 37.9806C61.5194 37.8216 61.7526 37.6149 61.8798 37.3605C62.0177 37.1061 62.0866 36.7827 62.0866 36.3905V20.1717C62.0866 19.8219 62.0283 19.5145 61.9116 19.2495C61.795 18.9739 61.5512 18.7513 61.1802 18.5817C60.894 18.4438 60.5071 18.3219 60.0195 18.2159C59.5424 18.1099 59.1608 18.0463 58.8746 18.0251V16.8962H76.3337V22.3342H75.1411C74.9291 21.5286 74.468 20.6753 73.7577 19.7742C73.0581 18.8626 72.3903 18.3643 71.7542 18.2795C71.4256 18.2371 71.0334 18.2053 70.5776 18.1841C70.1217 18.1629 69.6023 18.1523 69.0193 18.1523H65.4734V27.1204H68.0175C68.8338 27.1204 69.4274 27.0462 69.7984 26.8978C70.1801 26.7388 70.514 26.479 70.8002 26.1186C71.0334 25.8112 71.2295 25.4031 71.3885 24.8943C71.5581 24.3748 71.6694 23.8872 71.7224 23.4314H72.915V32.2563H71.7224C71.68 31.7475 71.5634 31.2122 71.3726 30.6503C71.1924 30.0779 71.0016 29.6645 70.8002 29.4101C70.4716 28.9967 70.0953 28.7263 69.6712 28.5991C69.2578 28.4719 68.7066 28.4083 68.0175 28.4083H65.4734V35.1821C65.4734 35.8605 65.5211 36.3958 65.6165 36.788C65.7119 37.1803 65.8974 37.4771 66.1731 37.6785C66.4487 37.8799 66.825 38.0124 67.302 38.076C67.779 38.129 68.4575 38.1555 69.3373 38.1555C69.6871 38.1555 70.1483 38.1555 70.7207 38.1555C71.2931 38.1555 71.7754 38.1343 72.1677 38.0919C72.5705 38.0495 72.9839 37.9753 73.4079 37.8693C73.8425 37.7527 74.1499 37.599 74.3302 37.4082C74.8178 36.8993 75.3266 36.1308 75.8566 35.1026C76.3973 34.0637 76.7418 33.3005 76.8902 32.8128H78.035Z" fill="#777777"/>
<path d="M102.316 39.4594H96.2414C94.8952 37.3499 93.6761 35.5266 92.5843 33.9895C91.503 32.4524 90.3263 30.8677 89.0543 29.2352H86.7487V36.3905C86.7487 36.7615 86.807 37.0902 86.9236 37.3764C87.0402 37.652 87.2893 37.864 87.6709 38.0124C87.8617 38.0866 88.1956 38.1555 88.6727 38.2191C89.1497 38.2827 89.5525 38.3198 89.8811 38.3304V39.4594H80.3407V38.3304C80.5951 38.3092 80.9608 38.2721 81.4378 38.2191C81.9254 38.1661 82.2646 38.0972 82.4555 38.0124C82.7735 37.8746 83.0014 37.6732 83.1392 37.4082C83.2876 37.1432 83.3618 36.8039 83.3618 36.3905V20.0763C83.3618 19.7053 83.3088 19.3767 83.2028 19.0905C83.0968 18.8043 82.8477 18.587 82.4555 18.4385C82.1904 18.3431 81.8459 18.2583 81.4219 18.1841C80.9979 18.0993 80.6375 18.0463 80.3407 18.0251V16.8962H90.7557C91.7097 16.8962 92.6055 16.9969 93.4429 17.1983C94.2803 17.3891 95.0383 17.7018 95.7167 18.1364C96.3739 18.5604 96.8987 19.117 97.2909 19.806C97.6831 20.4844 97.8792 21.306 97.8792 22.2706C97.8792 23.1399 97.7467 23.9084 97.4817 24.5762C97.2167 25.2441 96.8245 25.8218 96.305 26.3094C95.828 26.7653 95.2556 27.1628 94.5878 27.502C93.9199 27.8306 93.1832 28.1115 92.3775 28.3447C93.4906 29.8182 94.4128 31.0585 95.1443 32.0655C95.8863 33.0726 96.7927 34.2969 97.8633 35.7386C98.3297 36.3746 98.7485 36.8463 99.1195 37.1538C99.5011 37.4506 99.8774 37.6944 100.248 37.8852C100.524 38.023 100.869 38.129 101.282 38.2032C101.695 38.2774 102.04 38.3198 102.316 38.3304V39.4594ZM93.9517 22.6363C93.9517 21.2689 93.5595 20.1876 92.7751 19.3926C91.9906 18.587 90.8829 18.1841 89.4518 18.1841H86.7487V27.8677H88.8317C90.2945 27.8677 91.5136 27.4013 92.4888 26.4684C93.4641 25.525 93.9517 24.2476 93.9517 22.6363Z" fill="#777777"/>
<path d="M113.064 39.4594H102.904V38.3304C103.19 38.3092 103.603 38.2774 104.144 38.235C104.685 38.1926 105.066 38.129 105.289 38.0442C105.639 37.9064 105.893 37.7209 106.052 37.4877C106.211 37.2439 106.291 36.91 106.291 36.4859V20.1399C106.291 19.7689 106.232 19.4615 106.116 19.2177C105.999 18.9633 105.724 18.7513 105.289 18.5817C104.971 18.4544 104.568 18.3378 104.081 18.2318C103.603 18.1152 103.211 18.0463 102.904 18.0251V16.8962H113.064V18.0251C112.736 18.0357 112.344 18.0781 111.888 18.1523C111.432 18.2159 111.034 18.3007 110.695 18.4067C110.292 18.5339 110.022 18.7407 109.884 19.0269C109.746 19.3131 109.678 19.6311 109.678 19.9809V36.311C109.678 36.6608 109.752 36.9736 109.9 37.2492C110.059 37.5142 110.324 37.7262 110.695 37.8852C110.918 37.97 111.278 38.0654 111.776 38.1714C112.285 38.2668 112.715 38.3198 113.064 38.3304V39.4594Z" fill="#777777"/>
<path d="M134.117 19.5675C135.114 20.6063 135.893 21.8625 136.454 23.336C137.016 24.7989 137.297 26.4207 137.297 28.2016C137.297 29.9931 137.011 31.6203 136.439 33.0832C135.866 34.546 135.071 35.7916 134.053 36.8198C133.068 37.8375 131.923 38.6219 130.619 39.1732C129.315 39.7244 127.926 40 126.453 40C124.884 40 123.432 39.7085 122.096 39.1255C120.771 38.5318 119.631 37.7103 118.677 36.6608C117.723 35.6326 116.971 34.387 116.42 32.9242C115.879 31.4507 115.609 29.8765 115.609 28.2016C115.609 26.3677 115.895 24.7353 116.467 23.3042C117.04 21.8625 117.829 20.617 118.836 19.5675C119.833 18.5286 120.988 17.7336 122.303 17.1824C123.628 16.6312 125.011 16.3555 126.453 16.3555C127.948 16.3555 129.357 16.6365 130.683 17.1983C132.008 17.7601 133.152 18.5498 134.117 19.5675ZM131.748 35.5637C132.342 34.599 132.771 33.5072 133.036 32.2881C133.311 31.0691 133.449 29.7069 133.449 28.2016C133.449 26.6539 133.296 25.2335 132.988 23.9402C132.691 22.6469 132.251 21.5445 131.668 20.6329C131.085 19.7318 130.354 19.0322 129.474 18.5339C128.594 18.0251 127.587 17.7707 126.453 17.7707C125.181 17.7707 124.1 18.0622 123.209 18.6453C122.319 19.2283 121.593 20.0074 121.031 20.9827C120.501 21.9155 120.103 23.0074 119.838 24.2582C119.584 25.5091 119.457 26.8236 119.457 28.2016C119.457 29.7281 119.594 31.1062 119.87 32.3358C120.146 33.5655 120.58 34.6573 121.174 35.6114C121.746 36.5442 122.467 37.2757 123.336 37.8057C124.206 38.3251 125.244 38.5848 126.453 38.5848C127.587 38.5848 128.61 38.3198 129.522 37.7898C130.433 37.2598 131.175 36.5177 131.748 35.5637Z" fill="#777777"/>
<path d="M162.102 39.4594H156.028C154.682 37.3499 153.463 35.5266 152.371 33.9895C151.29 32.4524 150.113 30.8677 148.841 29.2352H146.536V36.3905C146.536 36.7615 146.594 37.0902 146.711 37.3764C146.827 37.652 147.076 37.864 147.458 38.0124C147.649 38.0866 147.983 38.1555 148.46 38.2191C148.937 38.2827 149.339 38.3198 149.668 38.3304V39.4594H140.128V38.3304C140.382 38.3092 140.748 38.2721 141.225 38.2191C141.712 38.1661 142.052 38.0972 142.242 38.0124C142.56 37.8746 142.788 37.6732 142.926 37.4082C143.075 37.1432 143.149 36.8039 143.149 36.3905V20.0763C143.149 19.7053 143.096 19.3767 142.99 19.0905C142.884 18.8043 142.635 18.587 142.242 18.4385C141.977 18.3431 141.633 18.2583 141.209 18.1841C140.785 18.0993 140.424 18.0463 140.128 18.0251V16.8962H150.543C151.497 16.8962 152.392 16.9969 153.23 17.1983C154.067 17.3891 154.825 17.7018 155.504 18.1364C156.161 18.5604 156.686 19.117 157.078 19.806C157.47 20.4844 157.666 21.306 157.666 22.2706C157.666 23.1399 157.534 23.9084 157.269 24.5762C157.004 25.2441 156.611 25.8218 156.092 26.3094C155.615 26.7653 155.043 27.1628 154.375 27.502C153.707 27.8306 152.97 28.1115 152.164 28.3447C153.278 29.8182 154.2 31.0585 154.931 32.0655C155.673 33.0726 156.58 34.2969 157.65 35.7386C158.117 36.3746 158.535 36.8463 158.906 37.1538C159.288 37.4506 159.664 37.6944 160.035 37.8852C160.311 38.023 160.655 38.129 161.069 38.2032C161.482 38.2774 161.827 38.3198 162.102 38.3304V39.4594ZM153.739 22.6363C153.739 21.2689 153.346 20.1876 152.562 19.3926C151.778 18.587 150.67 18.1841 149.239 18.1841H146.536V27.8677H148.619C150.081 27.8677 151.301 27.4013 152.276 26.4684C153.251 25.525 153.739 24.2476 153.739 22.6363Z" fill="#777777"/>
<path d="M177.033 29.108C177.51 29.638 177.86 30.221 178.083 30.8571C178.316 31.4825 178.433 32.2139 178.433 33.0514C178.433 35.0443 177.696 36.6873 176.222 37.9806C174.749 39.2739 172.92 39.9205 170.737 39.9205C169.73 39.9205 168.722 39.7668 167.715 39.4594C166.708 39.1414 165.839 38.7597 165.108 38.3145L164.424 39.4753H163.152L162.929 31.7475H164.217C164.482 32.7015 164.79 33.5655 165.14 34.3393C165.5 35.1026 165.972 35.8181 166.555 36.4859C167.106 37.1114 167.747 37.6096 168.479 37.9806C169.221 38.3516 170.079 38.5371 171.055 38.5371C171.786 38.5371 172.422 38.4417 172.963 38.2509C173.514 38.0601 173.959 37.7898 174.298 37.44C174.638 37.0902 174.887 36.682 175.046 36.2156C175.215 35.7386 175.3 35.1927 175.3 34.5778C175.3 33.6768 175.046 32.8393 174.537 32.0655C174.028 31.2811 173.27 30.6874 172.263 30.2846C171.574 30.009 170.784 29.7069 169.894 29.3783C169.003 29.0391 168.235 28.721 167.588 28.4242C166.316 27.8518 165.325 27.1045 164.615 26.1822C163.915 25.2494 163.565 24.0356 163.565 22.5409C163.565 21.6823 163.74 20.882 164.09 20.1399C164.44 19.3979 164.938 18.7354 165.585 18.1523C166.2 17.6011 166.926 17.1718 167.763 16.8644C168.601 16.5464 169.475 16.3873 170.387 16.3873C171.426 16.3873 172.353 16.5464 173.169 16.8644C173.996 17.1824 174.749 17.5534 175.427 17.9774L176.079 16.8962H177.351L177.479 24.3854H176.191C175.957 23.5268 175.692 22.7053 175.396 21.9208C175.109 21.1364 174.733 20.4261 174.267 19.7901C173.811 19.1753 173.254 18.6877 172.597 18.3272C171.94 17.9562 171.134 17.7707 170.18 17.7707C169.173 17.7707 168.314 18.094 167.604 18.7407C166.894 19.3873 166.539 20.177 166.539 21.1099C166.539 22.0851 166.767 22.8961 167.223 23.5427C167.678 24.1787 168.341 24.7035 169.21 25.1169C169.984 25.4879 170.742 25.8112 171.484 26.0868C172.237 26.3518 172.963 26.638 173.662 26.9455C174.298 27.2211 174.908 27.5338 175.491 27.8836C176.085 28.2334 176.599 28.6415 177.033 29.108Z" fill="#777777"/>
</svg>
