<svg width="213" height="13" viewBox="0 0 213 13" fill="none" xmlns="http://www.w3.org/2000/svg">
<path d="M150.489 9.4414V5.59086H147.462V6.54534H149.436V8.77245C149.315 8.84491 149.186 8.90503 149.053 8.95192C148.877 9.01683 148.697 9.07131 148.514 9.11508C148.06 9.24175 147.591 9.3022 147.119 9.29455C146.531 9.30543 145.945 9.21151 145.39 9.01719C144.894 8.83266 144.437 8.55585 144.044 8.20139C143.658 7.83296 143.355 7.38594 143.157 6.89053C142.958 6.39513 142.869 5.8629 142.893 5.32981C142.877 4.80642 142.969 4.28521 143.164 3.79929C143.359 3.31337 143.653 2.87335 144.027 2.50717C144.407 2.1404 144.855 1.85272 145.347 1.66085C145.839 1.46898 146.363 1.37676 146.891 1.38954C147.164 1.38693 147.437 1.40877 147.707 1.4548C147.983 1.50104 148.255 1.56646 148.522 1.65059C148.8 1.73475 149.073 1.83555 149.338 1.95243C149.67 2.10719 149.994 2.27872 150.309 2.46638V1.25085C150.109 1.13858 149.902 1.04044 149.689 0.957168C149.461 0.867431 149.191 0.777694 148.873 0.671641C148.559 0.572437 148.237 0.498777 147.911 0.451378C147.565 0.401726 147.216 0.377188 146.866 0.377956C146.194 0.361682 145.524 0.478731 144.897 0.722356C144.27 0.965981 143.697 1.33136 143.212 1.79743C142.736 2.24887 142.36 2.79503 142.109 3.40065C141.857 4.00628 141.735 4.65791 141.751 5.31349C141.736 5.98115 141.862 6.6445 142.121 7.26021C142.379 7.87592 142.765 8.43013 143.252 8.88666C144.266 9.83763 145.616 10.3481 147.005 10.3061C147.319 10.305 147.632 10.2832 147.943 10.2409C148.253 10.1919 148.555 10.1348 148.849 10.0614C149.126 9.99116 149.398 9.90397 149.665 9.80034C149.946 9.69737 150.221 9.57751 150.489 9.4414Z" fill="black"/>
<path d="M163.158 10.1841L158.712 0.427246H158.1L153.621 10.2167H154.763L156.24 6.95358H160.572L162.048 10.2167L163.158 10.1841ZM160.139 5.97463H156.631L158.369 2.17304L160.139 5.97463Z" fill="black"/>
<path d="M172.442 10.1839V9.22945H167.824V0.500488H166.764V10.1839H172.442Z" fill="black"/>
<path d="M181.529 10.1839V9.22945H176.92V0.500488H175.852V10.1839H181.529Z" fill="black"/>
<path d="M190.586 10.1839V9.22945H186.116V5.77866H190.366V4.83234H186.116V1.43865H190.496V0.500488H185.047V10.1839H190.586Z" fill="black"/>
<path d="M201.932 10.1836L200.007 7.23041C199.876 7.03462 199.746 6.84698 199.623 6.65119L199.207 6.06382C199.114 5.926 199.01 5.79513 198.897 5.67224C198.807 5.569 198.706 5.47598 198.596 5.39488C198.988 5.23554 199.341 4.99346 199.632 4.68514C200.023 4.25633 200.231 3.69106 200.211 3.11066C200.23 2.737 200.159 2.36424 200.004 2.02359C199.85 1.68294 199.615 1.38432 199.322 1.15276C199.012 0.916577 198.656 0.747142 198.277 0.655128C197.832 0.545258 197.374 0.493164 196.915 0.500128H194.378V10.1836H195.447V5.69672H196.703C196.968 5.69089 197.231 5.73804 197.478 5.8354C197.682 5.91687 197.866 6.04219 198.016 6.20251C198.193 6.39277 198.354 6.59742 198.498 6.81435C198.653 7.03462 198.816 7.27935 198.979 7.54041L200.684 10.1836H201.932ZM199.052 3.09434C199.069 3.33122 199.026 3.56849 198.926 3.78394C198.826 3.99938 198.673 4.18596 198.481 4.32619C197.983 4.64974 197.394 4.80421 196.801 4.76672H195.414V1.43829H196.866C197.445 1.40618 198.019 1.56682 198.498 1.89513C198.684 2.03154 198.833 2.21319 198.93 2.42298C199.027 2.63278 199.069 2.86381 199.052 3.09434Z" fill="black"/>
<path d="M212.024 0.500488H210.71L207.684 4.10629L204.633 0.500488H203.319L207.137 5.06892V10.1839H208.206V5.06892L212.024 0.500488Z" fill="black"/>
<path d="M63.3381 1.58548V0.63916H58.166V10.3308H59.2347V5.7297H62.9139V4.78338H59.2347V1.58548H63.3381Z" fill="black"/>
<path d="M74.4243 10.3228L72.4909 7.3696L72.1074 6.79038C71.9851 6.59459 71.8464 6.3988 71.6995 6.20301C71.6057 6.06269 71.5021 5.92912 71.3895 5.80328C71.2975 5.70437 71.1964 5.61425 71.0877 5.53407C71.4821 5.37469 71.836 5.12945 72.1238 4.81617C72.517 4.3883 72.7251 3.82237 72.703 3.24169C72.7178 2.86847 72.6426 2.49716 72.4835 2.15919C72.3245 1.82122 72.0863 1.52655 71.7893 1.30011C71.4862 1.06571 71.1396 0.893797 70.7695 0.794319C70.3206 0.687939 69.8604 0.635899 69.399 0.639318H66.8945V10.3228H67.9632V5.83591H69.2195C69.4982 5.82448 69.7761 5.87173 70.0353 5.97459C70.2384 6.05807 70.4218 6.18312 70.5738 6.3417C70.7167 6.53912 70.8501 6.7433 70.9735 6.95354C71.1285 7.18196 71.2916 7.41854 71.4548 7.68775L73.1516 10.3228H74.4243ZM71.5772 3.24169C71.5888 3.4813 71.5396 3.71996 71.434 3.93538C71.3284 4.1508 71.17 4.33595 70.9735 4.47354C70.4875 4.78316 69.9174 4.93424 69.3419 4.90591H67.9387V1.58564H69.3909C69.9693 1.55114 70.543 1.70889 71.0224 2.03432C71.2086 2.17306 71.3569 2.3563 71.4538 2.56725C71.5507 2.77819 71.5931 3.0101 71.5772 3.24169Z" fill="black"/>
<path d="M83.6841 10.3308V9.36812H79.2054V5.91733H83.4638V4.97917H79.2054V1.58548H83.5862V0.63916H78.1367V10.3308H83.6841Z" fill="black"/>
<path d="M92.715 10.3308V9.36812H88.2445V5.91733H92.4947V4.97917H88.2445V1.58548H92.6171V0.63916H87.1758V10.3308H92.715Z" fill="black"/>
<path d="M105.392 10.3308V0.63916H104.405L100.946 4.88127L97.4708 0.63916H96.5V10.3308H97.5687V2.31969L100.946 6.51286L104.323 2.31969V10.3308H105.392Z" fill="black"/>
<path d="M118.762 10.3224L114.316 0.57373H113.704L109.226 10.3632H110.368L111.844 7.10006H116.176L117.661 10.3632L118.762 10.3224ZM115.744 6.13743H112.268L114.006 2.33584L115.744 6.13743Z" fill="black"/>
<path d="M131.171 10.3226V0.63916H130.102V8.53602C129.555 7.88339 129.009 7.25523 128.47 6.63523C127.932 6.01522 127.393 5.40338 126.839 4.7997C126.284 4.19601 125.631 3.4618 125.068 2.77653C124.506 2.09127 123.877 1.38153 123.257 0.63916H122.368V10.3226H123.429V2.45022L130.257 10.3226H131.171Z" fill="black"/>
<path d="M2.84711 9.98809V0.38623H1.77842V9.84125C1.78318 10.1316 1.75582 10.4216 1.69685 10.706C1.65079 10.9263 1.57099 11.1382 1.46027 11.3341C1.37975 11.4777 1.26066 11.5957 1.11648 11.6751C0.972296 11.7544 0.808787 11.7917 0.644475 11.7828L0 11.6849L0.106053 12.721H0.709738C1.00749 12.7468 1.30661 12.6904 1.57448 12.5578C1.83552 12.4278 2.06838 12.2476 2.25974 12.0276C2.47586 11.7728 2.6295 11.4711 2.70843 11.1465C2.80067 10.7673 2.84723 10.3784 2.84711 9.98809Z" fill="black"/>
<path d="M16.1206 10.0537L11.6745 0.321289H11.0545L6.58398 10.0537H7.71793L9.19452 6.79051H13.5345L15.0111 10.0537H16.1206ZM13.094 5.88498H9.61873L11.3564 2.0834L13.094 5.88498Z" fill="black"/>
<path d="M28.9849 10.0697V0.38623H27.9978L24.5388 4.62834L21.0636 0.38623H20.0928V10.0697H21.1615V2.06676L24.5388 6.25177L27.9162 2.06676V10.0697H28.9849Z" fill="black"/>
<path d="M38.7183 10.0697V9.1152H34.2396V5.6644H38.498V4.72624H34.2396V1.33255H38.6204V0.38623H33.1709V10.0697H38.7183Z" fill="black"/>
<path d="M47.5857 7.52472C47.6273 6.88735 47.4262 6.25782 47.0228 5.76261C46.7892 5.51626 46.5128 5.31447 46.207 5.16709C45.8133 4.95685 45.4043 4.77686 44.9833 4.62866C44.4539 4.4597 43.9553 4.20626 43.5067 3.87814C43.371 3.7453 43.2657 3.58461 43.1981 3.40716C43.1305 3.2297 43.1022 3.0397 43.1151 2.85024C43.1166 2.63933 43.1632 2.43118 43.2519 2.2398C43.3405 2.04843 43.4692 1.87826 43.6291 1.74076C43.7983 1.59253 43.9914 1.47393 44.2001 1.38997C44.4257 1.31178 44.663 1.27314 44.9017 1.27576C45.2987 1.26993 45.6918 1.35358 46.052 1.5205L46.5823 1.78971L47.1859 2.12419V0.933131C46.4933 0.493687 45.6894 0.261572 44.8691 0.264182C44.1213 0.261431 43.4027 0.554712 42.8704 1.07997C42.6104 1.30752 42.4029 1.58871 42.2621 1.90418C42.1212 2.21964 42.0505 2.56189 42.0546 2.90735C42.0348 3.2113 42.0765 3.51613 42.1775 3.80353C42.2784 4.09092 42.4364 4.35494 42.642 4.57972C42.8549 4.78378 43.0935 4.95929 43.3517 5.10182C43.6781 5.28613 44.0226 5.43648 44.3796 5.55051C44.9656 5.7284 45.5173 6.00423 46.0112 6.3663C46.1721 6.50334 46.2998 6.67515 46.3846 6.86877C46.4694 7.06238 46.5091 7.27273 46.5007 7.48393C46.5075 7.71116 46.4643 7.9371 46.3741 8.14575C46.2838 8.3544 46.1488 8.54066 45.9786 8.69131C45.6268 9.01775 45.1612 9.19346 44.6815 9.18078C44.3321 9.1751 43.9878 9.09734 43.6699 8.95236C43.4904 8.87078 43.2865 8.75657 43.058 8.62604C42.8296 8.49552 42.5441 8.28341 42.177 8.00604V9.27868C42.3226 9.3971 42.4814 9.49838 42.6501 9.58052C42.8296 9.67025 43.0336 9.76815 43.262 9.86604C43.7451 10.0887 44.2719 10.2003 44.8038 10.1924C45.1705 10.1936 45.5338 10.1222 45.8726 9.98214C46.2115 9.84211 46.5192 9.63629 46.778 9.37657C47.0367 9.14317 47.2426 8.85723 47.3819 8.53787C47.5211 8.21851 47.5906 7.8731 47.5857 7.52472Z" fill="black"/>
</svg>
