<svg width="36" height="40" viewBox="0 0 36 40" fill="none" xmlns="http://www.w3.org/2000/svg">
<path d="M0.666626 0V17.0227L25.197 19.964L35.3333 18.756V0H0.666626Z" fill="#008996"/>
<path d="M0.666626 40H35.3333V21.1724L25.197 19.9644L0.666626 22.9057V40Z" fill="#76121C"/>
<path d="M0.666626 22.9056L25.197 19.9643L0.666626 17.0226V22.9056Z" fill="#1E1E20"/>
<path d="M18.1546 35.4813H18.0879C18.1936 35.0035 18.4236 34.5621 18.7546 34.2017C18.8198 34.1287 18.9096 34.0822 19.0069 34.0713C19.3699 34.0713 19.6986 34.2973 19.6986 34.4667C19.6999 34.6927 19.2999 34.8617 18.1546 35.4813ZM18.0879 35.735C19.7903 34.9073 20.1973 34.8097 20.1973 34.3317C20.1973 34.034 19.8342 33.743 19.2972 33.743C18.4232 33.743 17.5769 34.7187 17.5769 35.8893C17.6006 36.1498 17.7179 36.3928 17.907 36.5733C18.0962 36.7539 18.3444 36.8598 18.6056 36.8713C19.0256 36.8713 19.5952 36.452 19.9579 35.8633L19.8862 35.7983C19.5203 36.0674 19.1352 36.3092 18.7339 36.522C18.5729 36.522 18.0732 36.2113 18.0732 35.9203C18.0755 35.8583 18.0809 35.7965 18.0896 35.735H18.0879ZM15.8842 35.4683C16.2406 35.7207 16.4866 35.875 16.4866 36.1077C16.4758 36.2045 16.4428 36.2974 16.3899 36.3792C16.3371 36.461 16.266 36.5294 16.1823 36.579C15.8747 36.5568 15.5718 36.4917 15.2822 36.3857C15.3173 36.3175 15.3373 36.2426 15.3409 36.166C15.3409 35.966 15.2742 35.914 15.0496 35.914C14.8689 35.914 14.7322 36.0377 14.7322 36.2897C14.7322 36.6523 15.1082 36.8783 15.7609 36.8783C16.4199 36.8783 16.9653 36.496 16.9653 35.9677C16.9653 35.6247 16.7196 35.444 16.2736 35.1343C15.8846 34.8677 15.6582 34.7083 15.6582 34.4677C15.6591 34.3838 15.6809 34.3015 15.7217 34.2283C15.7624 34.155 15.8208 34.093 15.8916 34.048C16.2 34.0587 16.5044 34.1219 16.7916 34.235C16.756 34.2983 16.7359 34.3691 16.7329 34.4417C16.7329 34.6417 16.7916 34.6937 17.0176 34.6937C17.2049 34.6937 17.3286 34.57 17.3286 34.318C17.3286 33.9813 16.9086 33.7163 16.3129 33.7163C15.6016 33.7163 15.1866 34.1357 15.1866 34.622C15.1876 34.977 15.4269 35.1267 15.8859 35.4697L15.8842 35.4683ZM11.0909 34.4333L11.1496 34.492L11.8609 34.201L11.8869 34.2463C11.8869 34.253 11.7762 34.5893 11.6672 34.931C11.6006 35.131 11.5322 35.357 11.4476 35.609C11.3628 35.8248 11.3086 36.0515 11.2866 36.2823C11.2866 36.4887 11.7716 36.8643 12.0042 36.8643C12.1184 36.8724 12.233 36.8571 12.3411 36.8193C12.4491 36.7815 12.5483 36.7221 12.6326 36.6447C12.9374 36.2658 13.206 35.8591 13.4349 35.43H13.5016C13.377 35.8346 13.2775 36.2465 13.2036 36.6633C13.3269 36.7526 13.4646 36.8202 13.6106 36.8633C13.8953 36.8633 14.2842 36.4877 14.4909 36.1463L14.4323 36.0943L13.7522 36.3333L13.7189 36.2813L13.9452 34.8193L14.2236 33.7983L13.6473 33.8317L13.4406 34.788C12.9946 35.952 12.6072 36.4237 12.3272 36.4237C12.1662 36.4237 11.7836 36.165 11.7836 36.0807C11.8692 35.7154 11.9732 35.3547 12.0952 35C12.2316 34.6342 12.3463 34.2607 12.4386 33.8813C12.4386 33.829 11.9862 33.7397 11.9406 33.7397C11.6476 33.743 11.2929 34.1 11.0909 34.4333ZM10.2299 34.8023C10.2161 34.9932 10.1812 35.1819 10.1259 35.365C9.97125 35.9017 9.64725 36.5097 9.36925 36.5097C8.99325 36.5097 8.39258 36.2643 8.39258 35.8317C8.40656 35.6345 8.44154 35.4394 8.49692 35.2497C8.65158 34.7197 8.97558 34.0983 9.25358 34.0983C9.62792 34.1 10.2303 34.3707 10.2303 34.803L10.2299 34.8023ZM10.7279 34.8547C10.7279 34.214 10.0672 33.7423 9.44692 33.7423C8.48325 33.7423 7.89425 35.0547 7.89425 35.7587C7.89425 36.404 8.54192 36.8707 9.16858 36.8707C10.1406 36.8713 10.7283 35.5593 10.7283 34.8553L10.7279 34.8547ZM5.76892 36.7813H7.38658L7.43225 36.4383L6.88225 36.2383L6.87558 36.2123L7.27125 33.2317L7.28425 33.2057H7.78225L7.84892 32.739H6.22958L6.18392 33.0887L6.72758 33.282L6.74058 33.308L6.57958 34.518H4.48158L4.64825 33.2317L4.66125 33.2057H5.15925L5.22592 32.739H3.59992L3.56092 33.082L4.10458 33.282L4.11758 33.308L3.72225 36.2887L3.70925 36.3147H3.20558L3.13892 36.7797H4.76325L4.80892 36.43L4.25892 36.2367L4.25258 36.2107L4.41925 34.944H6.51558L6.34158 36.2887L6.32192 36.3147H5.83325L5.76892 36.7813Z" fill="white"/>
<path d="M30.7616 28.5073C30.7741 28.4089 30.8016 28.3129 30.8429 28.2227C30.8839 28.1304 30.9402 28.0457 31.0096 27.9723C31.083 27.896 31.171 27.8352 31.2682 27.7933C31.3757 27.7471 31.4917 27.7244 31.6086 27.7267C31.7034 27.7187 31.7987 27.7326 31.8873 27.7673C31.9759 27.802 32.0554 27.8565 32.1196 27.9267C32.2327 28.0776 32.2897 28.2633 32.2806 28.4517V28.4973L30.7616 28.5073ZM30.7356 28.901C31.1065 28.901 31.4385 28.8988 31.7316 28.8943C31.8569 28.8893 31.9789 28.888 32.0982 28.888H32.7296C32.7524 28.8152 32.7688 28.7406 32.7786 28.665C32.7895 28.5826 32.7948 28.4995 32.7946 28.4163C32.8106 28.1073 32.7049 27.8044 32.5002 27.5723C32.3904 27.4641 32.2589 27.3802 32.1145 27.3262C31.9701 27.2722 31.8158 27.2491 31.6619 27.2587C31.4628 27.2571 31.2655 27.2969 31.0826 27.3757C30.9064 27.4509 30.7487 27.5635 30.6203 27.7057C30.488 27.8549 30.3838 28.0267 30.3126 28.213C30.2355 28.4228 30.1974 28.6449 30.2002 28.8683C30.1976 29.0805 30.2353 29.2912 30.3112 29.4893C30.3799 29.672 30.4844 29.839 30.6186 29.9807C30.7518 30.1193 30.9126 30.2284 31.0906 30.301C31.2853 30.3783 31.4931 30.4169 31.7026 30.4147C31.8845 30.4154 32.0658 30.3947 32.2429 30.353C32.4036 30.3161 32.5574 30.254 32.6986 30.169L32.6009 29.678C32.4732 29.7609 32.3323 29.8215 32.1842 29.857C32.031 29.8959 31.8737 29.9161 31.7156 29.917C31.5813 29.9186 31.448 29.8938 31.3232 29.844C31.2089 29.7971 31.1053 29.7273 31.0189 29.639C30.9328 29.5488 30.8649 29.4429 30.8189 29.327C30.768 29.1996 30.7404 29.0641 30.7376 28.927V28.9L30.7356 28.901ZM29.5619 30.317V28.2813C29.5788 28.0072 29.4884 27.7373 29.3099 27.5287C29.2179 27.437 29.1075 27.3658 28.986 27.3198C28.8645 27.2739 28.7346 27.2542 28.6049 27.262C28.4288 27.2632 28.2552 27.3043 28.0972 27.3823C27.9279 27.4645 27.7738 27.575 27.6416 27.709L27.6483 27.2633L27.1112 27.348V30.322H27.6483V28.0977C27.7475 28.0071 27.8599 27.932 27.9816 27.875C28.1173 27.8085 28.2665 27.7743 28.4176 27.775C28.5004 27.7677 28.5838 27.777 28.6629 27.8024C28.742 27.8278 28.8152 27.8688 28.8783 27.923C28.9936 28.0768 29.0464 28.2685 29.0263 28.4597V30.3213H29.5616L29.5619 30.317ZM25.2262 28.3837C25.3152 28.206 25.44 28.0488 25.5929 27.922C25.7087 27.8269 25.8531 27.7736 26.0029 27.7707C26.0805 27.7718 26.1576 27.783 26.2323 27.804C26.3176 27.8271 26.3993 27.8621 26.4749 27.908L26.6099 27.4103C26.4421 27.3092 26.2491 27.2579 26.0533 27.2623C25.883 27.2561 25.7152 27.3046 25.5746 27.4007C25.4344 27.505 25.3156 27.6352 25.2246 27.7843V27.2603L24.6876 27.345V30.319H25.2246V28.384L25.2262 28.3837ZM21.4129 27.356V29.392C21.3961 29.6653 21.4846 29.9346 21.6603 30.1447C21.7468 30.235 21.8517 30.3057 21.968 30.352C22.0842 30.3983 22.209 30.4191 22.3339 30.413C22.5185 30.4142 22.7011 30.3754 22.8693 30.2993C23.0403 30.2219 23.1954 30.1133 23.3266 29.979V30.4123L23.8636 30.328V27.353H23.3269V29.5773C23.2271 29.669 23.1134 29.7442 22.9899 29.8C22.844 29.8683 22.6844 29.9025 22.5233 29.9C22.4447 29.9061 22.3658 29.8962 22.2913 29.8707C22.2168 29.8453 22.1483 29.8049 22.0899 29.752C21.9765 29.5974 21.9248 29.406 21.9449 29.2153V27.3543H21.4116L21.4129 27.356ZM20.1939 29.283C20.1586 29.4085 20.0995 29.5261 20.0199 29.6293C19.9427 29.7259 19.8441 29.8033 19.7319 29.8553C19.6094 29.9111 19.4759 29.9389 19.3413 29.9367C19.2062 29.9395 19.0724 29.9105 18.9506 29.852C18.8373 29.7969 18.7378 29.7172 18.6592 29.6187C18.5772 29.5147 18.5159 29.396 18.4786 29.269C18.4363 29.1266 18.4154 28.9786 18.4166 28.83C18.4152 28.6805 18.435 28.5316 18.4753 28.3877C18.5102 28.261 18.5693 28.1423 18.6492 28.038C18.7265 27.9414 18.8251 27.8641 18.9372 27.812C19.0598 27.7562 19.1933 27.7284 19.3279 27.7307C19.4635 27.7281 19.5978 27.7571 19.7203 27.8153C19.8336 27.8704 19.9331 27.9501 20.0116 28.0487C20.0943 28.1534 20.1557 28.2733 20.1923 28.4017C20.2345 28.5453 20.2553 28.6943 20.2542 28.844C20.2544 28.9924 20.2341 29.1401 20.1939 29.283ZM20.6739 28.183C20.611 27.9994 20.512 27.8303 20.3826 27.6857C20.2572 27.5486 20.104 27.4398 19.9333 27.3667C19.7499 27.2896 19.5528 27.2509 19.3539 27.253C19.1524 27.2504 18.9526 27.2891 18.7666 27.3667C18.5907 27.4396 18.4329 27.55 18.3043 27.6903C18.1717 27.836 18.0684 28.0057 17.9999 28.1903C17.9241 28.3975 17.8866 28.6167 17.8892 28.8373C17.8875 29.0585 17.925 29.2782 17.9999 29.4863C18.0637 29.6702 18.1639 29.8394 18.2946 29.9837C18.4209 30.1193 18.5739 30.2273 18.7439 30.301C19.1153 30.4525 19.5312 30.4525 19.9026 30.301C20.0779 30.2286 20.2355 30.1193 20.3649 29.9807C20.4968 29.8359 20.5993 29.6669 20.6666 29.483C20.7424 29.2757 20.7799 29.0564 20.7773 28.8357C20.7793 28.6141 20.7444 28.3937 20.6739 28.1837V28.183ZM16.7999 29.265C16.7627 29.3916 16.7013 29.5097 16.6193 29.613C16.5365 29.7168 16.4308 29.8 16.3106 29.8562C16.1903 29.9123 16.0586 29.9399 15.9259 29.9367C15.6886 29.9446 15.4559 29.8693 15.2682 29.7237V28.0423C15.3665 27.9569 15.4773 27.8871 15.5969 27.8357C15.7193 27.7832 15.8511 27.7567 15.9843 27.7577C16.1075 27.7521 16.2302 27.7761 16.3423 27.8276C16.4544 27.8791 16.5525 27.9566 16.6286 28.0537C16.7931 28.2821 16.8754 28.5595 16.8619 28.8407C16.8617 28.9844 16.8408 29.1273 16.7999 29.265ZM17.3223 28.2033C17.269 28.0233 17.1811 27.8554 17.0636 27.709C16.9504 27.5699 16.8082 27.4573 16.6469 27.379C16.473 27.2969 16.2826 27.2558 16.0903 27.2587C15.9278 27.2551 15.7671 27.2932 15.6236 27.3693C15.4927 27.4419 15.3708 27.5297 15.2606 27.631L15.2673 25.875L14.7303 25.9597V30.4133L15.2673 30.3157C15.4746 30.3765 15.6892 30.4094 15.9053 30.4133C16.1141 30.4158 16.321 30.3736 16.5123 30.2897C16.6928 30.2117 16.8552 30.0972 16.9893 29.9533C17.1248 29.8074 17.23 29.636 17.2986 29.449C17.3728 29.2483 17.4097 29.0357 17.4076 28.8217C17.4112 28.6124 17.3827 28.4039 17.3229 28.2033H17.3223ZM13.9256 30.317V28.2943C13.9426 28.018 13.8542 27.7454 13.6783 27.5317C13.5952 27.4414 13.4935 27.3704 13.3802 27.3235C13.2669 27.2766 13.1448 27.2549 13.0223 27.26C12.8237 27.2582 12.6273 27.3011 12.4476 27.3853C12.2606 27.4762 12.0905 27.5983 11.9446 27.7463C11.8804 27.5951 11.7706 27.4678 11.6306 27.382C11.4907 27.2994 11.3307 27.2572 11.1683 27.26C10.8111 27.263 10.4695 27.4067 10.2176 27.66L10.2243 27.26L9.68725 27.3447V30.3187H10.2243V28.0633C10.3182 27.9764 10.4246 27.9041 10.5399 27.8487C10.6747 27.7853 10.8224 27.7542 10.9713 27.7577C11.0499 27.7513 11.129 27.7622 11.203 27.7898C11.2769 27.8173 11.3439 27.8607 11.3993 27.917C11.5078 28.078 11.5567 28.2718 11.5376 28.465V30.3187H12.0746V28.0943C12.1699 28.0051 12.276 27.9281 12.3903 27.865C12.5219 27.7915 12.6708 27.7545 12.8216 27.7577C12.9002 27.7513 12.9793 27.7622 13.0533 27.7898C13.1272 27.8173 13.1943 27.8607 13.2496 27.917C13.3581 28.078 13.4071 28.2718 13.3879 28.465V30.3187H13.9249L13.9256 30.317ZM8.33892 30C8.37728 30.1279 8.46126 30.2373 8.57492 30.3073C8.74186 30.391 8.93107 30.4195 9.11525 30.3887L9.14858 29.943C9.01992 29.943 8.93858 29.9253 8.90625 29.888C8.86519 29.8166 8.84802 29.7339 8.85725 29.652V28.4113C8.87554 28.2546 8.86174 28.0958 8.8167 27.9446C8.77166 27.7933 8.69631 27.6529 8.59525 27.5317C8.34745 27.3292 8.03031 27.2317 7.71158 27.26C7.50109 27.2596 7.29204 27.2948 7.09325 27.364C6.91817 27.4206 6.75172 27.501 6.59858 27.603L6.70292 28.081C6.84821 27.9848 7.00499 27.9072 7.16958 27.85C7.32536 27.7917 7.48994 27.7604 7.65625 27.7573C7.84081 27.7391 8.02511 27.7946 8.16892 27.9117C8.28369 28.0576 8.33788 28.2422 8.32025 28.427V28.5117C8.03094 28.5204 7.7434 28.5602 7.46258 28.6303C7.26967 28.677 7.0863 28.7568 6.92058 28.866C6.79974 28.9459 6.70294 29.0572 6.64058 29.188C6.58678 29.3076 6.55905 29.4372 6.55925 29.5683C6.55836 29.683 6.58164 29.7966 6.62758 29.9017C6.67188 30.0041 6.73797 30.0957 6.82125 30.17C6.90891 30.2479 7.01077 30.3081 7.12125 30.3473C7.24342 30.3913 7.37241 30.4133 7.50225 30.4123C7.65588 30.4137 7.80745 30.3769 7.94325 30.305C8.08488 30.228 8.21038 30.1244 8.31292 30H8.33892ZM8.31925 29.6457C8.23234 29.737 8.13098 29.8133 8.01925 29.8717C7.90332 29.9325 7.77416 29.9638 7.64325 29.9627C7.50397 29.9712 7.36685 29.9252 7.26092 29.8343C7.21565 29.7923 7.17989 29.7411 7.15603 29.6841C7.13217 29.6272 7.12077 29.5657 7.12258 29.504C7.12273 29.415 7.14819 29.3278 7.196 29.2526C7.2438 29.1775 7.31198 29.1175 7.39258 29.0797C7.68527 28.9481 7.9986 28.8683 8.31858 28.844L8.31925 29.6457ZM4.01425 29.8067C3.82376 29.7332 3.64153 29.6399 3.47058 29.5283L3.28992 30.0283C3.48842 30.1574 3.70596 30.2545 3.93458 30.316C4.16505 30.3806 4.40324 30.4134 4.64258 30.4137C4.83941 30.4157 5.0352 30.385 5.22192 30.3227C5.38698 30.2674 5.54036 30.1819 5.67425 30.0707C5.80097 29.9649 5.9026 29.8322 5.97178 29.6823C6.04095 29.5325 6.07596 29.3691 6.07425 29.204C6.07977 29.0459 6.04871 28.8886 5.98349 28.7445C5.91828 28.6004 5.82066 28.4732 5.69825 28.373C5.58299 28.2787 5.45407 28.2025 5.31592 28.147C5.17502 28.0887 5.03022 28.0404 4.88258 28.0023C4.62853 27.9415 4.38307 27.8491 4.15192 27.7273C4.07199 27.6838 4.00594 27.6186 3.96132 27.5392C3.91669 27.4599 3.8953 27.3696 3.89958 27.2787C3.89848 27.1981 3.91494 27.1183 3.94781 27.0447C3.98068 26.9711 4.02917 26.9056 4.08992 26.8527C4.27186 26.7191 4.49658 26.6572 4.72125 26.6787C4.91037 26.6803 5.09812 26.711 5.27792 26.7697C5.46137 26.8263 5.63571 26.909 5.79558 27.0153L5.98925 26.5373C5.60674 26.3004 5.16483 26.177 4.71492 26.1813C4.52945 26.1796 4.34486 26.2071 4.16792 26.2627C4.01094 26.3119 3.86501 26.3911 3.73825 26.496C3.61983 26.5942 3.52475 26.7175 3.45992 26.857C3.3938 27.0018 3.36045 27.1595 3.36225 27.3187C3.35715 27.4885 3.39342 27.657 3.46792 27.8097C3.5366 27.9393 3.63204 28.053 3.74792 28.143C3.86598 28.2352 3.99782 28.3082 4.13858 28.3593C4.28358 28.413 4.42492 28.4593 4.56825 28.4977C4.82536 28.5543 5.07255 28.6492 5.30158 28.779C5.37838 28.8281 5.44072 28.8967 5.4822 28.9778C5.52368 29.059 5.5428 29.1497 5.53758 29.2407C5.53964 29.3363 5.51834 29.431 5.47554 29.5166C5.43273 29.6021 5.3697 29.676 5.29192 29.7317C5.10747 29.8627 4.88461 29.9285 4.65858 29.9187C4.43897 29.9198 4.22091 29.8819 4.01458 29.8067H4.01425Z" fill="white"/>
<path d="M18.0246 12.6406H17.9579C18.0637 12.1629 18.2936 11.7214 18.6246 11.361C18.69 11.2885 18.7798 11.2428 18.8769 11.2326C19.2399 11.2326 19.5686 11.4586 19.5686 11.6263C19.5706 11.852 19.1702 12.021 18.0246 12.6406ZM17.9579 12.8926C19.6602 12.065 20.0673 11.9673 20.0673 11.4893C20.0673 11.1916 19.7043 10.9006 19.1672 10.9006C18.2932 10.9006 17.4469 11.8763 17.4469 13.047C17.4706 13.3074 17.5879 13.5504 17.777 13.731C17.9662 13.9115 18.2144 14.0174 18.4756 14.029C18.8956 14.029 19.4653 13.6093 19.8283 13.021L19.7566 12.9543C19.3907 13.2234 19.0056 13.4653 18.6043 13.678C18.4433 13.678 17.9436 13.3673 17.9436 13.078C17.9462 13.0096 17.9529 12.9446 17.9592 12.8926H17.9579ZM15.7869 12.626C16.1432 12.878 16.3892 13.0326 16.3892 13.265C16.3785 13.3618 16.3454 13.4548 16.2926 13.5366C16.2398 13.6185 16.1687 13.687 16.0849 13.7366C15.7774 13.7146 15.4744 13.6495 15.1849 13.5433C15.22 13.4752 15.24 13.4002 15.2436 13.3236C15.2436 13.1236 15.1769 13.0716 14.9522 13.0716C14.7716 13.0716 14.6349 13.1953 14.6349 13.4473C14.6349 13.81 15.0109 14.036 15.6636 14.036C16.3243 14.036 16.8679 13.6556 16.8679 13.1253C16.8679 12.7823 16.6222 12.6016 16.1762 12.292C15.7872 12.0253 15.5609 11.866 15.5609 11.6253C15.5619 11.5415 15.5837 11.4593 15.6244 11.3861C15.6652 11.3128 15.7235 11.2509 15.7942 11.206C16.1027 11.2166 16.4071 11.2798 16.6943 11.393C16.6587 11.4562 16.6386 11.5269 16.6356 11.5993C16.6356 11.7993 16.6943 11.8513 16.9202 11.8513C17.1076 11.8513 17.2312 11.7276 17.2312 11.4756C17.2312 11.139 16.8112 10.8756 16.2156 10.8756C15.5042 10.8756 15.0893 11.2953 15.0893 11.7813C15.0899 12.1366 15.3293 12.2863 15.7882 12.6276L15.7869 12.626ZM11.0262 11.5926L11.0849 11.6513L11.7962 11.3603L11.8222 11.406C11.8222 11.4123 11.7116 11.749 11.6026 12.0906C11.5359 12.2906 11.4659 12.5166 11.3829 12.7686C11.2981 12.9845 11.2439 13.2111 11.2219 13.442C11.2219 13.6483 11.7069 14.024 11.9396 14.024C12.0538 14.0321 12.1684 14.0168 12.2764 13.979C12.3845 13.9412 12.4837 13.8818 12.5679 13.8043C12.8727 13.4254 13.1413 13.0187 13.3702 12.5896H13.4369C13.3124 12.9942 13.213 13.4061 13.1392 13.823C13.2625 13.9123 13.4002 13.98 13.5462 14.023C13.8309 14.023 14.2186 13.6473 14.4266 13.306L14.3679 13.254L13.6876 13.493L13.6543 13.441L13.8806 11.9806L14.1589 10.9596L13.5826 10.993L13.3759 11.949C12.9299 13.1133 12.5426 13.5846 12.2626 13.5846C12.1016 13.5846 11.7189 13.326 11.7189 13.2416C11.8043 12.8767 11.9081 12.5164 12.0299 12.162C12.1663 11.7962 12.281 11.4227 12.3732 11.0433C12.3732 10.9913 11.9209 10.902 11.8752 10.902C11.5826 10.9023 11.2279 11.257 11.0276 11.5933L11.0262 11.5926ZM10.1962 11.9616C10.1824 12.1525 10.1476 12.3412 10.0922 12.5243C9.93758 13.061 9.61392 13.669 9.33525 13.669C8.95925 13.669 8.35892 13.4233 8.35892 12.991C8.37285 12.7938 8.40783 12.5987 8.46325 12.409C8.61792 11.879 8.94158 11.2576 9.21992 11.2576C9.59692 11.257 10.1976 11.5283 10.1976 11.9626L10.1962 11.9616ZM10.6942 12.0136C10.6942 11.373 10.0336 10.9013 9.41325 10.9013C8.44992 10.9013 7.86058 12.2136 7.86058 12.9176C7.86058 13.5633 8.50825 14.03 9.13492 14.03C10.1079 14.031 10.6956 12.7186 10.6956 12.0146L10.6942 12.0136ZM5.76758 13.939H7.38525L7.43325 13.5966L6.88325 13.3966L6.87658 13.3706L7.27225 10.3903L7.28525 10.3643H7.78325L7.84992 9.89764H6.22958L6.18392 10.2473L6.72758 10.441L6.74058 10.467L6.57958 11.6766H4.48158L4.64825 10.3903L4.66125 10.3643H5.15925L5.22592 9.89764H3.59992L3.56092 10.2406L4.10458 10.4406L4.11758 10.4666L3.72325 13.4503L3.71025 13.4763H3.20558L3.13892 13.943H4.76325L4.80892 13.5933L4.25892 13.3996L4.25258 13.3736L4.41925 12.107H6.51558L6.34158 13.4516L6.32192 13.4776H5.83325L5.76758 13.939Z" fill="white"/>
<path d="M25.0624 7.47632V5.43899C25.0792 5.16474 24.9887 4.8947 24.81 4.68599C24.718 4.59434 24.6077 4.5232 24.4862 4.47724C24.3648 4.43128 24.235 4.41154 24.1054 4.41932C23.9293 4.41987 23.7557 4.46045 23.5977 4.53799C23.4283 4.6202 23.2743 4.73067 23.142 4.86465L23.1487 4.41899L22.6117 4.50365V7.47765H23.1487V5.25199C23.2477 5.16108 23.3601 5.08597 23.482 5.02932C23.6178 4.96282 23.7671 4.92859 23.9184 4.92932C24.0011 4.92196 24.0845 4.93127 24.1637 4.95669C24.2428 4.98211 24.316 5.02313 24.379 5.07732C24.4944 5.2311 24.5472 5.42283 24.527 5.61399V7.47565H25.0624V7.47632ZM21.4 6.44232C21.3647 6.56782 21.3056 6.68539 21.226 6.78865C21.1488 6.88524 21.0502 6.96259 20.938 7.01465C20.8154 7.07029 20.682 7.09807 20.5474 7.09599C20.4118 7.09857 20.2775 7.06958 20.155 7.01132C20.0417 6.95628 19.9422 6.87655 19.8637 6.77799C19.7816 6.67408 19.7203 6.55537 19.683 6.42832C19.6408 6.28585 19.6201 6.1379 19.6214 5.98932C19.62 5.83985 19.6398 5.69094 19.68 5.54699C19.7147 5.4202 19.7738 5.30141 19.854 5.19732C19.9309 5.10038 20.0296 5.02295 20.142 4.97132C20.2651 4.91535 20.3992 4.88757 20.5344 4.88999C20.6694 4.88722 20.8032 4.91622 20.925 4.97465C21.0383 5.02969 21.1379 5.10942 21.2164 5.20799C21.299 5.3126 21.3604 5.43242 21.397 5.56065C21.4391 5.70429 21.46 5.85331 21.459 6.00299C21.4603 6.15149 21.4404 6.29941 21.4 6.44232ZM21.88 5.34232C21.8172 5.15861 21.7181 4.98938 21.5887 4.84465C21.4634 4.70708 21.3102 4.59786 21.1394 4.52432C20.956 4.44726 20.7589 4.40857 20.56 4.41065C20.359 4.40825 20.1596 4.44693 19.974 4.52432C19.7982 4.59722 19.6404 4.70769 19.5117 4.84799C19.3786 4.9932 19.2752 5.16306 19.2074 5.34799C19.1315 5.55515 19.094 5.77439 19.0967 5.99499C19.0939 6.21585 19.1302 6.43546 19.204 6.64365C19.2678 6.82767 19.368 6.99694 19.4987 7.14132C19.625 7.2769 19.7779 7.38484 19.948 7.45832C20.3193 7.61008 20.7354 7.61008 21.1067 7.45832C21.282 7.38604 21.4397 7.27677 21.569 7.13799C21.702 6.99354 21.8053 6.82447 21.8734 6.64032C21.9492 6.43316 21.9867 6.21392 21.984 5.99332C21.9859 5.77231 21.951 5.55253 21.8807 5.34299L21.88 5.34232ZM18.7827 7.20899C18.7697 7.14899 18.7584 7.09532 18.7494 7.04799C18.7404 7.00065 18.7347 6.97632 18.7297 6.97632C18.6432 7.01083 18.554 7.03804 18.463 7.05765C18.3738 7.07704 18.2827 7.08687 18.1914 7.08699C17.9247 7.08699 17.7944 6.94732 17.8024 6.66765L17.848 4.99299H18.7724L18.792 4.51499H17.8704L17.89 3.83699H17.3787L17.3667 4.47799L16.875 4.62599L16.8554 4.96265L17.347 4.99599L17.3 6.65032C17.2848 6.77555 17.2953 6.90256 17.3308 7.0236C17.3664 7.14464 17.4262 7.25717 17.5067 7.35432C17.5953 7.4326 17.6987 7.49235 17.8108 7.53008C17.9229 7.5678 18.0414 7.58273 18.1594 7.57399C18.3876 7.57261 18.6136 7.5291 18.826 7.44565C18.8168 7.36672 18.8025 7.28845 18.7834 7.21132L18.7827 7.20899ZM16.4424 7.47565V5.43899C16.4595 5.16528 16.3703 4.89552 16.1934 4.68599C16.1064 4.59584 16.0011 4.52539 15.8846 4.47939C15.7681 4.43339 15.6431 4.41291 15.518 4.41932C15.3329 4.41791 15.1497 4.45669 14.981 4.53299C14.8094 4.61025 14.6537 4.71889 14.522 4.85332L14.5287 3.03699L13.9917 3.12165V7.47632H14.5287V5.25199C14.6287 5.16066 14.7424 5.08553 14.8657 5.02932C15.0116 4.96085 15.1712 4.92664 15.3324 4.92932C15.4109 4.92313 15.4898 4.93307 15.5643 4.95852C15.6388 4.98397 15.7074 5.0244 15.7657 5.07732C15.8791 5.23194 15.9308 5.42329 15.9107 5.61399V7.47565H16.444H16.4424ZM10.7117 7.76999C10.6059 7.89286 10.5486 8.05017 10.5507 8.21232C10.5492 8.33997 10.586 8.46515 10.6564 8.57165C10.7324 8.68241 10.8319 8.77514 10.9477 8.84332C11.0834 8.92332 11.2305 8.982 11.384 9.01732C11.5622 9.05934 11.7447 9.08005 11.9277 9.07899C12.1403 9.08067 12.352 9.05113 12.556 8.99132C12.7368 8.93888 12.9081 8.85822 13.0637 8.75232C13.2015 8.65821 13.3175 8.53569 13.404 8.39299C13.4854 8.25631 13.5282 8.10008 13.5277 7.94099C13.5337 7.82275 13.5076 7.70508 13.4524 7.60037C13.3971 7.49567 13.3147 7.40779 13.2137 7.34599C12.9114 7.19159 12.5727 7.12245 12.234 7.14599H11.9624C11.8486 7.14752 11.7349 7.14106 11.622 7.12665C11.5507 7.11866 11.4811 7.10001 11.4153 7.07132C11.3728 7.05467 11.3374 7.02366 11.3154 6.98365C11.2892 6.93134 11.2824 6.87147 11.2961 6.81463C11.3099 6.75778 11.3432 6.70762 11.3904 6.67299C11.4466 6.62374 11.511 6.58471 11.5807 6.55765C11.667 6.58365 11.7387 6.60165 11.797 6.61299C11.862 6.6247 11.928 6.63017 11.994 6.62932C12.1566 6.63118 12.3181 6.60141 12.4694 6.54165C12.6079 6.48743 12.7353 6.40835 12.8454 6.30832C12.9508 6.21157 13.0346 6.09353 13.091 5.96199C13.1494 5.82981 13.1794 5.68683 13.179 5.54232C13.1784 5.42472 13.1598 5.30791 13.1237 5.19599C13.0986 5.09778 13.0486 5.00768 12.9787 4.93432L13.5484 5.03832L13.5287 4.51465L12.7654 4.58632C12.6574 4.53928 12.546 4.50072 12.432 4.47099C12.2909 4.43494 12.1456 4.41768 12 4.41965C11.824 4.41594 11.649 4.44803 11.4857 4.51399C11.3456 4.57203 11.2179 4.65645 11.1097 4.76265C11.0082 4.86395 10.9287 4.98516 10.8764 5.11865C10.8224 5.25197 10.7948 5.39449 10.795 5.53832C10.7905 5.72737 10.8348 5.91439 10.9237 6.08132C11.0088 6.2351 11.1343 6.3627 11.2867 6.45032C11.1482 6.49475 11.024 6.57529 10.927 6.68365C10.8414 6.77739 10.7939 6.89971 10.7937 7.02665C10.7936 7.13017 10.8289 7.23061 10.8937 7.31132C10.9704 7.40527 11.0694 7.4785 11.1817 7.52432C11.0007 7.54742 10.8341 7.63486 10.7124 7.77065L10.7117 7.76999ZM11.8314 7.63665C11.9314 7.64165 12.0284 7.64332 12.1227 7.64332C12.3476 7.63403 12.5726 7.66036 12.7894 7.72132C12.8576 7.74176 12.9167 7.78512 12.9568 7.84408C12.9968 7.90304 13.0152 7.974 13.009 8.04499C13.0099 8.13311 12.9826 8.2192 12.931 8.29065C12.8739 8.36818 12.8012 8.433 12.7177 8.48099C12.6185 8.53755 12.5116 8.57922 12.4004 8.60465C12.2727 8.63336 12.1422 8.64757 12.0114 8.64699C11.7742 8.65824 11.5385 8.60489 11.3294 8.49265C11.2549 8.45659 11.1917 8.40085 11.1466 8.33146C11.1016 8.26207 11.0764 8.18168 11.0737 8.09899C11.0739 8.04296 11.0868 7.9877 11.1113 7.93732C11.1358 7.88694 11.1714 7.84274 11.2154 7.80799C11.3233 7.71932 11.4493 7.65547 11.5847 7.62099C11.6497 7.62599 11.7334 7.63332 11.8334 7.63732L11.8314 7.63665ZM11.5044 5.03665C11.564 4.9726 11.6367 4.92214 11.7176 4.88872C11.7984 4.8553 11.8856 4.8397 11.973 4.84299C12.0666 4.83591 12.1606 4.84894 12.2488 4.88119C12.3369 4.91344 12.4171 4.96418 12.484 5.02999C12.5983 5.16237 12.6579 5.33327 12.6507 5.50799C12.6589 5.69027 12.5978 5.86892 12.4797 6.00799C12.4212 6.07157 12.3495 6.12157 12.2696 6.15445C12.1898 6.18734 12.1036 6.20231 12.0174 6.19832C11.9249 6.20369 11.8324 6.19046 11.7452 6.15943C11.658 6.1284 11.5779 6.08019 11.5097 6.01765C11.4475 5.95511 11.3991 5.88031 11.3674 5.79802C11.3357 5.71572 11.3215 5.62774 11.3257 5.53965C11.3188 5.3559 11.383 5.17657 11.505 5.03899L11.5044 5.03665ZM10.1437 7.47399V4.41965L9.60668 4.50432V7.47832H10.1437V7.47399ZM10.137 3.21365C10.1034 3.17674 10.0624 3.14725 10.0167 3.12708C9.97102 3.1069 9.92163 3.09648 9.87168 3.09648C9.82174 3.09648 9.77234 3.1069 9.72666 3.12708C9.68097 3.14725 9.63999 3.17674 9.60635 3.21365C9.55132 3.29106 9.52175 3.38368 9.52175 3.47865C9.52175 3.57363 9.55132 3.66625 9.60635 3.74365C9.63999 3.78057 9.68097 3.81005 9.72666 3.83023C9.77234 3.85041 9.82174 3.86083 9.87168 3.86083C9.92163 3.86083 9.97102 3.85041 10.0167 3.83023C10.0624 3.81005 10.1034 3.78057 10.137 3.74365C10.193 3.6661 10.2227 3.57264 10.2217 3.47699C10.2224 3.38334 10.1929 3.29194 10.1377 3.21632L10.137 3.21365ZM6.96068 5.66665C6.97323 5.56819 7.00065 5.47221 7.04202 5.38199C7.08294 5.28968 7.1393 5.20502 7.20868 5.13165C7.28206 5.05529 7.37002 4.99442 7.46735 4.95265C7.57474 4.90642 7.69078 4.88369 7.80768 4.88599C7.90248 4.87805 7.99783 4.89195 8.08642 4.92663C8.175 4.9613 8.25446 5.01581 8.31868 5.08599C8.43197 5.23697 8.48892 5.42279 8.47968 5.61132V5.65699L6.96068 5.66665ZM6.93335 6.06032C7.30446 6.06032 7.63646 6.0581 7.92935 6.05365C8.05468 6.04865 8.17668 6.04732 8.29602 6.04732H8.92735C8.95008 5.97467 8.96636 5.90016 8.97602 5.82465C8.98702 5.74222 8.99248 5.65915 8.99235 5.57599C9.00862 5.26771 8.90371 4.96529 8.70002 4.73332C8.59016 4.62508 8.45872 4.5412 8.31428 4.48715C8.16983 4.43311 8.01561 4.41011 7.86168 4.41965C7.66274 4.41829 7.46561 4.45753 7.28235 4.53499C7.10618 4.61023 6.94843 4.72283 6.82002 4.86499C6.68591 5.01283 6.58146 5.18506 6.51235 5.37232C6.43458 5.58195 6.39594 5.80407 6.39835 6.02765C6.39567 6.23979 6.43323 6.4505 6.50902 6.64865C6.57779 6.83121 6.6824 6.99815 6.81668 7.13965C6.94998 7.27815 7.11075 7.38726 7.28868 7.45999C7.48334 7.53736 7.69123 7.57597 7.90068 7.57365C8.08259 7.57435 8.26395 7.55366 8.44102 7.51199C8.60163 7.47514 8.75541 7.41316 8.89668 7.32832L8.79902 6.83732C8.6713 6.92022 8.5304 6.98075 8.38235 7.01632C8.2293 7.05615 8.07183 7.07642 7.91368 7.07665C7.77992 7.07835 7.64714 7.05354 7.52302 7.00365C7.40831 6.95743 7.30462 6.88758 7.21868 6.79865C7.13255 6.70838 7.06464 6.60233 7.01868 6.48632C6.96717 6.35913 6.93959 6.22353 6.93735 6.08632V6.06032H6.93335ZM6.07735 7.47665V6.95932H4.12568V3.43565H3.57568V7.47632L6.07735 7.47665Z" fill="white"/>
</svg>
