<svg width="151" height="40" viewBox="0 0 151 40" fill="none" xmlns="http://www.w3.org/2000/svg">
<path d="M44.3581 1.14142C35.6888 1.2034 28.5977 10.8386 28.5977 19.2427C28.5977 28.0867 33.7958 38.8749 44.3581 38.8398C54.9204 38.8048 60.4026 27.1904 60.4026 19.2427C60.4026 10.4639 53.0274 1.07944 44.3581 1.14142ZM44.3581 1.47106C51.6139 1.47106 53.5714 9.48456 53.5714 19.2427C53.5714 32.1184 51.2102 38.4706 44.3581 38.4585C37.506 38.4464 35.2769 33.2474 35.2769 19.2427C35.2769 10.4699 37.1023 1.47106 44.3581 1.47106Z" fill="#777777"/>
<path d="M63.265 19.4804C63.2262 9.91782 70.8796 1.44721 77.3583 1.02695C79.6985 0.861154 82.7066 1.93281 84.4628 2.69622C85.7381 3.25057 88.3413 2.44817 88.8035 0.976074H89.0556V14.0021H88.8035C88.8035 13.4468 86.3912 1.35444 77.3583 1.35444C70.6863 1.35444 70.0418 13.0863 70.0418 19.4804C70.0418 25.8745 70.2361 38.5327 78.0221 38.5327C81.7938 38.5327 84.5856 36.8825 85.3094 33.5442V23.3936H82.1435V22.9612H94.415V23.3936H91.3883V38.2337H91.1418C91.1418 38.2337 90.6498 36.0925 88.1529 36.0996C84.9616 36.1088 81.9519 38.8814 78.2832 38.8476C68.5807 38.7584 63.3039 29.043 63.265 19.4804Z" fill="#777777"/>
<path d="M4.79704 2.42462H0.976074V1.99512H14.3611V2.42462H11.0031L20.5671 28.3974C23.5578 19.1899 25.8746 12.3838 28.9925 2.42462H25.671V1.99512H32.7384V2.42462H29.52L17.896 38.6616L4.79704 2.42462Z" fill="#777777"/>
<path d="M96.289 29.7896L96.2285 2.38271H92.5916V1.97217H105.991V2.38271H102.356L102.437 32.4329C103.241 35.8739 104.672 38.4849 109.56 38.5237C114.448 38.5626 117.77 35.6324 119.005 31.6278V2.38271H114.845L114.845 1.98426H148.898L148.969 15.1407H148.642C148.01 6.64607 144.732 3.43572 139 2.49915C137.028 2.17687 134.958 2.41578 132.342 2.39544V19.1865C134.62 19.3625 137.047 19.2185 138.682 17.814C140.169 16.5368 140.589 13.586 140.699 12.3872H140.987V27.007H140.675C140.585 27.007 140.465 23.3382 138.682 21.5976C136.887 19.8456 134.601 19.4149 132.342 19.8323V37.7688C135.533 37.7688 138.076 38.0391 140.285 37.4335C147 35.5927 149.363 29.9283 149.345 24.247H149.718V38.1934H123.008V37.7688H126.028V2.38271H119.502V31.6278C118.763 34.426 116.06 39.0553 109.132 39.0237C102.691 38.9943 96.3029 36.0905 96.289 29.7896Z" fill="#777777"/>
</svg>
