<svg width="126" height="40" viewBox="0 0 126 40" fill="none" xmlns="http://www.w3.org/2000/svg">
<path d="M5.41486 40C8.33794 40 10.0815 37.6923 11.5174 33.1282L13.5687 26.8718L19.0559 12.0513C21.1072 6.35898 21.3123 5.69231 23.6713 5.48718L24.4918 5.4359L24.6456 5.12821H15.6713L15.8251 5.4359L16.5431 5.48718C20.0302 5.84615 20.3892 6.51282 18.6456 11.4872L15.2097 20.9231L9.72256 8C8.95332 6.20513 9.20973 5.58974 11.2097 5.48718L12.0815 5.4359L12.2354 5.12821H0.132812L0.286659 5.4359L1.20974 5.48718C2.79948 5.58974 3.05589 6 4.18409 8.51282L12.5431 27.2821H12.902L11.1072 32.6667C10.1841 35.2308 9.41486 36.8205 8.13281 37.0769C7.82512 35.6923 6.90204 34.4103 4.90204 34.4103C3.36358 34.4103 2.13281 35.641 2.13281 37.1282C2.13281 38.9231 3.77384 40 5.41486 40Z" fill="#777777"/>
<path d="M40.4125 27.3846C42.874 27.3846 44.7714 24.8718 45.7971 23.5897L45.4894 23.4359C44.874 24.1026 44.156 24.8205 43.3355 24.8205C42.156 24.8205 41.3868 23.8974 41.4894 22.0513L42.0022 12.359C42.3099 6.20513 40.2586 4.35898 35.0278 4.35898C30.874 4.35898 24.3099 7.12821 24.3099 10.1538C24.3099 11.5385 25.4381 12.4615 26.9766 12.4615C28.5663 12.4615 29.6945 11.2821 29.6945 10C29.6945 8.61539 28.2586 7.4359 28.2586 7.07692C28.2586 6.51282 29.8996 5.64103 31.7458 5.64103C34.9766 5.64103 37.0278 7.79487 36.874 12.5128L36.8227 14.2051C27.0278 16.5128 24.4637 19.0769 24.4637 22.5128C24.4637 25.0769 26.7714 27.3333 29.7458 27.3333C32.3612 27.3333 34.515 25.3846 36.515 23.2308L36.5663 23.3333C36.874 25.8974 38.156 27.3846 40.4125 27.3846ZM32.7201 24.5128C30.9766 24.5128 29.4894 22.9231 29.4894 20.7179C29.4894 18.1538 30.7714 16.1026 36.8227 14.7179L36.515 22.7179C35.1817 24.0513 34.0535 24.5128 32.7201 24.5128Z" fill="#777777"/>
<path d="M54.8568 27.4872C57.6773 27.4872 60.1388 25.5897 62.3439 23.3846L62.0875 23.1795C61.0619 24.1538 59.7286 24.8205 57.7798 24.8205C55.2157 24.8205 54.1388 23.5385 54.1388 21.1795L54.4465 7.28205H61.3183L62.1901 5.07692L54.4978 5.02564L54.5491 0H54.3439L45.985 6.30769L45.3696 7.4359L49.4722 7.48718L49.2157 21.641C49.1645 25.641 51.0619 27.4872 54.8568 27.4872Z" fill="#777777"/>
<path d="M63.4189 26.8718H81.624L83.1625 18.6667H82.906L82.1881 19.9487C80.1881 23.4872 77.4701 26.2564 71.8291 26.359H69.3163L82.8035 5.33333V5.12821H64.4958V13.2821H64.7522L65.5214 11.6923C67.2137 7.74359 68.7522 5.69231 74.1881 5.58974L76.7522 5.64103L63.4189 26.6667V26.8718Z" fill="#777777"/>
<path d="M95.8668 27.5897C100.38 27.5897 103.457 24.9744 105.815 20.4615L105.457 20.2564C103.713 23.3333 101.559 24.3077 98.636 24.3077C94.1232 24.3077 90.7899 20.5128 90.7899 14.7692C90.7899 14.0513 90.8411 12.8205 90.9437 12.1026C91.6617 12.1538 105.251 12.2564 105.251 12.2564C105.303 11.8974 105.354 11.7436 105.354 11.4359C105.354 7.48718 102.431 4.30769 96.8411 4.30769C90.1745 4.30769 85.354 9.69231 85.354 16.4615C85.354 22.7692 89.7642 27.5897 95.8668 27.5897ZM90.995 11.641C91.5591 7.94872 93.8155 4.8718 96.3796 4.8718C99.3027 4.8718 100.174 8.35897 100.174 11.5385L90.995 11.641Z" fill="#777777"/>
<path d="M107.384 26.8718H119.743L119.59 26.5641L118.256 26.5128C115.949 26.4103 115.59 26.2051 115.59 25.7949V14.5128C116.872 9.84616 117.897 7.58974 119.743 7.23077C119.949 9.33333 121.384 10.5128 123.025 10.5128C124.82 10.5128 126 9.02564 126 7.48718C126 5.74359 124.41 4.35898 122.513 4.35898C119.179 4.35898 117.025 7.33333 115.59 12.5641H115.487L115.641 4.46154L107.282 6.71795L107.231 6.92308L108.41 7.17949C110.154 7.58974 110.513 8.05128 110.513 11.2308V25.7436C110.513 26.359 109.949 26.4103 108.359 26.5128L107.538 26.5641L107.384 26.8718Z" fill="#777777"/>
</svg>
