<svg width="544" height="78" viewBox="0 0 544 78" fill="none" xmlns="http://www.w3.org/2000/svg">
<path d="M9.07383 34L12.2738 26.6H29.0238L32.1738 34H40.7738L26.0238 0.5H15.3238L0.673828 34H9.07383ZM18.3238 12.55L20.3738 7.35H20.9238L22.9738 12.55L26.1238 19.85H15.1738L18.3238 12.55Z" fill="black"/>
<path d="M62.1734 34.5C72.6234 34.5 79.2734 29.3 79.2734 20.8V20.05H70.9234V20.8C70.9234 25.2 68.4234 27.3 62.3234 27.3C54.9734 27.3 52.2234 24.7 52.2234 17.25C52.2234 9.8 54.9734 7.2 62.3234 7.2C68.4234 7.2 70.9234 9.3 70.9234 13.7V14.45H79.2734V13.7C79.2734 5.2 72.5734 0 62.1734 0C51.1234 0 44.2734 6.8 44.2734 17.25C44.2734 27.7 51.1234 34.5 62.1734 34.5Z" fill="black"/>
<path d="M91.1734 34L94.3734 26.6H111.123L114.273 34H122.873L108.123 0.5H97.4234L82.7734 34H91.1734ZM100.423 12.55L102.473 7.35H103.023L105.073 12.55L108.223 19.85H97.2734L100.423 12.55Z" fill="black"/>
<path d="M143.673 34C154.423 34 161.223 27.75 161.223 17.25C161.223 6.75 154.423 0.5 143.673 0.5H127.523V34H143.673ZM143.673 7.25C150.473 7.25 153.223 9.2 153.223 17.25C153.223 25.3 150.473 27.25 143.673 27.25H135.023V7.25H143.673Z" fill="black"/>
<path d="M195.327 34V27.25H174.477V20.5H194.577V13.8H174.477V7.25H195.327V0.5H166.977V34H195.327Z" fill="black"/>
<path d="M208.715 34V17L208.415 11.75H208.965L210.915 17L217.915 32H227.015L234.015 17L235.965 11.75H236.515L236.265 17V34H243.765V0.5H233.565L225.965 17L222.915 24.85H222.365L219.215 17L211.365 0.5H201.215V34H208.715Z" fill="black"/>
<path d="M257.699 34V0.5H250.199V34H257.699Z" fill="black"/>
<path d="M281.275 34.5C291.725 34.5 298.375 29.3 298.375 20.8V20.05H290.025V20.8C290.025 25.2 287.525 27.3 281.425 27.3C274.075 27.3 271.325 24.7 271.325 17.25C271.325 9.8 274.075 7.2 281.425 7.2C287.525 7.2 290.025 9.3 290.025 13.7V14.45H298.375V13.7C298.375 5.2 291.675 0 281.275 0C270.225 0 263.375 6.8 263.375 17.25C263.375 27.7 270.225 34.5 281.275 34.5Z" fill="black"/>
<path d="M329.54 34.5C340.19 34.5 344.44 29.6 344.44 24.15C344.44 19.55 341.74 15.9 334.24 14.7L324.84 13.2C322.04 12.7 320.94 12 320.94 10.05C320.94 7.9 322.59 6.85 327.99 6.85C334.64 6.85 336.29 8.2 336.29 11.4V12.1H343.84V11.8C343.84 4.75 339.04 0 328.74 0C317.49 0 313.39 5.3 313.39 10.35C313.39 15.8 316.94 18.8 322.94 19.75L332.34 21.1C335.79 21.7 336.94 22.45 336.94 24.5C336.94 26.75 335.54 27.65 329.54 27.65C322.74 27.65 321.19 26.4 321.19 23.3V22.4H313.69V22.7C313.69 30.5 319.39 34.5 329.54 34.5Z" fill="black"/>
<path d="M368.644 34V7.25H381.094V0.5H348.694V7.25H361.144V34H368.644Z" fill="black"/>
<path d="M402.483 34.5C413.433 34.5 418.933 29 418.933 20V0.5H411.433V19.45C411.433 25.15 409.333 27.2 402.483 27.2C395.683 27.2 393.533 25.15 393.533 19.45V0.5H386.033V20C386.033 29 391.583 34.5 402.483 34.5Z" fill="black"/>
<path d="M441.759 34C452.509 34 459.309 27.75 459.309 17.25C459.309 6.75 452.509 0.5 441.759 0.5H425.609V34H441.759ZM441.759 7.25C448.559 7.25 451.309 9.2 451.309 17.25C451.309 25.3 448.559 27.25 441.759 27.25H433.109V7.25H441.759Z" fill="black"/>
<path d="M472.562 34V0.5H465.062V34H472.562Z" fill="black"/>
<path d="M507.338 34V27.25H486.488V20.5H506.588V13.8H486.488V7.25H507.338V0.5H478.988V34H507.338Z" fill="black"/>
<path d="M528.427 34.5C539.077 34.5 543.327 29.6 543.327 24.15C543.327 19.55 540.627 15.9 533.127 14.7L523.727 13.2C520.927 12.7 519.827 12 519.827 10.05C519.827 7.9 521.477 6.85 526.877 6.85C533.527 6.85 535.177 8.2 535.177 11.4V12.1H542.727V11.8C542.727 4.75 537.927 0 527.627 0C516.377 0 512.277 5.3 512.277 10.35C512.277 15.8 515.827 18.8 521.827 19.75L531.227 21.1C534.677 21.7 535.827 22.45 535.827 24.5C535.827 26.75 534.427 27.65 528.427 27.65C521.627 27.65 520.077 26.4 520.077 23.3V22.4H512.577V22.7C512.577 30.5 518.277 34.5 528.427 34.5Z" fill="black"/>
<path d="M291.644 72V67.62H291.794C292.484 70.59 294.854 72.3 298.154 72.3C302.984 72.3 305.534 69.09 305.534 64.59C305.534 60.09 302.984 56.88 298.334 56.88C294.764 56.88 292.634 58.77 292.004 61.32H291.854V51.9H289.724V72H291.644ZM291.854 64.83V64.56C291.854 60.9 293.954 58.86 297.704 58.86C301.124 58.86 303.374 60.3 303.374 64.59C303.374 68.88 301.184 70.35 297.644 70.35C294.074 70.35 291.854 68.34 291.854 64.83Z" fill="black"/>
<path d="M310.102 77.1C312.562 77.1 313.942 76.35 315.022 74.07L323.062 57.18H320.722L316.612 65.97L315.022 69.63H314.842L313.192 66L308.842 57.18H306.502L313.852 71.97L313.132 73.47C312.562 74.7 311.992 75.15 310.492 75.15H308.242V77.1H310.102Z" fill="black"/>
<path d="M340.552 72L349.402 51.9H346.912L339.172 69.84H339.022L331.252 51.9H328.732L337.582 72H340.552Z" fill="black"/>
<path d="M358.361 72.3C363.221 72.3 366.431 69.09 366.431 64.59C366.431 60.09 363.221 56.88 358.361 56.88C353.531 56.88 350.321 60.09 350.321 64.59C350.321 69.09 353.531 72.3 358.361 72.3ZM358.361 70.38C354.281 70.38 352.421 68.19 352.421 64.59C352.421 61.02 354.281 58.8 358.361 58.8C362.441 58.8 364.331 61.02 364.331 64.59C364.331 68.19 362.441 70.38 358.361 70.38Z" fill="black"/>
<path d="M371.395 72V51.9H369.265V72H371.395Z" fill="black"/>
<path d="M377.108 72V65.34H382.058L387.038 72H389.528L383.828 64.26L389.558 57.18H387.038L382.088 63.39H377.108V51.9H374.978V72H377.108Z" fill="black"/>
<path d="M398.668 72.3C402.808 72.3 405.868 70.17 405.868 67.08V66.87H403.738V67.08C403.738 69.24 402.118 70.53 398.638 70.53C394.708 70.53 392.998 68.52 392.878 65.19H405.928C406.018 64.8 406.078 64.35 406.078 63.81C406.078 59.4 402.988 56.88 398.638 56.88C393.868 56.88 390.868 60.09 390.868 64.59C390.868 69.3 393.898 72.3 398.668 72.3ZM398.608 58.65C402.088 58.65 404.068 60.3 404.068 63.42C404.068 63.57 404.068 63.72 404.068 63.87H392.878C393.028 60.63 394.768 58.65 398.608 58.65Z" fill="black"/>
<path d="M411.034 72V63.96C411.034 60.63 412.354 58.74 415.354 58.74C417.934 58.74 418.984 59.97 418.984 62.49V63.63H421.114V62.16C421.114 59.4 419.614 56.88 416.194 56.88C413.104 56.88 411.424 58.86 410.974 61.23H410.824V57.18H408.904V72H411.034Z" fill="black"/>
<path d="M431.219 72V62.85H444.149V72H446.279V51.9H444.149V60.9H431.219V51.9H429.089V72H431.219Z" fill="black"/>
<path d="M456.94 72.3C461.08 72.3 464.14 70.17 464.14 67.08V66.87H462.01V67.08C462.01 69.24 460.39 70.53 456.91 70.53C452.98 70.53 451.27 68.52 451.15 65.19H464.2C464.29 64.8 464.35 64.35 464.35 63.81C464.35 59.4 461.26 56.88 456.91 56.88C452.14 56.88 449.14 60.09 449.14 64.59C449.14 69.3 452.17 72.3 456.94 72.3ZM456.88 58.65C460.36 58.65 462.34 60.3 462.34 63.42C462.34 63.57 462.34 63.72 462.34 63.87H451.15C451.3 60.63 453.04 58.65 456.88 58.65Z" fill="black"/>
<path d="M469.305 72V63.96C469.305 60.63 470.625 58.74 473.625 58.74C476.205 58.74 477.255 59.97 477.255 62.49V63.63H479.385V62.16C479.385 59.4 477.885 56.88 474.465 56.88C471.375 56.88 469.695 58.86 469.245 61.23H469.095V57.18H467.175V72H469.305Z" fill="black"/>
<path d="M483.983 72V64.83C483.983 60.9 485.393 58.83 488.993 58.83C492.113 58.83 493.493 60.36 493.493 63.66V72H495.623V64.83C495.623 60.9 497.063 58.83 500.633 58.83C503.753 58.83 505.163 60.36 505.163 63.66V72H507.293V63.36C507.293 59.61 505.283 56.88 501.413 56.88C497.693 56.88 495.923 59.25 495.503 61.8H495.353C494.873 58.92 493.013 56.88 489.713 56.88C486.023 56.88 484.313 59.16 483.893 61.65H483.773V57.18H481.853V72H483.983Z" fill="black"/>
<path d="M517.819 72.3C521.959 72.3 525.019 70.17 525.019 67.08V66.87H522.889V67.08C522.889 69.24 521.269 70.53 517.789 70.53C513.859 70.53 512.149 68.52 512.029 65.19H525.079C525.169 64.8 525.229 64.35 525.229 63.81C525.229 59.4 522.139 56.88 517.789 56.88C513.019 56.88 510.019 60.09 510.019 64.59C510.019 69.3 513.049 72.3 517.819 72.3ZM517.759 58.65C521.239 58.65 523.219 60.3 523.219 63.42C523.219 63.57 523.219 63.72 523.219 63.87H512.029C512.179 60.63 513.919 58.65 517.759 58.65Z" fill="black"/>
<path d="M534.564 72.3C538.404 72.3 541.164 70.83 541.164 68.04C541.164 65.64 539.454 64.56 536.274 64.11L532.644 63.6C530.184 63.24 529.404 62.7 529.404 61.17C529.404 59.4 530.694 58.65 533.814 58.65C537.594 58.65 538.764 59.85 538.764 62.07V62.22H540.894V62.16C540.894 58.68 538.134 56.88 533.874 56.88C529.794 56.88 527.304 58.53 527.304 61.14C527.304 63.6 529.014 64.65 531.714 65.01L535.674 65.58C538.134 65.97 539.064 66.48 539.064 68.04C539.064 69.75 537.924 70.53 534.594 70.53C530.964 70.53 529.494 69.66 529.494 67.17V66.99H527.364V67.05C527.364 70.47 530.004 72.3 534.564 72.3Z" fill="black"/>
</svg>
