<svg width="87" height="30" viewBox="0 0 87 30" fill="none" xmlns="http://www.w3.org/2000/svg">
<g clip-path="url(#clip0_1212_3056)">
<path d="M19.8479 16.5745H21.2568L23.3286 22.2927H21.9197L21.4639 20.9667H19.4336L18.9778 22.2927H17.6104L19.8479 16.5745ZM21.2153 19.9723L20.5109 17.8176L19.8065 19.9723H21.2153Z" fill="black"/>
<path d="M24.1987 20.5939L24.4473 20.8425C24.5414 20.935 24.6545 21.0057 24.7788 21.0497C24.9058 21.1295 25.0462 21.1857 25.1932 21.2155C25.3408 21.263 25.4941 21.2909 25.649 21.2983C25.7475 21.305 25.8463 21.2909 25.939 21.2569L26.1877 21.1326C26.2705 21.0911 26.312 21.0083 26.3948 20.9254C26.4408 20.8498 26.4691 20.7648 26.4777 20.6768C26.4809 20.575 26.4553 20.4745 26.404 20.3865C26.3527 20.2986 26.2778 20.2269 26.1877 20.1795C25.8778 20.0125 25.5413 19.9003 25.1932 19.8481C24.9802 19.7978 24.7722 19.7284 24.5716 19.6409C24.3966 19.5449 24.2303 19.434 24.0744 19.3094C23.9412 19.1754 23.8293 19.0216 23.7429 18.8536C23.6581 18.6721 23.6155 18.4738 23.6186 18.2735C23.6159 18.0464 23.6581 17.8211 23.7429 17.6105C23.8272 17.3941 23.954 17.1969 24.1158 17.0304C24.3002 16.8499 24.5289 16.7213 24.7788 16.6574C25.0746 16.5699 25.382 16.528 25.6904 16.5331C25.9548 16.538 26.2182 16.5658 26.4777 16.616C26.6792 16.6598 26.8742 16.7294 27.0578 16.8232C27.1943 16.8862 27.3201 16.9701 27.4308 17.0718L27.6379 17.279L26.8921 18.1077C26.8092 18.0663 26.7678 17.9834 26.6849 17.942C26.5936 17.8779 26.4965 17.8224 26.3948 17.7762C26.287 17.728 26.1763 17.6865 26.0634 17.6519C25.9422 17.6177 25.8162 17.6037 25.6904 17.6105C25.6054 17.604 25.5201 17.6182 25.4418 17.6519L25.1932 17.7762C25.1103 17.8177 25.0689 17.9005 25.0274 17.942C24.986 17.9834 24.9446 18.0663 24.9446 18.1492C24.9422 18.2453 24.9686 18.34 25.0202 18.4212C25.0719 18.5024 25.1465 18.5663 25.2346 18.605C25.4962 18.7393 25.7751 18.8369 26.0634 18.895C26.2763 18.9453 26.4844 19.0146 26.6849 19.1022C26.8786 19.1879 27.0598 19.2994 27.2236 19.4337C27.3938 19.5767 27.5226 19.7627 27.5965 19.9724C27.6996 20.2079 27.7559 20.4612 27.7622 20.7182C27.7715 20.9637 27.7142 21.2071 27.5965 21.4226C27.4816 21.6424 27.3271 21.8391 27.1407 22.0028C26.9347 22.1752 26.6947 22.3023 26.4363 22.3757C26.1547 22.4634 25.861 22.5054 25.5661 22.5C25.3018 22.4951 25.0384 22.4674 24.7788 22.4171C24.5624 22.3797 24.3529 22.3099 24.1573 22.2099C23.9814 22.1317 23.8147 22.0345 23.66 21.9199C23.5278 21.8187 23.4031 21.7079 23.2871 21.5884L24.1987 20.5939Z" fill="black"/>
<path d="M28.8813 20.5939L29.1299 20.8425C29.224 20.935 29.3371 21.0057 29.4614 21.0497C29.5884 21.1295 29.7288 21.1857 29.8758 21.2155C30.0234 21.263 30.1767 21.2909 30.3316 21.2983C30.4301 21.305 30.5289 21.2909 30.6217 21.2569L30.8703 21.1326C30.9532 21.0911 30.9946 21.0083 31.0775 20.9254C31.1234 20.8498 31.1518 20.7648 31.1603 20.6768C31.1635 20.575 31.1379 20.4745 31.0866 20.3865C31.0354 20.2986 30.9604 20.2269 30.8703 20.1795C30.5604 20.0125 30.2239 19.9003 29.8758 19.8481C29.6628 19.7978 29.4548 19.7284 29.2543 19.6409C29.0792 19.5449 28.9129 19.434 28.757 19.3094C28.6238 19.1754 28.512 19.0216 28.4255 18.8536C28.3407 18.6721 28.2982 18.4738 28.3012 18.2735C28.2985 18.0464 28.3407 17.8211 28.4255 17.6105C28.5098 17.3941 28.6366 17.1969 28.7985 17.0304C28.9828 16.8499 29.2115 16.7213 29.4614 16.6574C29.7572 16.5699 30.0646 16.528 30.373 16.5331C30.6374 16.538 30.9008 16.5658 31.1603 16.616C31.3618 16.6598 31.5568 16.7294 31.7404 16.8232C31.8769 16.8862 32.0027 16.9701 32.1134 17.0718L32.3206 17.279L31.5747 18.1077C31.4918 18.0663 31.4504 17.9834 31.3675 17.942C31.2762 17.8779 31.1791 17.8224 31.0775 17.7762C30.9696 17.728 30.8589 17.6865 30.746 17.6519C30.6248 17.6177 30.4988 17.6037 30.373 17.6105C30.288 17.604 30.2027 17.6182 30.1244 17.6519L29.8758 17.7762C29.7929 17.8177 29.7515 17.9005 29.7101 17.942C29.6686 17.9834 29.6272 18.0663 29.6272 18.1492C29.6248 18.2453 29.6512 18.34 29.7028 18.4212C29.7545 18.5024 29.8291 18.5663 29.9172 18.605C30.1788 18.7393 30.4577 18.8369 30.746 18.895C30.9589 18.9453 31.167 19.0146 31.3675 19.1022C31.5612 19.1879 31.7424 19.2994 31.9062 19.4337C32.0764 19.5767 32.2052 19.7627 32.2791 19.9724C32.3823 20.2079 32.4385 20.4612 32.4449 20.7182C32.4541 20.9637 32.3968 21.2071 32.2791 21.4226C32.1642 21.6424 32.0097 21.8391 31.8233 22.0028C31.6173 22.1752 31.3773 22.3023 31.1189 22.3757C30.8374 22.4634 30.5436 22.5054 30.2487 22.5C29.9844 22.4951 29.721 22.4674 29.4614 22.4171C29.245 22.3797 29.0355 22.3099 28.8399 22.2099C28.664 22.1317 28.4973 22.0345 28.3427 21.9199C28.2104 21.8187 28.0857 21.7079 27.9697 21.5884L28.8813 20.5939Z" fill="black"/>
<path d="M35.884 22.417C35.4835 22.4229 35.0868 22.3379 34.7238 22.1683C34.3766 22.0104 34.0553 21.8008 33.7708 21.5468C33.5077 21.2693 33.2971 20.9464 33.1492 20.5938C32.9935 20.2131 32.9228 19.803 32.942 19.3921C32.9468 18.9831 33.0168 18.5774 33.1492 18.1904C33.3072 17.8432 33.5167 17.5219 33.7708 17.2374C34.0374 16.9608 34.3632 16.7483 34.7238 16.6159C35.0882 16.4505 35.4839 16.3657 35.884 16.3672C36.2846 16.3613 36.6813 16.4463 37.0443 16.6159C37.3915 16.7738 37.7128 16.9834 37.9973 17.2374C38.2604 17.5149 38.471 17.8378 38.6188 18.1904C38.7745 18.5711 38.8452 18.9812 38.826 19.3921C38.8212 19.8011 38.7513 20.2068 38.6188 20.5938C38.471 20.9464 38.2604 21.2693 37.9973 21.5468C37.7307 21.8234 37.4049 22.0359 37.0443 22.1683C36.6865 22.353 36.286 22.4388 35.884 22.417ZM35.884 21.2153C36.1163 21.2247 36.3465 21.1671 36.547 21.0496C36.736 20.9597 36.9051 20.8329 37.0443 20.6766C37.1788 20.4981 37.2902 20.3031 37.3757 20.0965C37.4606 19.8715 37.5028 19.6326 37.5001 19.3921C37.4991 19.1519 37.4571 18.9137 37.3757 18.6877C37.3066 18.4734 37.1938 18.2759 37.0443 18.1076C36.9166 17.9393 36.7443 17.8101 36.547 17.7346C36.3364 17.6498 36.1111 17.6076 35.884 17.6103C35.6567 17.6035 35.4305 17.6459 35.2211 17.7346C35.03 17.821 34.8602 17.9483 34.7238 18.1076C34.4275 18.4699 34.2664 18.924 34.268 19.3921C34.269 19.6323 34.311 19.8705 34.3923 20.0965C34.4614 20.3108 34.5743 20.5083 34.7238 20.6766C34.8602 20.8359 35.03 20.9632 35.2211 21.0496C35.4197 21.1718 35.6512 21.2297 35.884 21.2153Z" fill="black"/>
<path d="M44.6685 21.2568C44.5492 21.4383 44.3941 21.5934 44.2127 21.7126C44.0462 21.8745 43.8489 22.0013 43.6326 22.0856C43.4298 22.2108 43.2046 22.2952 42.9696 22.3342C42.7272 22.4025 42.4752 22.4305 42.2237 22.417C41.8147 22.4123 41.4091 22.3423 41.0221 22.2099C40.6737 22.077 40.3614 21.8641 40.1105 21.5883C39.8474 21.3108 39.6368 20.9879 39.4889 20.6353C39.353 20.2492 39.2829 19.843 39.2817 19.4336C39.2865 19.0246 39.3565 18.619 39.4889 18.232C39.6057 17.8637 39.8205 17.5342 40.1105 17.2789C40.3658 16.989 40.6952 16.7741 41.0635 16.6574C41.4471 16.5072 41.8534 16.4232 42.2652 16.4088C42.7511 16.3922 43.2341 16.4916 43.674 16.6988C44.0742 16.8803 44.4178 17.1667 44.6685 17.5275L43.7983 18.3563C43.6335 18.122 43.4218 17.9245 43.1768 17.7762C42.9295 17.6209 42.6393 17.5483 42.348 17.569C42.1075 17.5663 41.8687 17.6084 41.6436 17.6933C41.44 17.7786 41.2564 17.9056 41.1049 18.0662C40.9704 18.2448 40.859 18.4397 40.7735 18.6463C40.6089 19.1015 40.6089 19.6 40.7735 20.0552C40.859 20.2618 40.9704 20.4567 41.1049 20.6353C41.2413 20.7945 41.4111 20.9219 41.6022 21.0082C41.8128 21.093 42.0381 21.1353 42.2652 21.1325C42.4476 21.1284 42.6286 21.1005 42.8038 21.0496C42.9508 21.0198 43.0912 20.9637 43.2182 20.8839C43.3425 20.801 43.4254 20.7181 43.5497 20.6353C43.674 20.5524 43.7154 20.4281 43.7983 20.3452L44.6685 21.2568Z" fill="black"/>
<path d="M45.207 16.4917H46.4916V22.2099H45.207V16.4917Z" fill="black"/>
<path d="M49.0193 16.4917H50.4281L52.5 22.2099H51.0911L50.6353 20.884H48.6049L48.1491 22.2099H46.7817L49.0193 16.4917ZM50.3867 19.8895L49.6823 17.7348L48.9779 19.8895H50.3867Z" fill="black"/>
<path d="M53.6185 17.6517H51.7539V16.533H56.7263V17.6517H54.9031V22.2098H53.6185V17.6517Z" fill="black"/>
<path d="M57.3896 16.4917H58.6742V22.2099H57.3896V16.4917Z" fill="black"/>
<path d="M62.2791 22.3757C61.8785 22.3817 61.4818 22.2967 61.1188 22.1271C60.7716 21.9691 60.4503 21.7596 60.1658 21.5055C59.9027 21.2281 59.6921 20.9051 59.5443 20.5525C59.3886 20.1718 59.3179 19.7617 59.3371 19.3508C59.3418 18.9418 59.4118 18.5362 59.5443 18.1492C59.7022 17.802 59.9118 17.4807 60.1658 17.1961C60.4324 16.9196 60.7582 16.707 61.1188 16.5746C61.4832 16.4092 61.8789 16.3244 62.2791 16.326C62.6796 16.32 63.0763 16.405 63.4393 16.5746C63.7865 16.7325 64.1078 16.9421 64.3923 17.1961C64.6554 17.4736 64.866 17.7965 65.0139 18.1492C65.1695 18.5299 65.2403 18.94 65.221 19.3508C65.2163 19.7599 65.1463 20.1655 65.0139 20.5525C64.866 20.9051 64.6554 21.2281 64.3923 21.5055C64.1257 21.7821 63.7999 21.9946 63.4393 22.1271C63.0763 22.2967 62.6796 22.3817 62.2791 22.3757ZM62.2791 21.1326C62.5114 21.142 62.7415 21.0844 62.942 20.9669C63.131 20.877 63.3001 20.7502 63.4393 20.5939C63.5739 20.4154 63.6852 20.2204 63.7708 20.0138C63.8556 19.7888 63.8978 19.5499 63.8951 19.3094C63.8941 19.0692 63.8521 18.831 63.7708 18.605C63.7113 18.3866 63.5972 18.187 63.4393 18.0249C63.3116 17.8566 63.1394 17.7274 62.942 17.6519C62.7314 17.5671 62.5061 17.5249 62.2791 17.5276C62.0517 17.5208 61.8255 17.5632 61.6161 17.6519C61.425 17.7383 61.2552 17.8656 61.1188 18.0249C60.9756 18.1976 60.8634 18.3939 60.7873 18.605C60.6228 19.0602 60.6228 19.5586 60.7873 20.0138C60.8564 20.2281 60.9693 20.4256 61.1188 20.5939C61.2552 20.7532 61.425 20.8805 61.6161 20.9669C61.8147 21.0891 62.0463 21.147 62.2791 21.1326Z" fill="black"/>
<path d="M65.7598 16.4917H67.0029L69.489 20.1795V16.4917H70.7736V22.2099H69.6134L67.0857 18.4392V22.2099H65.8012V16.4917H65.7598Z" fill="black"/>
<path d="M17.9419 24.0745H21.754V25.1932H19.2264V26.4778H21.1739V27.5966H19.2264V29.7513H17.9419V24.0745Z" fill="black"/>
<path d="M24.8621 29.917C24.4615 29.9229 24.0648 29.8379 23.7018 29.6683C23.3546 29.5104 23.0333 29.3008 22.7488 29.0468C22.4857 28.7693 22.2751 28.4464 22.1273 28.0938C21.9716 27.7131 21.9009 27.303 21.9201 26.8921C21.9249 26.4831 21.9948 26.0774 22.1273 25.6904C22.2852 25.3432 22.4948 25.0219 22.7488 24.7374C23.0154 24.4608 23.3413 24.2483 23.7018 24.1159C24.0662 23.9505 24.4619 23.8657 24.8621 23.8672C25.2626 23.8613 25.6593 23.9463 26.0223 24.1159C26.3695 24.2738 26.6908 24.4834 26.9753 24.7374C27.2384 25.0149 27.449 25.3378 27.5969 25.6904C27.7526 26.0711 27.8233 26.4812 27.8041 26.8921C27.7993 27.3011 27.7293 27.7068 27.5969 28.0938C27.449 28.4464 27.2384 28.7693 26.9753 29.0468C26.7087 29.3234 26.3829 29.5359 26.0223 29.6683C25.6593 29.8379 25.2626 29.9229 24.8621 29.917ZM24.8621 28.7153C25.0944 28.7247 25.3245 28.6671 25.525 28.5496C25.714 28.4597 25.8831 28.3329 26.0223 28.1766C26.1569 27.9981 26.2683 27.8031 26.3538 27.5965C26.4386 27.3715 26.4808 27.1326 26.4781 26.8921C26.4771 26.6519 26.4351 26.4137 26.3538 26.1877C26.2847 25.9734 26.1718 25.7759 26.0223 25.6076C25.8946 25.4393 25.7224 25.3101 25.525 25.2346C25.3144 25.1498 25.0891 25.1076 24.8621 25.1103C24.6347 25.1035 24.4085 25.1459 24.1991 25.2346C24.0018 25.3101 23.8295 25.4393 23.7018 25.6076C23.4055 25.9699 23.2444 26.424 23.246 26.8921C23.247 27.1323 23.289 27.3705 23.3704 27.5965C23.4395 27.8108 23.5523 28.0083 23.7018 28.1766C23.8499 28.3388 24.0287 28.4699 24.2279 28.5624C24.4271 28.6549 24.6426 28.7069 24.8621 28.7153Z" fill="black"/>
<path d="M28.3428 24.0744H30.456C30.7509 24.069 31.0447 24.111 31.3262 24.1987C31.5598 24.2726 31.7727 24.4004 31.9477 24.5717C32.1183 24.731 32.2465 24.9304 32.3207 25.1518C32.4055 25.3768 32.4477 25.6157 32.445 25.8562C32.4571 26.1914 32.3706 26.5227 32.1964 26.8092C32.0374 27.099 31.7908 27.3311 31.4919 27.4722L32.7765 29.7512H31.3676L30.2903 27.638H29.5859V29.7512H28.3428V24.0744ZM30.4146 26.6435C30.6263 26.6449 30.8318 26.5715 30.9947 26.4363C31.1295 26.2895 31.2035 26.097 31.2019 25.8976C31.2066 25.7984 31.1906 25.6993 31.1549 25.6065C31.1192 25.5138 31.0647 25.4295 30.9947 25.359C30.8351 25.2179 30.6274 25.1437 30.4146 25.1518H29.6273V26.6849H30.4146V26.6435Z" fill="black"/>
<path d="M37.0027 24.0745H38.4115L40.4834 29.7927H39.0745L38.6187 28.4667H36.5883L36.1325 29.7927H34.7651L37.0027 24.0745ZM38.3287 27.4723L37.6243 25.3176L36.9198 27.4723H38.3287Z" fill="black"/>
<path d="M40.8979 24.0744H43.0112C43.306 24.069 43.5998 24.111 43.8814 24.1987C44.1149 24.2726 44.3278 24.4004 44.5029 24.5717C44.6735 24.731 44.8017 24.9304 44.8759 25.1518C44.9607 25.3768 45.0029 25.6157 45.0002 25.8562C45.0122 26.1914 44.9258 26.5227 44.7515 26.8092C44.5926 27.099 44.346 27.3311 44.0471 27.4722L45.3317 29.7512H43.9228L42.8455 27.638H42.141V29.7512H40.8979V24.0744ZM42.9698 26.6435C43.1815 26.6449 43.3869 26.5715 43.5499 26.4363C43.6846 26.2895 43.7587 26.097 43.7571 25.8976C43.7617 25.7984 43.7457 25.6993 43.7101 25.6065C43.6744 25.5138 43.6199 25.4295 43.5499 25.359C43.3903 25.2179 43.1826 25.1437 42.9698 25.1518H42.1825V26.6849H42.9698V26.6435Z" fill="black"/>
<path d="M47.3202 25.1932H45.4556V24.0745H50.4279V25.1932H48.6047V29.7513H47.3202V25.1932Z" fill="black"/>
<path d="M52.8315 24.0745H54.1161V26.2706H56.6023V24.0745H57.8868V29.7927H56.6023V27.4308H54.1161V29.7927H52.8315V24.0745Z" fill="black"/>
<path d="M58.6738 24.0745H59.9584V29.7927H58.6738V24.0745Z" fill="black"/>
<path d="M61.3262 28.0939L61.5748 28.3425C61.6688 28.435 61.782 28.5057 61.9063 28.5497C62.0333 28.6295 62.1736 28.6857 62.3206 28.7155C62.4682 28.763 62.6215 28.7909 62.7764 28.7983C62.8749 28.805 62.9738 28.7909 63.0665 28.7569L63.3151 28.6326C63.398 28.5911 63.4394 28.5083 63.5223 28.4254C63.5682 28.3498 63.5966 28.2648 63.6052 28.1768C63.6083 28.075 63.5828 27.9745 63.5315 27.8866C63.4802 27.7986 63.4052 27.7269 63.3151 27.6795C63.0052 27.5125 62.6688 27.4003 62.3206 27.3481C62.1076 27.2978 61.8996 27.2284 61.6991 27.1409C61.5241 27.0449 61.3577 26.934 61.2018 26.8094C61.0686 26.6754 60.9568 26.5216 60.8703 26.3536C60.7855 26.1721 60.743 25.9738 60.746 25.7735C60.7433 25.5464 60.7855 25.3211 60.8703 25.1105C60.9546 24.8941 61.0814 24.6969 61.2433 24.5304C61.4276 24.3499 61.6563 24.2213 61.9063 24.1574C62.202 24.0699 62.5094 24.028 62.8179 24.0331C63.0822 24.038 63.3456 24.0658 63.6052 24.116C63.8066 24.1598 64.0016 24.2295 64.1853 24.3232C64.3217 24.3862 64.4476 24.4701 64.5582 24.5718L64.7654 24.779L64.0195 25.6077C63.9366 25.5663 63.8952 25.4834 63.8123 25.442C63.721 25.3779 63.6239 25.3224 63.5223 25.2762C63.4145 25.228 63.3038 25.1865 63.1908 25.1519C63.0696 25.1177 62.9436 25.1037 62.8179 25.1105C62.7329 25.104 62.6475 25.1182 62.5692 25.1519L62.3206 25.2762C62.2378 25.3177 62.1963 25.4005 62.1549 25.442C62.1134 25.4834 62.072 25.5663 62.072 25.6492C62.0697 25.7453 62.096 25.84 62.1477 25.9212C62.1993 26.0024 62.2739 26.0663 62.3621 26.105C62.6236 26.2393 62.9025 26.3369 63.1908 26.395C63.4038 26.4453 63.6118 26.5146 63.8123 26.6022C64.006 26.6879 64.1872 26.7994 64.351 26.9337C64.5213 27.0767 64.65 27.2627 64.7239 27.4724C64.8271 27.7079 64.8834 27.9612 64.8897 28.2182C64.8989 28.4637 64.8416 28.7071 64.7239 28.9226C64.609 29.1424 64.4545 29.3391 64.2681 29.5028C64.0622 29.6752 63.8221 29.8023 63.5637 29.8757C63.2822 29.9634 62.9884 30.0054 62.6936 30C62.4292 29.9951 62.1658 29.9674 61.9063 29.9171C61.6898 29.8797 61.4803 29.8099 61.2847 29.7099C61.1089 29.6317 60.9421 29.5345 60.7875 29.4199C60.6552 29.3187 60.5305 29.2079 60.4146 29.0884L61.3262 28.0939Z" fill="black"/>
<path d="M67.1269 25.2348H65.3037V24.116H70.2761V25.2348H68.4529V29.7928H67.1684V25.2348H67.1269Z" fill="black"/>
<path d="M73.177 29.9585C72.7764 29.9644 72.3797 29.8794 72.0168 29.7098C71.6696 29.5519 71.3483 29.3423 71.0637 29.0883C70.8006 28.8108 70.59 28.4879 70.4422 28.1353C70.2865 27.7546 70.2158 27.3445 70.235 26.9336C70.2398 26.5246 70.3097 26.1189 70.4422 25.7319C70.6002 25.3847 70.8097 25.0634 71.0637 24.7789C71.3303 24.5023 71.6562 24.2898 72.0168 24.1574C72.3811 23.992 72.7769 23.9072 73.177 23.9087C73.5776 23.9028 73.9743 23.9878 74.3372 24.1574C74.6844 24.3153 75.0057 24.5249 75.2903 24.7789C75.5534 25.0564 75.764 25.3793 75.9118 25.7319C76.0675 26.1126 76.1382 26.5227 76.119 26.9336C76.1142 27.3426 76.0443 27.7483 75.9118 28.1353C75.764 28.4879 75.5534 28.8108 75.2903 29.0883C75.0237 29.3649 74.6978 29.5774 74.3372 29.7098C73.9743 29.8794 73.5776 29.9644 73.177 29.9585ZM73.177 28.7154C73.4093 28.7247 73.6394 28.6672 73.84 28.5496C74.029 28.4598 74.1981 28.333 74.3372 28.1767C74.4718 27.9981 74.5832 27.8032 74.6687 27.5966C74.7536 27.3715 74.7957 27.1327 74.793 26.8922C74.7921 26.652 74.75 26.4137 74.6687 26.1877C74.5996 25.9735 74.4867 25.7759 74.3372 25.6076C74.2096 25.4393 74.0373 25.3102 73.84 25.2347C73.6294 25.1499 73.404 25.1077 73.177 25.1104C72.9496 25.1036 72.7235 25.146 72.514 25.2347C72.3167 25.3102 72.1445 25.4393 72.0168 25.6076C71.7205 25.97 71.5593 26.4241 71.561 26.8922C71.5619 27.1323 71.604 27.3706 71.6853 27.5966C71.7544 27.8108 71.8673 28.0084 72.0168 28.1767C72.1649 28.3389 72.3437 28.47 72.5428 28.5625C72.742 28.6549 72.9576 28.7069 73.177 28.7154Z" fill="black"/>
<path d="M76.7402 24.1159H78.8535C79.1483 24.1105 79.4421 24.1525 79.7237 24.2402C79.9572 24.3141 80.1701 24.4419 80.3452 24.6132C80.5158 24.7726 80.644 24.9719 80.7181 25.1933C80.803 25.4183 80.8451 25.6572 80.8424 25.8977C80.8545 26.2329 80.7681 26.5642 80.5938 26.8507C80.4349 27.1405 80.1883 27.3726 79.8894 27.5137L81.1739 29.7927H79.8065L78.7292 27.6795H78.0248V29.7927H76.7817V24.1159H76.7402ZM78.8121 26.685C79.0238 26.6864 79.2292 26.613 79.3922 26.4778C79.5269 26.331 79.601 26.1385 79.5994 25.9391C79.604 25.8399 79.588 25.7408 79.5524 25.648C79.5167 25.5553 79.4621 25.471 79.3922 25.4005C79.2326 25.2594 79.0249 25.1852 78.8121 25.1933H78.0248V26.7264H78.8121V26.685Z" fill="black"/>
<path d="M82.9557 27.4309L80.9668 24.116H82.4171L83.6602 26.2707L84.8618 24.116H86.2707L84.2817 27.4309V29.8342H82.9557V27.4309Z" fill="black"/>
<path d="M29.337 0.497154H15.2486V4.06069C14.5194 2.58389 13.312 1.39721 11.8228 0.693651C10.3337 -0.00990958 8.65024 -0.188972 7.04637 0.185585C5.4425 0.560142 4.01252 1.46628 2.98897 2.75665C1.96543 4.04702 1.40853 5.64571 1.40884 7.29274C1.41948 8.6568 1.80863 9.99113 2.53292 11.1471C3.25721 12.303 4.28821 13.2352 5.51105 13.8397H0L15.953 29.7927V14.5856H29.2956V0.497154H29.337ZM2.1547 7.29274C2.1492 5.55637 2.8337 3.88894 4.05761 2.65727C5.28151 1.42559 6.94458 0.73055 8.68094 0.725055C10.4173 0.71956 12.0847 1.40406 13.3164 2.62797C14.5481 3.85187 15.2431 5.51494 15.2486 7.2513V7.33417C15.2431 9.07053 14.5481 10.7336 13.3164 11.9575C12.0847 13.1814 10.4173 13.8659 8.68094 13.8604C6.94458 13.8549 5.28151 13.1599 4.05761 11.9282C2.8337 10.6965 2.1492 9.0291 2.1547 7.29274ZM15.2072 10.5248V13.8397H11.8508C13.3087 13.141 14.4904 11.9739 15.2072 10.5248ZM15.2072 27.9695L1.8232 14.5856H15.2072V27.9695ZM28.5497 13.8397H15.953V1.24301H28.5497V13.8397Z" fill="black"/>
</g>
<defs>
<clipPath id="clip0_1212_3056">
<rect width="86.2707" height="30" fill="white"/>
</clipPath>
</defs>
</svg>
