<svg width="576" height="78" viewBox="0 0 576 78" fill="none" xmlns="http://www.w3.org/2000/svg">
<path d="M8.65488 34L11.8549 26.6H28.6049L31.7549 34H40.3549L25.6049 0.5H14.9049L0.254883 34H8.65488ZM17.9049 12.55L19.9549 7.35H20.5049L22.5549 12.55L25.7049 19.85H14.7549L17.9049 12.55Z" fill="black"/>
<path d="M52.1045 34V17.85L51.8045 11.7H52.3045L56.5545 18L68.9045 34H76.9045V0.5H69.4045V16.65L69.7545 23.4H69.2045L64.6045 16.35L52.6045 0.5H44.6045V34H52.1045Z" fill="black"/>
<path d="M90.8838 34V0.5H83.3838V34H90.8838Z" fill="black"/>
<path d="M104.81 34V17L104.51 11.75H105.06L107.01 17L114.01 32H123.11L130.11 17L132.06 11.75H132.61L132.36 17V34H139.86V0.5H129.66L122.06 17L119.01 24.85H118.46L115.31 17L107.46 0.5H97.3096V34H104.81Z" fill="black"/>
<path d="M152.444 34L155.644 26.6H172.394L175.544 34H184.144L169.394 0.5H158.694L144.044 34H152.444ZM161.694 12.55L163.744 7.35H164.294L166.344 12.55L169.494 19.85H158.544L161.694 12.55Z" fill="black"/>
<path d="M215.844 34V27.25H195.894V0.5H188.394V34H215.844Z" fill="black"/>
<path d="M228.862 34V0.5H221.362V34H228.862Z" fill="black"/>
<path d="M250.488 34.5C261.138 34.5 265.388 29.6 265.388 24.15C265.388 19.55 262.688 15.9 255.188 14.7L245.788 13.2C242.988 12.7 241.888 12 241.888 10.05C241.888 7.9 243.538 6.85 248.938 6.85C255.588 6.85 257.238 8.2 257.238 11.4V12.1H264.788V11.8C264.788 4.75 259.988 0 249.688 0C238.438 0 234.338 5.3 234.338 10.35C234.338 15.8 237.888 18.8 243.888 19.75L253.288 21.1C256.738 21.7 257.888 22.45 257.888 24.5C257.888 26.75 256.488 27.65 250.488 27.65C243.688 27.65 242.138 26.4 242.138 23.3V22.4H234.638V22.7C234.638 30.5 240.338 34.5 250.488 34.5Z" fill="black"/>
<path d="M288.657 34V24.75H298.657C306.407 24.75 311.407 20.3 311.407 12.6C311.407 4.9 306.407 0.5 298.657 0.5H281.157V34H288.657ZM297.857 7.25C302.007 7.25 303.957 8.5 303.957 12.6C303.957 16.8 302.007 18 297.857 18H288.657V7.25H297.857Z" fill="black"/>
<path d="M333.817 34.5C345.167 34.5 352.017 27.7 352.017 17.25C352.017 6.8 345.167 0 333.817 0C322.717 0 315.817 6.8 315.817 17.25C315.817 27.7 322.717 34.5 333.817 34.5ZM333.817 27.3C326.467 27.3 323.767 24.7 323.767 17.25C323.767 9.8 326.467 7.2 333.817 7.2C341.167 7.2 344.017 9.8 344.017 17.25C344.017 24.7 341.167 27.3 333.817 27.3Z" fill="black"/>
<path d="M377.638 34V22.95L392.738 0.5H383.438L377.038 10.3L374.238 14.8H373.688L370.888 10.3L364.488 0.5H355.238L370.088 22.9V34H377.638Z" fill="black"/>
<path d="M424.115 34V27.25H404.165V0.5H396.665V34H424.115Z" fill="black"/>
<path d="M457.984 34V27.25H437.134V20.5H457.234V13.8H437.134V7.25H457.984V0.5H429.634V34H457.984Z" fill="black"/>
<path d="M480.422 34C491.172 34 497.972 27.75 497.972 17.25C497.972 6.75 491.172 0.5 480.422 0.5H464.272V34H480.422ZM480.422 7.25C487.222 7.25 489.972 9.2 489.972 17.25C489.972 25.3 487.222 27.25 480.422 27.25H471.772V7.25H480.422Z" fill="black"/>
<path d="M509.876 34L513.076 26.6H529.826L532.976 34H541.576L526.826 0.5H516.126L501.476 34H509.876ZM519.126 12.55L521.176 7.35H521.726L523.776 12.55L526.926 19.85H515.976L519.126 12.55Z" fill="black"/>
<path d="M574.175 34V27.25H553.325V20.5H573.425V13.8H553.325V7.25H574.175V0.5H545.825V34H574.175Z" fill="black"/>
<path d="M326.225 72V67.62H326.375C327.065 70.59 329.435 72.3 332.735 72.3C337.565 72.3 340.115 69.09 340.115 64.59C340.115 60.09 337.565 56.88 332.915 56.88C329.345 56.88 327.215 58.77 326.585 61.32H326.435V51.9H324.305V72H326.225ZM326.435 64.83V64.56C326.435 60.9 328.535 58.86 332.285 58.86C335.705 58.86 337.955 60.3 337.955 64.59C337.955 68.88 335.765 70.35 332.225 70.35C328.655 70.35 326.435 68.34 326.435 64.83Z" fill="black"/>
<path d="M344.683 77.1C347.143 77.1 348.523 76.35 349.603 74.07L357.643 57.18H355.303L351.193 65.97L349.603 69.63H349.423L347.773 66L343.423 57.18H341.083L348.433 71.97L347.713 73.47C347.143 74.7 346.573 75.15 345.073 75.15H342.823V77.1H344.683Z" fill="black"/>
<path d="M375.133 72L383.983 51.9H381.493L373.753 69.84H373.603L365.833 51.9H363.313L372.163 72H375.133Z" fill="black"/>
<path d="M392.942 72.3C397.802 72.3 401.012 69.09 401.012 64.59C401.012 60.09 397.802 56.88 392.942 56.88C388.112 56.88 384.902 60.09 384.902 64.59C384.902 69.09 388.112 72.3 392.942 72.3ZM392.942 70.38C388.862 70.38 387.002 68.19 387.002 64.59C387.002 61.02 388.862 58.8 392.942 58.8C397.022 58.8 398.912 61.02 398.912 64.59C398.912 68.19 397.022 70.38 392.942 70.38Z" fill="black"/>
<path d="M405.976 72V51.9H403.846V72H405.976Z" fill="black"/>
<path d="M411.689 72V65.34H416.639L421.619 72H424.109L418.409 64.26L424.139 57.18H421.619L416.669 63.39H411.689V51.9H409.559V72H411.689Z" fill="black"/>
<path d="M433.249 72.3C437.389 72.3 440.449 70.17 440.449 67.08V66.87H438.319V67.08C438.319 69.24 436.699 70.53 433.219 70.53C429.289 70.53 427.579 68.52 427.459 65.19H440.509C440.599 64.8 440.659 64.35 440.659 63.81C440.659 59.4 437.569 56.88 433.219 56.88C428.449 56.88 425.449 60.09 425.449 64.59C425.449 69.3 428.479 72.3 433.249 72.3ZM433.189 58.65C436.669 58.65 438.649 60.3 438.649 63.42C438.649 63.57 438.649 63.72 438.649 63.87H427.459C427.609 60.63 429.349 58.65 433.189 58.65Z" fill="black"/>
<path d="M445.615 72V63.96C445.615 60.63 446.935 58.74 449.935 58.74C452.515 58.74 453.565 59.97 453.565 62.49V63.63H455.695V62.16C455.695 59.4 454.195 56.88 450.775 56.88C447.685 56.88 446.005 58.86 445.555 61.23H445.405V57.18H443.485V72H445.615Z" fill="black"/>
<path d="M465.8 72V62.85H478.73V72H480.86V51.9H478.73V60.9H465.8V51.9H463.67V72H465.8Z" fill="black"/>
<path d="M491.521 72.3C495.661 72.3 498.721 70.17 498.721 67.08V66.87H496.591V67.08C496.591 69.24 494.971 70.53 491.491 70.53C487.561 70.53 485.851 68.52 485.731 65.19H498.781C498.871 64.8 498.931 64.35 498.931 63.81C498.931 59.4 495.841 56.88 491.491 56.88C486.721 56.88 483.721 60.09 483.721 64.59C483.721 69.3 486.751 72.3 491.521 72.3ZM491.461 58.65C494.941 58.65 496.921 60.3 496.921 63.42C496.921 63.57 496.921 63.72 496.921 63.87H485.731C485.881 60.63 487.621 58.65 491.461 58.65Z" fill="black"/>
<path d="M503.886 72V63.96C503.886 60.63 505.206 58.74 508.206 58.74C510.786 58.74 511.836 59.97 511.836 62.49V63.63H513.966V62.16C513.966 59.4 512.466 56.88 509.046 56.88C505.956 56.88 504.276 58.86 503.826 61.23H503.676V57.18H501.756V72H503.886Z" fill="black"/>
<path d="M518.564 72V64.83C518.564 60.9 519.974 58.83 523.574 58.83C526.694 58.83 528.074 60.36 528.074 63.66V72H530.204V64.83C530.204 60.9 531.644 58.83 535.214 58.83C538.334 58.83 539.744 60.36 539.744 63.66V72H541.874V63.36C541.874 59.61 539.864 56.88 535.994 56.88C532.274 56.88 530.504 59.25 530.084 61.8H529.934C529.454 58.92 527.594 56.88 524.294 56.88C520.604 56.88 518.894 59.16 518.474 61.65H518.354V57.18H516.434V72H518.564Z" fill="black"/>
<path d="M552.4 72.3C556.54 72.3 559.6 70.17 559.6 67.08V66.87H557.47V67.08C557.47 69.24 555.85 70.53 552.37 70.53C548.44 70.53 546.73 68.52 546.61 65.19H559.66C559.75 64.8 559.81 64.35 559.81 63.81C559.81 59.4 556.72 56.88 552.37 56.88C547.6 56.88 544.6 60.09 544.6 64.59C544.6 69.3 547.63 72.3 552.4 72.3ZM552.34 58.65C555.82 58.65 557.8 60.3 557.8 63.42C557.8 63.57 557.8 63.72 557.8 63.87H546.61C546.76 60.63 548.5 58.65 552.34 58.65Z" fill="black"/>
<path d="M569.145 72.3C572.985 72.3 575.745 70.83 575.745 68.04C575.745 65.64 574.035 64.56 570.855 64.11L567.225 63.6C564.765 63.24 563.985 62.7 563.985 61.17C563.985 59.4 565.275 58.65 568.395 58.65C572.175 58.65 573.345 59.85 573.345 62.07V62.22H575.475V62.16C575.475 58.68 572.715 56.88 568.455 56.88C564.375 56.88 561.885 58.53 561.885 61.14C561.885 63.6 563.595 64.65 566.295 65.01L570.255 65.58C572.715 65.97 573.645 66.48 573.645 68.04C573.645 69.75 572.505 70.53 569.175 70.53C565.545 70.53 564.075 69.66 564.075 67.17V66.99H561.945V67.05C561.945 70.47 564.585 72.3 569.145 72.3Z" fill="black"/>
</svg>
