<svg width="24" height="20" viewBox="0 0 24 20" fill="" xmlns="http://www.w3.org/2000/svg">
<path d="M23.5801 12.2699H9.83587C9.66934 12.2699 9.5743 12.4839 9.71695 12.5791L16.9695 19.689C17.0884 19.8079 16.9932 20.0219 16.8269 19.9982L10.0261 19.8079C9.97849 19.8079 9.93105 19.7842 9.90717 19.7603L0.0627017 10.1774C-0.00862231 10.1061 -0.0323418 9.98717 0.0627017 9.91585L9.83583 0.0476046C9.88343 0.0238855 9.93087 0 9.97848 0L16.1848 0.118928C16.3513 0.118928 16.4226 0.309181 16.3037 0.428105L9.74072 7.20509C9.6218 7.32402 9.717 7.51427 9.88337 7.51427H23.3898C23.4611 7.51427 23.5087 7.51427 23.58 7.49055C23.699 7.46683 23.794 7.56187 23.794 7.6808V12.0799C23.7703 12.1748 23.6753 12.2698 23.58 12.2698L23.5801 12.2699Z" fill=""/>
</svg>
