<svg width="80" height="30" viewBox="0 0 80 30" fill="none" xmlns="http://www.w3.org/2000/svg">
<path d="M76.0417 1.77083C75.7292 1.77083 75.5208 1.5625 75.5208 1.25C75.5208 0.9375 75.7292 0.729167 76.0417 0.729167C76.3542 0.729167 76.5625 0.9375 76.5625 1.25C76.5625 1.5625 76.3542 1.77083 76.0417 1.77083ZM79.0625 1.77083C78.75 1.77083 78.5417 1.5625 78.5417 1.25C78.5417 0.9375 78.75 0.729167 79.0625 0.729167C79.375 0.729167 79.5833 0.9375 79.5833 1.25C79.5833 1.5625 79.375 1.77083 79.0625 1.77083ZM73.125 1.77083C72.8125 1.77083 72.6042 1.5625 72.6042 1.25C72.6042 0.9375 72.8125 0.729167 73.125 0.729167C73.4375 0.729167 73.6458 0.9375 73.6458 1.25C73.5417 1.5625 73.3333 1.77083 73.125 1.77083ZM70.1042 1.77083C69.7917 1.77083 69.5833 1.5625 69.5833 1.25C69.5833 0.9375 69.7917 0.729167 70.1042 0.729167C70.4167 0.729167 70.625 0.9375 70.625 1.25C70.625 1.5625 70.3125 1.77083 70.1042 1.77083ZM67.0833 1.77083C66.7708 1.77083 66.5625 1.5625 66.5625 1.25C66.5625 0.9375 66.7708 0.729167 67.0833 0.729167C67.3958 0.729167 67.6042 0.9375 67.6042 1.25C67.6042 1.5625 67.3958 1.77083 67.0833 1.77083ZM64.0625 1.77083C63.75 1.77083 63.5417 1.5625 63.5417 1.25C63.5417 0.9375 63.75 0.729167 64.0625 0.729167C64.375 0.729167 64.5833 0.9375 64.5833 1.25C64.5833 1.5625 64.375 1.77083 64.0625 1.77083ZM61.0417 1.77083C60.7292 1.77083 60.5208 1.5625 60.5208 1.25C60.5208 0.9375 60.7292 0.729167 61.0417 0.729167C61.3542 0.729167 61.5625 0.9375 61.5625 1.25C61.5625 1.5625 61.3542 1.77083 61.0417 1.77083ZM58.0208 1.77083C57.7083 1.77083 57.5 1.5625 57.5 1.25C57.5 0.9375 57.7083 0.729167 58.0208 0.729167C58.3333 0.729167 58.5417 0.9375 58.5417 1.25C58.5417 1.5625 58.3333 1.77083 58.0208 1.77083ZM55 1.77083C54.6875 1.77083 54.4792 1.5625 54.4792 1.25C54.4792 0.9375 54.6875 0.729167 55 0.729167C55.3125 0.729167 55.5208 0.9375 55.5208 1.25C55.5208 1.5625 55.3125 1.77083 55 1.77083ZM52.0833 1.77083C51.7708 1.77083 51.5625 1.5625 51.5625 1.25C51.5625 0.9375 51.7708 0.729167 52.0833 0.729167C52.3958 0.729167 52.6042 0.9375 52.6042 1.25C52.6042 1.5625 52.2917 1.77083 52.0833 1.77083ZM49.0625 1.77083C48.75 1.77083 48.5417 1.5625 48.5417 1.25C48.5417 0.9375 48.75 0.729167 49.0625 0.729167C49.375 0.729167 49.5833 0.9375 49.5833 1.25C49.5833 1.5625 49.2708 1.77083 49.0625 1.77083ZM46.0417 1.77083C45.7292 1.77083 45.5208 1.5625 45.5208 1.25C45.5208 0.9375 45.7292 0.729167 46.0417 0.729167C46.3542 0.729167 46.5625 0.9375 46.5625 1.25C46.5625 1.5625 46.3542 1.77083 46.0417 1.77083ZM43.0208 1.77083C42.7083 1.77083 42.5 1.5625 42.5 1.25C42.5 0.9375 42.7083 0.729167 43.0208 0.729167C43.3333 0.729167 43.5417 0.9375 43.5417 1.25C43.5417 1.5625 43.3333 1.77083 43.0208 1.77083ZM40 1.77083C39.6875 1.77083 39.4792 1.5625 39.4792 1.25C39.4792 0.9375 39.6875 0.729167 40 0.729167C40.3125 0.729167 40.5208 0.9375 40.5208 1.25C40.5208 1.5625 40.3125 1.77083 40 1.77083ZM36.9792 1.77083C36.6667 1.77083 36.4583 1.5625 36.4583 1.25C36.4583 0.9375 36.6667 0.729167 36.9792 0.729167C37.2917 0.729167 37.5 0.9375 37.5 1.25C37.5 1.5625 37.2917 1.77083 36.9792 1.77083ZM34.0625 1.77083C33.75 1.77083 33.5417 1.5625 33.5417 1.25C33.5417 0.9375 33.75 0.729167 34.0625 0.729167C34.375 0.729167 34.5833 0.9375 34.5833 1.25C34.4792 1.5625 34.2708 1.77083 34.0625 1.77083ZM31.0417 1.77083C30.7292 1.77083 30.5208 1.5625 30.5208 1.25C30.5208 0.9375 30.7292 0.729167 31.0417 0.729167C31.3542 0.729167 31.5625 0.9375 31.5625 1.25C31.5625 1.5625 31.25 1.77083 31.0417 1.77083ZM28.0208 1.77083C27.7083 1.77083 27.5 1.5625 27.5 1.25C27.5 0.9375 27.7083 0.729167 28.0208 0.729167C28.3333 0.729167 28.5417 0.9375 28.5417 1.25C28.5417 1.5625 28.3333 1.77083 28.0208 1.77083Z" fill="black"/>
<path d="M27.8125 30C27.6042 30 27.3958 29.7917 27.3958 29.5833C27.3958 29.375 27.6042 29.1667 27.8125 29.1667H79.0625C79.2708 29.1667 79.4792 29.375 79.4792 29.5833C79.4792 29.7917 79.2708 30 79.0625 30H27.8125Z" fill="black"/>
<path d="M76.0417 25.9375H79.4792V25.4167H76.5625V23.75H79.1667V23.2292H76.6667V21.6667H79.4792V21.1458H76.0417V25.9375ZM73.0208 26.0417C73.8542 26.0417 74.4792 25.7292 74.8958 25.3125V23.4375H72.9167V23.9583H74.375V25.1042C74.0625 25.3125 73.5417 25.5208 73.0208 25.5208C71.875 25.5208 71.1458 24.6875 71.1458 23.5417C71.1458 22.5 71.875 21.6667 72.9167 21.6667C73.5417 21.6667 73.9583 21.875 74.375 22.1875L74.6875 21.7708C74.2708 21.3542 73.75 21.1458 72.9167 21.1458C71.5625 21.1458 70.625 22.2917 70.625 23.5417C70.625 24.8958 71.5625 26.0417 73.0208 26.0417ZM66.1458 21.7708H67.1875C68.3333 21.7708 69.1667 22.6042 69.1667 23.6458C69.1667 24.6875 68.4375 25.5208 67.1875 25.5208H66.1458V21.7708ZM65.625 25.9375H67.2917C68.75 25.9375 69.7917 24.8958 69.7917 23.6458C69.7917 22.2917 68.75 21.3542 67.2917 21.3542H65.625V25.9375ZM61.1458 25.9375H64.5833V25.4167H61.6667V23.75H64.1667V23.2292H61.6667V21.6667H64.5833V21.1458H61.25V25.9375H61.1458ZM57.0833 25.9375H60.2083V25.4167H57.6042V21.25H57.0833V25.9375ZM50.9375 25.9375H51.3542L52.6042 22.1875L53.8542 25.9375H54.2708L55.9375 21.25H55.4167L54.1667 25.1042L52.9167 21.25H52.5L51.25 25.1042L49.8958 21.25H49.375L50.9375 25.9375ZM46.4583 25.5208C45.4167 25.5208 44.5833 24.6875 44.5833 23.6458C44.5833 22.6042 45.3125 21.7708 46.4583 21.7708C47.5 21.7708 48.3333 22.6042 48.3333 23.6458C48.2292 24.6875 47.5 25.5208 46.4583 25.5208ZM46.4583 26.0417C47.9167 26.0417 48.8542 24.8958 48.8542 23.6458C48.8542 22.3958 47.9167 21.25 46.4583 21.25C45 21.25 44.0625 22.3958 44.0625 23.6458C44.0625 24.8958 45 26.0417 46.4583 26.0417ZM38.9583 25.9375H39.4792V22.0833L42.5 25.9375H42.9167V21.25H42.3958V25L39.4792 21.25H38.9583V25.9375ZM34.6875 25.9375V24.6875L35.7292 23.6458L37.5 25.9375H38.125L36.0417 23.3333L38.0208 21.25H37.2917L34.5833 24.0625V21.25H34.0625V25.9375H34.6875ZM29.0625 25.5208C28.5417 25.5208 28.125 25.1042 28.125 24.6875C28.125 24.2708 28.4375 23.9583 29.0625 23.6458L30.3125 24.8958C29.8958 25.3125 29.4792 25.5208 29.0625 25.5208ZM29.1667 23.125C28.8542 22.7083 28.75 22.5 28.75 22.2917C28.75 21.875 29.0625 21.6667 29.4792 21.6667C29.8958 21.6667 30.1042 21.9792 30.1042 22.2917C30.1042 22.7083 29.7917 22.9167 29.1667 23.125ZM31.3542 26.0417L31.7708 25.7292L30.9375 24.8958C31.1458 24.5833 31.3542 24.1667 31.5625 23.75L31.1458 23.5417C30.9375 23.9583 30.8333 24.2708 30.625 24.5833L29.5833 23.5417C30.3125 23.3333 30.7292 22.9167 30.7292 22.2917C30.7292 21.6667 30.2083 21.25 29.5833 21.25C28.8542 21.25 28.3333 21.7708 28.3333 22.3958C28.3333 22.8125 28.4375 23.0208 28.75 23.4375C28.0208 23.75 27.6042 24.1667 27.6042 24.7917C27.6042 25.5208 28.2292 26.1458 29.0625 26.1458C29.6875 26.1458 30.2083 25.8333 30.625 25.4167L31.3542 26.0417Z" fill="black"/>
<path d="M77.3958 18.2292H77.9167V14.0625H79.4792V13.5417H75.8333V14.0625H77.3958V18.2292ZM71.875 15.9375V14.0625H73.3333C74.0625 14.0625 74.5833 14.375 74.5833 15C74.5833 15.625 74.0625 15.9375 73.3333 15.9375H71.875ZM71.3542 18.2292H71.875V16.4583H73.2292L74.5833 18.2292H75.2083L73.75 16.3542C74.4792 16.25 75 15.7292 75 15C75 14.5833 74.8958 14.2708 74.6875 14.0625C74.375 13.75 73.9583 13.5417 73.3333 13.5417H71.3542V18.2292ZM66.9792 16.5625L68.0208 14.1667L69.0625 16.5625H66.9792ZM65.625 18.2292H66.1458L66.6667 16.9792H69.2708L69.7917 18.2292H70.3125L68.2292 13.5417H67.7083L65.625 18.2292ZM59.7917 18.2292H60.3125V16.1458H62.8125V15.625H60.3125V13.9583H63.125V13.5417H59.7917V18.2292ZM56.25 17.8125C55.2083 17.8125 54.375 16.9792 54.375 15.8333C54.375 14.7917 55.1042 13.9583 56.25 13.9583C57.2917 13.9583 58.125 14.7917 58.125 15.9375C58.125 16.9792 57.3958 17.8125 56.25 17.8125ZM56.25 18.3333C57.7083 18.3333 58.6458 17.1875 58.6458 15.9375C58.6458 14.6875 57.7083 13.5417 56.25 13.5417C54.7917 13.5417 53.8542 14.6875 53.8542 15.9375C53.8542 17.1875 54.7917 18.3333 56.25 18.3333ZM51.1458 18.2292V17.7083H48.2292V16.0417H50.8333V15.625H48.2292V14.0625H51.0417V13.5417H47.6042V18.2292H51.1458ZM45.1042 18.3333C46.0417 18.3333 46.6667 17.8125 46.6667 16.9792C46.6667 16.25 46.1458 15.8333 45.1042 15.625C44.0625 15.4167 43.8542 15.1042 43.8542 14.6875C43.8542 14.2708 44.2708 13.9583 44.8958 13.9583C45.4167 13.9583 45.8333 14.0625 46.25 14.4792L46.5625 14.0625C46.0417 13.6458 45.625 13.4375 44.8958 13.4375C43.9583 13.4375 43.3333 13.9583 43.3333 14.6875C43.3333 15.4167 43.8542 15.8333 44.8958 16.0417C45.8333 16.25 46.1458 16.4583 46.1458 16.9792C46.1458 17.3958 45.7292 17.8125 45.1042 17.8125C44.4792 17.8125 43.9583 17.6042 43.5417 17.1875L43.2292 17.6042C43.75 18.125 44.2708 18.3333 45.1042 18.3333ZM40.2083 18.3333C41.3542 18.3333 42.1875 17.6042 42.1875 16.25V13.5417H41.6667V16.25C41.6667 17.2917 41.1458 17.8125 40.2083 17.8125C39.2708 17.8125 38.75 17.2917 38.75 16.25V13.5417H38.2292V16.25C38.3333 17.6042 39.0625 18.3333 40.2083 18.3333ZM34.8958 17.8125C33.8542 17.8125 33.0208 16.9792 33.0208 15.8333C33.0208 14.7917 33.75 13.9583 34.8958 13.9583C35.9375 13.9583 36.7708 14.7917 36.7708 15.9375C36.6667 16.9792 35.9375 17.8125 34.8958 17.8125ZM34.8958 18.3333C36.3542 18.3333 37.2917 17.1875 37.2917 15.9375C37.2917 14.6875 36.3542 13.5417 34.8958 13.5417C33.4375 13.5417 32.5 14.6875 32.5 15.9375C32.5 17.1875 33.4375 18.3333 34.8958 18.3333ZM27.6042 18.2292H28.125V16.1458H30.8333V18.2292H31.3542V13.5417H30.8333V15.625H28.125V13.5417H27.6042V18.2292Z" fill="black"/>
<path d="M77.3958 10.2083V8.02083L79.4792 4.6875H78.125L76.7708 6.875L75.4167 4.6875H73.9583L76.0417 8.02083V10.2083H77.3958ZM73.5417 10.2083V9.16667H70.5208V8.02083H73.125V6.97917H70.5208V5.83333H73.4375V4.79167H69.2708V10.2083H73.5417ZM64.375 10.2083V6.66667L66.9792 10.1042H68.0208V4.6875H66.875V8.02083L64.2708 4.6875H63.125V10.2083H64.375ZM59.0625 7.91667L59.7917 6.14583L60.5208 7.91667H59.0625ZM56.875 10.2083H58.125L58.6458 8.95833H60.9375L61.4583 10.2083H62.7083L60.3125 4.6875H59.1667L56.875 10.2083ZM52.0833 10.2083H56.25V9.16667H53.2292V8.02083H55.8333V6.97917H53.2292V5.83333H56.25V4.79167H52.0833V10.2083ZM47.6042 9.16667V7.91667H48.9583C49.5833 7.91667 49.8958 8.125 49.8958 8.54167C49.8958 8.95833 49.5833 9.16667 49.0625 9.16667H47.6042ZM47.6042 6.97917V5.72917H48.75C49.2708 5.72917 49.5833 5.9375 49.5833 6.25C49.5833 6.66667 49.2708 6.875 48.75 6.875H47.6042V6.97917ZM46.4583 10.2083H49.0625C50.3125 10.2083 51.1458 9.6875 51.1458 8.75C51.1458 8.02083 50.7292 7.60417 50.1042 7.39583C50.5208 7.1875 50.8333 6.875 50.8333 6.25C50.8333 5.83333 50.7292 5.52083 50.4167 5.3125C50.1042 5 49.5833 4.79167 48.9583 4.79167H46.4583V10.2083ZM43.125 10.2083V9.16667H40.1042V8.02083H42.7083V6.97917H40.1042V5.83333H43.0208V4.79167H38.8542V10.2083H43.125ZM33.0208 10.2083H34.2708V8.02083H36.4583V10.2083H37.7083V4.6875H36.4583V6.875H34.2708V4.6875H33.0208V10.2083ZM29.2708 10.2083H30.5208V5.83333H32.1875V4.6875H27.6042V5.83333H29.2708V10.2083Z" fill="black"/>
<path d="M1.875 30H14.4792C20 30 24.4792 25.5208 24.4792 20C24.4792 16.3542 22.5 13.2292 19.6875 11.4583C20.5208 10.3125 21.0417 8.75 21.0417 7.1875C21.0417 3.22917 17.8125 0 13.8542 0H1.875C1.875 0 0 0 0 1.875V28.125C0 30 1.875 30 1.875 30Z" fill="black"/>
</svg>
