<svg width="50" height="51" viewBox="0 0 50 51" fill="none" xmlns="http://www.w3.org/2000/svg">
<path d="M25.0333 50.0666C11.2517 50.0666 0 38.8817 0 25.0333C0 11.1848 11.1848 0 25.0333 0C38.8815 0 50 11.1848 50 25.0333C50 38.8817 38.8147 50.0666 25.0333 50.0666ZM25.0333 2.13049C12.3835 2.13049 2.13049 12.3833 2.13049 25.0333C2.13049 37.6831 12.3833 47.9361 25.0333 47.9361C37.6831 47.9361 47.9361 37.6828 47.9361 25.0333C47.9361 12.3837 37.6828 2.13049 25.0333 2.13049Z" fill="#F0F0F0"/>
<path d="M14.8849 16.421L16.344 14.9619L35.0809 33.6988L33.6218 35.158L14.8849 16.421Z" fill="#F0F0F0"/>
<path d="M14.9325 33.6979L33.6694 14.9609L35.1285 16.4201L16.3916 35.157L14.9325 33.6979Z" fill="#F0F0F0"/>
</svg>
