<svg width="20" height="15" viewBox="0 0 20 15" fill="" xmlns="http://www.w3.org/2000/svg">
<path d="M16.9309 1.24404C15.656 0.669081 14.2894 0.244109 12.8603 0.00245831C12.8476 1.50672e-05 12.8344 0.00158958 12.8226 0.00696413C12.8108 0.0123387 12.801 0.0212473 12.7945 0.0324563C12.6195 0.339936 12.4245 0.740743 12.2878 1.05739C10.7722 0.830935 9.2313 0.830935 7.71564 1.05739C7.56343 0.706463 7.39179 0.364288 7.20151 0.0324563C7.19506 0.0211093 7.1853 0.0119992 7.17354 0.0063415C7.16178 0.000683842 7.14857 -0.00125226 7.13568 0.000791676C5.70744 0.242442 4.34086 0.667415 3.06511 1.24321C3.05414 1.24781 3.04483 1.25566 3.03845 1.26571C0.445286 5.07796 -0.265501 8.79605 0.0836428 12.4675C0.0846143 12.4765 0.0874055 12.4852 0.0918463 12.493C0.0962872 12.5009 0.102285 12.5078 0.109474 12.5133C1.62304 13.6153 3.31121 14.4547 5.10331 14.9965C5.11581 15.0003 5.12917 15.0003 5.14165 14.9964C5.15414 14.9926 5.16517 14.985 5.17331 14.9748C5.55828 14.4582 5.90159 13.9124 6.19491 13.3391C6.21241 13.3058 6.19574 13.2658 6.16074 13.2524C5.62245 13.0497 5.10088 12.8051 4.60085 12.5208C4.59186 12.5157 4.58429 12.5084 4.57881 12.4996C4.57333 12.4908 4.57012 12.4808 4.56946 12.4705C4.5688 12.4602 4.57071 12.4499 4.57503 12.4405C4.57934 12.4311 4.58592 12.4229 4.59418 12.4166C4.69917 12.3391 4.80417 12.2583 4.90416 12.1775C4.91316 12.1702 4.924 12.1656 4.93548 12.1641C4.94695 12.1627 4.95861 12.1644 4.96916 12.1692C8.24144 13.6391 11.7854 13.6391 15.0193 12.1692C15.0299 12.1641 15.0417 12.1621 15.0533 12.1635C15.065 12.1648 15.076 12.1694 15.0852 12.1767C15.1852 12.2583 15.2893 12.3391 15.3951 12.4166C15.4035 12.4227 15.4102 12.4308 15.4146 12.4401C15.4191 12.4495 15.4211 12.4597 15.4206 12.4701C15.4202 12.4804 15.4171 12.4904 15.4118 12.4993C15.4065 12.5081 15.399 12.5155 15.3901 12.5208C14.8918 12.8075 14.3735 13.0499 13.8294 13.2516C13.8211 13.2546 13.8134 13.2594 13.8071 13.2656C13.8007 13.2718 13.7958 13.2793 13.7925 13.2876C13.7893 13.2959 13.7879 13.3048 13.7883 13.3136C13.7888 13.3225 13.7912 13.3312 13.7952 13.3391C14.0952 13.9115 14.4385 14.4565 14.816 14.974C14.8239 14.9846 14.8348 14.9925 14.8473 14.9967C14.8598 15.0009 14.8734 15.0011 14.886 14.9973C16.6812 14.457 18.3721 13.6172 19.8873 12.5133C19.8947 12.5081 19.9009 12.5014 19.9055 12.4937C19.9101 12.4859 19.913 12.4773 19.914 12.4683C20.3306 8.22359 19.2157 4.53549 16.9567 1.26738C16.9512 1.25675 16.942 1.24848 16.9309 1.24404ZM6.68404 10.2318C5.69911 10.2318 4.88666 9.34101 4.88666 8.24858C4.88666 7.15532 5.68328 6.26538 6.68404 6.26538C7.69231 6.26538 8.49726 7.16282 8.48143 8.24858C8.48143 9.34184 7.68481 10.2318 6.68404 10.2318ZM13.3294 10.2318C12.3437 10.2318 11.5321 9.34101 11.5321 8.24858C11.5321 7.15532 12.3278 6.26538 13.3294 6.26538C14.3377 6.26538 15.1427 7.16282 15.1268 8.24858C15.1268 9.34184 14.3385 10.2318 13.3294 10.2318Z" fill=""/>
</svg>
