<svg width="9" height="15" viewBox="0 0 9 15" fill="none" xmlns="http://www.w3.org/2000/svg">
<path d="M2.76982 14.9999H7.68565C7.77021 14.9999 7.83868 14.9314 7.83868 14.8469C7.83868 13.9775 8.00757 13.1297 8.34076 12.3264L8.35614 12.2892C8.70473 11.4486 8.88137 10.5612 8.88137 9.65153V7.97594C8.88137 7.4809 8.47854 7.07783 7.9835 7.07783C7.75589 7.07783 7.55025 7.16568 7.39192 7.30579V7.19387C7.39192 6.69883 6.98909 6.29612 6.49405 6.29612C6.25481 6.29612 6.03837 6.3916 5.87721 6.54464C5.7849 6.14707 5.4295 5.84923 5.00436 5.84923C4.77675 5.84923 4.57111 5.93708 4.41278 6.07708V3.80497C4.41278 3.30993 4.00995 2.90723 3.51491 2.90723C3.01987 2.90723 2.61704 3.30996 2.61704 3.80497V9.69585C2.34445 9.08256 1.92729 8.56602 1.51211 8.11903C1.34592 7.93969 1.11126 7.84573 0.867909 7.86217C0.626321 7.87803 0.407415 8.00064 0.267066 8.19855C0.103111 8.43027 0.0730453 8.72354 0.186614 8.98298C0.238527 9.10172 0.293022 9.21916 0.348924 9.33989C0.554925 9.78418 0.788402 10.2876 0.987831 11.0766C1.35344 12.5223 2.29394 13.0303 2.61715 13.1651L2.61691 14.8469C2.61691 14.9314 2.68538 14.9999 2.76995 14.9999L2.76982 14.9999ZM1.28437 11.0017C1.0779 10.185 0.838068 9.66774 0.626311 9.21158C0.571347 9.09261 0.51779 8.97716 0.466702 8.86065C0.39647 8.7001 0.415144 8.519 0.516618 8.37571C0.603175 8.25345 0.73859 8.17746 0.887755 8.16759C1.03914 8.15984 1.18419 8.21598 1.28743 8.3272C1.94464 9.03517 2.61668 9.91764 2.61668 11.0946C2.61668 11.1791 2.68515 11.2476 2.76971 11.2476C2.85428 11.2476 2.92275 11.1791 2.92275 11.0946V3.80503C2.92275 3.47887 3.18817 3.21345 3.51457 3.21345C3.84085 3.21345 4.10639 3.47888 4.10639 3.80503V8.49747C4.10639 8.58203 4.17486 8.6505 4.25942 8.6505C4.34398 8.6505 4.41245 8.58203 4.41245 8.49747V6.74704C4.41245 6.42088 4.67788 6.15546 5.00404 6.15546C5.33032 6.15546 5.59586 6.42089 5.59586 6.74704V8.75796C5.59586 8.84252 5.66433 8.91099 5.74889 8.91099C5.83345 8.91099 5.90192 8.84252 5.90192 8.75796V7.19392C5.90192 6.86776 6.16735 6.60233 6.49375 6.60233C6.82003 6.60233 7.08557 6.86776 7.08557 7.19392V9.20495C7.08557 9.28952 7.15404 9.35799 7.2386 9.35799C7.32316 9.35799 7.39163 9.28952 7.39163 9.20495V7.976C7.39163 7.64951 7.65706 7.38405 7.98321 7.38405C8.30949 7.38405 8.57504 7.64948 8.57504 7.976V9.65159C8.57504 10.5207 8.40615 11.3688 8.07308 12.1721L8.0577 12.2092C7.72895 13.0025 7.55292 13.8377 7.53424 14.6939H2.92299V13.0592C2.92299 12.9919 2.87859 12.9325 2.81411 12.9127C2.76808 12.8984 1.67524 12.5474 1.2845 11.0018L1.28437 11.0017Z" fill="white"/>
<path d="M5.67031 4.1025C5.74371 4.14431 5.83744 4.11776 5.87878 4.04448C6.10791 3.63822 6.22911 3.17842 6.22911 2.71441C6.22923 1.21756 5.01155 0 3.51482 0C2.01797 0 0.800171 1.21768 0.800171 2.71453C0.800171 3.17857 0.921374 3.63858 1.15074 4.0446C1.17905 4.09428 1.23084 4.12235 1.28428 4.12235C1.30988 4.12235 1.3356 4.11612 1.35944 4.10262C1.43297 4.06104 1.45904 3.96744 1.41746 3.89391C1.21393 3.53372 1.10634 3.12593 1.10634 2.71451C1.10634 1.38642 2.18674 0.306052 3.51479 0.306052C4.84276 0.306052 5.92304 1.38645 5.92304 2.71442C5.92304 3.12584 5.81557 3.5336 5.61215 3.89382C5.57058 3.9677 5.59665 4.06095 5.67029 4.10253L5.67031 4.1025Z" fill="white"/>
<path d="M2.04611 2.71453C2.04611 2.79909 2.11458 2.86756 2.19914 2.86756C2.2837 2.86756 2.35217 2.79909 2.35217 2.71453C2.35217 2.07364 2.87352 1.55217 3.51453 1.55217C4.15542 1.55217 4.67689 2.07352 4.67689 2.71453C4.67689 2.79909 4.74536 2.86756 4.82992 2.86756C4.91448 2.86756 4.98295 2.79909 4.98295 2.71453C4.98295 1.90497 4.3242 1.24609 3.51452 1.24609C2.70483 1.24609 2.04608 1.90497 2.04608 2.71453H2.04611Z" fill="white"/>
</svg>
