<svg width="248" height="37" viewBox="0 0 248 37" fill="" xmlns="http://www.w3.org/2000/svg">
<path d="M4.38878 15.9039V9.61252H12.5775V15.9039H16.0869V0.233881H12.5775V6.45512H4.38878V0.233881H0.879333V15.9039H4.38878Z" fill=""/>
<path d="M22.6489 15.9039V0.233881H19.1394V15.9039H22.6489Z" fill=""/>
<path d="M33.3998 15.9039C38.43 15.9039 41.6119 12.9804 41.6119 8.0689C41.6119 3.1574 38.43 0.233881 33.3998 0.233881H25.8428V15.9039H33.3998ZM33.3998 3.39128C36.5817 3.39128 37.8685 4.30341 37.8685 8.0689C37.8685 11.8344 36.5817 12.7465 33.3998 12.7465H29.3523V3.39128H33.3998Z" fill=""/>
<path d="M52.0483 15.9039C57.0785 15.9039 60.2604 12.9804 60.2604 8.0689C60.2604 3.1574 57.0785 0.233881 52.0483 0.233881H44.4913V15.9039H52.0483ZM52.0483 3.39128C55.2302 3.39128 56.517 4.30341 56.517 8.0689C56.517 11.8344 55.2302 12.7465 52.0483 12.7465H48.0008V3.39128H52.0483Z" fill=""/>
<path d="M76.2183 15.9039V12.7465H66.4621V9.58913H75.8674V6.45512H66.4621V3.39128H76.2183V0.233881H62.9526V15.9039H76.2183Z" fill=""/>
<path d="M82.4831 15.9039V8.34956L82.3427 5.47282H82.5766L84.5653 8.41972L90.3442 15.9039H94.0876V0.233881H90.5782V7.78824L90.7419 10.9456H90.4846L88.3321 7.64791L82.717 0.233881H78.9736V15.9039H82.4831Z" fill=""/>
<path d="M105.409 15.9039V11.5771H110.088C113.714 11.5771 116.054 9.49557 116.054 5.8938C116.054 2.29204 113.714 0.233881 110.088 0.233881H101.899V15.9039H105.409ZM109.714 3.39128C111.655 3.39128 112.568 3.97598 112.568 5.8938C112.568 7.85841 111.655 8.41972 109.714 8.41972H105.409V3.39128H109.714Z" fill=""/>
<path d="M126.54 16.1378C131.851 16.1378 135.057 12.957 135.057 8.0689C135.057 3.18078 131.851 0 126.54 0C121.346 0 118.118 3.18078 118.118 8.0689C118.118 12.957 121.346 16.1378 126.54 16.1378ZM126.54 12.7699C123.101 12.7699 121.838 11.5537 121.838 8.0689C121.838 4.58407 123.101 3.36789 126.54 3.36789C129.98 3.36789 131.313 4.58407 131.313 8.0689C131.313 11.5537 129.98 12.7699 126.54 12.7699Z" fill=""/>
<path d="M141.266 15.9039V10.2206H143.582C145.407 10.2206 145.992 10.6182 146.624 11.8344L148.776 15.9039H152.847L150.578 11.6941C149.993 10.5948 149.455 9.8464 148.051 9.47219V9.28508C150.999 9.00442 152.473 7.4842 152.473 4.93489C152.473 1.94121 150.274 0.233881 146.413 0.233881H137.757V15.9039H141.266ZM141.266 3.39128H146.39C148.051 3.39128 148.8 3.9292 148.8 5.47282C148.8 7.10999 148.051 7.57775 146.39 7.57775H141.266V3.39128Z" fill=""/>
<path d="M163.853 15.9039V3.39128H169.678V0.233881H154.518V3.39128H160.343V15.9039H163.853Z" fill=""/>
<path d="M175.616 15.9039V10.2206H177.932C179.757 10.2206 180.342 10.6182 180.974 11.8344L183.126 15.9039H187.197L184.928 11.6941C184.343 10.5948 183.805 9.8464 182.401 9.47219V9.28508C185.349 9.00442 186.823 7.4842 186.823 4.93489C186.823 1.94121 184.623 0.233881 180.763 0.233881H172.106V15.9039H175.616ZM175.616 3.39128H180.74C182.401 3.39128 183.149 3.9292 183.149 5.47282C183.149 7.10999 182.401 7.57775 180.74 7.57775H175.616V3.39128Z" fill=""/>
<path d="M192.353 15.9039L193.851 12.4425H201.688L203.162 15.9039H207.186L200.285 0.233881H195.278L188.423 15.9039H192.353ZM196.681 5.87042L197.641 3.43805H197.898L198.857 5.87042L200.331 9.28508H195.208L196.681 5.87042Z" fill=""/>
<path d="M212.684 15.9039V0.233881H209.175V15.9039H212.684Z" fill=""/>
<path d="M224.418 15.9039V3.39128H230.244V0.233881H215.083V3.39128H220.909V15.9039H224.418Z" fill=""/>
<path d="M239.784 16.1378C244.768 16.1378 246.756 13.8458 246.756 11.2965C246.756 9.14475 245.493 7.43742 241.983 6.87611L237.585 6.17446C236.275 5.94058 235.76 5.61315 235.76 4.70101C235.76 3.69532 236.532 3.20417 239.059 3.20417C242.171 3.20417 242.943 3.83565 242.943 5.33249V5.65992H246.476V5.51959C246.476 2.22187 244.23 0 239.41 0C234.146 0 232.227 2.47914 232.227 4.84134C232.227 7.39064 233.888 8.79393 236.696 9.23831L241.094 9.86978C242.709 10.1504 243.247 10.5013 243.247 11.4602C243.247 12.5126 242.592 12.9336 239.784 12.9336C236.602 12.9336 235.877 12.3489 235.877 10.8989V10.4779H232.368V10.6182C232.368 14.2668 235.035 16.1378 239.784 16.1378Z" fill=""/>
<path d="M130.364 34.6144V32.5656H130.434C130.757 33.9549 131.866 34.7547 133.41 34.7547C135.67 34.7547 136.863 33.2532 136.863 31.1483C136.863 29.0434 135.67 27.5418 133.494 27.5418C131.824 27.5418 130.827 28.4259 130.532 29.6187H130.462V25.2124H129.465V34.6144H130.364ZM130.462 31.2606V31.1343C130.462 29.4223 131.445 28.468 133.199 28.468C134.8 28.468 135.853 29.1416 135.853 31.1483C135.853 33.155 134.828 33.8426 133.171 33.8426C131.501 33.8426 130.462 32.9024 130.462 31.2606Z" fill=""/>
<path d="M139.001 37C140.152 37 140.797 36.6492 141.303 35.5827L145.065 27.6822H143.97L142.047 31.7938L141.303 33.5058H141.219L140.447 31.8078L138.411 27.6822H137.316L140.755 34.6004L140.418 35.302C140.152 35.8774 139.885 36.0879 139.183 36.0879H138.13V37H139.001Z" fill=""/>
<path d="M153.249 34.6144L157.39 25.2124H156.225L152.604 33.604H152.533L148.898 25.2124H147.718L151.86 34.6144H153.249Z" fill=""/>
<path d="M161.582 34.7547C163.857 34.7547 165.359 33.2532 165.359 31.1483C165.359 29.0434 163.857 27.5418 161.582 27.5418C159.322 27.5418 157.82 29.0434 157.82 31.1483C157.82 33.2532 159.322 34.7547 161.582 34.7547ZM161.582 33.8566C159.673 33.8566 158.803 32.8322 158.803 31.1483C158.803 29.4784 159.673 28.4399 161.582 28.4399C163.492 28.4399 164.376 29.4784 164.376 31.1483C164.376 32.8322 163.492 33.8566 161.582 33.8566Z" fill=""/>
<path d="M167.681 34.6144V25.2124H166.685V34.6144H167.681Z" fill=""/>
<path d="M170.355 34.6144V31.4991H172.671L175.001 34.6144H176.166L173.499 30.9939L176.18 27.6822H175.001L172.685 30.587H170.355V25.2124H169.358V34.6144H170.355Z" fill=""/>
<path d="M180.443 34.7547C182.381 34.7547 183.812 33.7584 183.812 32.313V32.2148H182.816V32.313C182.816 33.3234 182.058 33.9268 180.429 33.9268C178.59 33.9268 177.79 32.9866 177.734 31.4289H183.84C183.883 31.2465 183.911 31.036 183.911 30.7834C183.911 28.7206 182.465 27.5418 180.429 27.5418C178.197 27.5418 176.794 29.0434 176.794 31.1483C176.794 33.3515 178.211 34.7547 180.443 34.7547ZM180.415 28.3698C182.044 28.3698 182.97 29.1416 182.97 30.601C182.97 30.6712 182.97 30.7413 182.97 30.8115H177.734C177.804 29.296 178.618 28.3698 180.415 28.3698Z" fill=""/>
<path d="M186.229 34.6144V30.8536C186.229 29.296 186.847 28.4119 188.251 28.4119C189.458 28.4119 189.949 28.9872 189.949 30.166V30.6992H190.946V30.0116C190.946 28.7206 190.244 27.5418 188.644 27.5418C187.198 27.5418 186.412 28.468 186.201 29.5766H186.131V27.6822H185.233V34.6144H186.229Z" fill=""/>
<path d="M195.675 34.6144V30.3344H201.725V34.6144H202.722V25.2124H201.725V29.4223H195.675V25.2124H194.678V34.6144H195.675Z" fill=""/>
<path d="M207.71 34.7547C209.647 34.7547 211.079 33.7584 211.079 32.313V32.2148H210.082V32.313C210.082 33.3234 209.324 33.9268 207.696 33.9268C205.857 33.9268 205.057 32.9866 205.001 31.4289H211.107C211.149 31.2465 211.177 31.036 211.177 30.7834C211.177 28.7206 209.732 27.5418 207.696 27.5418C205.464 27.5418 204.06 29.0434 204.06 31.1483C204.06 33.3515 205.478 34.7547 207.71 34.7547ZM207.682 28.3698C209.31 28.3698 210.237 29.1416 210.237 30.601C210.237 30.6712 210.237 30.7413 210.237 30.8115H205.001C205.071 29.296 205.885 28.3698 207.682 28.3698Z" fill=""/>
<path d="M213.496 34.6144V30.8536C213.496 29.296 214.114 28.4119 215.518 28.4119C216.725 28.4119 217.216 28.9872 217.216 30.166V30.6992H218.213V30.0116C218.213 28.7206 217.511 27.5418 215.911 27.5418C214.465 27.5418 213.679 28.468 213.468 29.5766H213.398V27.6822H212.499V34.6144H213.496Z" fill=""/>
<path d="M220.364 34.6144V31.2606C220.364 29.4223 221.024 28.454 222.708 28.454C224.168 28.454 224.814 29.1697 224.814 30.7133V34.6144H225.811V31.2606C225.811 29.4223 226.485 28.454 228.155 28.454C229.615 28.454 230.275 29.1697 230.275 30.7133V34.6144H231.271V30.5729C231.271 28.8188 230.331 27.5418 228.52 27.5418C226.779 27.5418 225.951 28.6504 225.755 29.8432H225.684C225.46 28.4961 224.59 27.5418 223.045 27.5418C221.319 27.5418 220.519 28.6083 220.322 29.7731H220.266V27.6822H219.367V34.6144H220.364Z" fill=""/>
<path d="M236.197 34.7547C238.134 34.7547 239.566 33.7584 239.566 32.313V32.2148H238.569V32.313C238.569 33.3234 237.811 33.9268 236.183 33.9268C234.344 33.9268 233.544 32.9866 233.488 31.4289H239.594C239.636 31.2465 239.664 31.036 239.664 30.7834C239.664 28.7206 238.218 27.5418 236.183 27.5418C233.951 27.5418 232.547 29.0434 232.547 31.1483C232.547 33.3515 233.965 34.7547 236.197 34.7547ZM236.169 28.3698C237.797 28.3698 238.724 29.1416 238.724 30.601C238.724 30.6712 238.724 30.7413 238.724 30.8115H233.488C233.558 29.296 234.372 28.3698 236.169 28.3698Z" fill=""/>
<path d="M244.032 34.7547C245.829 34.7547 247.121 34.0671 247.121 32.7621C247.121 31.6394 246.321 31.1343 244.833 30.9238L243.134 30.6852C241.983 30.5168 241.618 30.2642 241.618 29.5485C241.618 28.7206 242.222 28.3698 243.681 28.3698C245.45 28.3698 245.998 28.9311 245.998 29.9695V30.0397H246.994V30.0116C246.994 28.3838 245.703 27.5418 243.71 27.5418C241.8 27.5418 240.635 28.3137 240.635 29.5345C240.635 30.6852 241.435 31.1764 242.699 31.3448L244.552 31.6114C245.703 31.7938 246.138 32.0324 246.138 32.7621C246.138 33.5619 245.605 33.9268 244.046 33.9268C242.348 33.9268 241.66 33.5198 241.66 32.3551V32.2709H240.663V32.299C240.663 33.8987 241.899 34.7547 244.032 34.7547Z" fill=""/>
</svg>
