<svg width="15" height="15" viewBox="0 0 15 15" fill="" xmlns="http://www.w3.org/2000/svg">
<path d="M7.49859 4.99894C6.12141 4.99894 4.99752 6.12282 4.99752 7.5C4.99752 8.87718 6.12141 10.0011 7.49859 10.0011C8.87577 10.0011 9.99965 8.87718 9.99965 7.5C9.99965 6.12282 8.87577 4.99894 7.49859 4.99894ZM14.9999 7.5C14.9999 6.4643 15.0093 5.43798 14.9511 4.40416C14.893 3.20335 14.619 2.13763 13.7409 1.25953C12.861 0.379564 11.7971 0.107505 10.5963 0.049341C9.56061 -0.00882328 8.53429 0.000558085 7.50046 0.000558085C6.46477 0.000558085 5.43845 -0.00882328 4.40462 0.049341C3.20381 0.107505 2.13809 0.38144 1.26 1.25953C0.38003 2.1395 0.107971 3.20335 0.0498064 4.40416C-0.00835789 5.43986 0.00102348 6.46618 0.00102348 7.5C0.00102348 8.53382 -0.00835789 9.56202 0.0498064 10.5958C0.107971 11.7967 0.381906 12.8624 1.26 13.7405C2.13997 14.6204 3.20381 14.8925 4.40462 14.9507C5.44032 15.0088 6.46664 14.9994 7.50046 14.9994C8.53617 14.9994 9.56248 15.0088 10.5963 14.9507C11.7971 14.8925 12.8628 14.6186 13.7409 13.7405C14.6209 12.8605 14.893 11.7967 14.9511 10.5958C15.0112 9.56202 14.9999 8.5357 14.9999 7.5ZM7.49859 11.3482C5.36903 11.3482 3.65036 9.62956 3.65036 7.5C3.65036 5.37044 5.36903 3.65177 7.49859 3.65177C9.62815 3.65177 11.3468 5.37044 11.3468 7.5C11.3468 9.62956 9.62815 11.3482 7.49859 11.3482ZM11.5044 4.3929C11.0072 4.3929 10.6057 3.99138 10.6057 3.49417C10.6057 2.99696 11.0072 2.59544 11.5044 2.59544C12.0016 2.59544 12.4032 2.99696 12.4032 3.49417C12.4033 3.61223 12.3802 3.72917 12.335 3.83827C12.2899 3.94738 12.2237 4.04651 12.1403 4.13C12.0568 4.21348 11.9576 4.27968 11.8485 4.32479C11.7394 4.3699 11.6225 4.39305 11.5044 4.3929Z" fill=""/>
</svg>
