<svg width="114" height="30" viewBox="0 0 114 30" fill="none" xmlns="http://www.w3.org/2000/svg">
<path d="M13.0795 14.7872L14.7354 12.7298C14.7521 12.7131 14.7689 12.6964 14.7689 12.6629C14.7856 12.6462 14.7856 12.6128 14.7856 12.596C14.7856 12.5793 14.7689 12.5458 14.7521 12.5291C14.7354 12.5124 14.702 12.5124 14.6685 12.5124H13.414C13.3639 12.5124 13.3137 12.5124 13.2635 12.5291C13.2133 12.5458 13.1799 12.5793 13.1297 12.6462L11.6913 14.5195V12.6964C11.6913 12.6629 11.6745 12.6295 11.6578 12.6128C11.6411 12.596 11.6243 12.5793 11.6076 12.5626C11.5909 12.5458 11.5742 12.5291 11.5407 12.5291C11.524 12.5291 11.4905 12.5124 11.4905 12.5124H10.4535C10.4033 12.5124 10.3532 12.5291 10.3197 12.5626C10.2863 12.596 10.2695 12.6462 10.2695 12.6964V17.5804C10.2695 17.6975 10.3364 17.7644 10.4535 17.7644H11.4905C11.6076 17.7644 11.6745 17.6975 11.6745 17.5804V16.443L12.1596 15.8576L13.2802 17.5971C13.3137 17.6473 13.3471 17.6808 13.3806 17.7142C13.414 17.7477 13.4642 17.7644 13.5311 17.7644H14.8525C14.9361 17.7644 14.9529 17.731 14.9696 17.6975C14.9863 17.664 14.9696 17.6139 14.9361 17.547L13.0795 14.7872Z" fill="#373737"/>
<path d="M20.9169 12.5232H19.9133C19.8632 12.5232 19.813 12.54 19.7795 12.5734C19.7461 12.6069 19.7293 12.6571 19.7293 12.7072V15.6678C19.7293 15.8183 19.7126 15.9521 19.6624 16.0692C19.6123 16.1863 19.5621 16.2866 19.4785 16.3535C19.4115 16.4372 19.3112 16.4873 19.2108 16.5208C19.1105 16.5542 19.0101 16.5877 18.893 16.5877C18.7927 16.5877 18.6756 16.571 18.5752 16.5375C18.4749 16.5041 18.3913 16.4539 18.3076 16.387C18.2407 16.3201 18.1738 16.2197 18.1236 16.1026C18.0735 15.9856 18.0567 15.8518 18.0567 15.6845V12.724C18.0567 12.6738 18.04 12.6236 18.0233 12.5902C17.9898 12.5567 17.9564 12.54 17.8727 12.54H16.8023C16.7521 12.54 16.7186 12.5567 16.6852 12.6069C16.6517 12.6403 16.635 12.6905 16.635 12.7407V15.651C16.635 16.0525 16.7019 16.4037 16.819 16.6713C16.9361 16.9557 17.1033 17.1731 17.3041 17.3571C17.5048 17.5244 17.7557 17.6582 18.0233 17.7418C18.2909 17.8254 18.5752 17.8589 18.8763 17.8589C19.1774 17.8589 19.4617 17.8254 19.7293 17.7418C19.997 17.6749 20.2479 17.5411 20.4486 17.3738C20.6493 17.2066 20.8165 16.9724 20.9336 16.6881C21.0507 16.4037 21.1176 16.0525 21.1176 15.651V12.7072C21.1176 12.6571 21.1009 12.6236 21.0674 12.5734C21.034 12.54 20.9838 12.5232 20.9169 12.5232Z" fill="#373737"/>
<path d="M27.6931 12.571C27.6429 12.5375 27.6094 12.5208 27.5593 12.5208H26.5891C26.5222 12.5208 26.4721 12.5375 26.4386 12.571C26.4052 12.6045 26.3884 12.6546 26.3884 12.7048V15.4144L24.6991 12.6881C24.6322 12.571 24.5318 12.5208 24.4315 12.5208H23.2941C23.2272 12.5208 23.1937 12.5375 23.1603 12.571C23.1268 12.6045 23.1101 12.6546 23.1101 12.7048V17.5721C23.1101 17.6892 23.177 17.7561 23.2941 17.7561H24.2642C24.398 17.7561 24.4649 17.6892 24.4649 17.5721V14.6785L26.2713 17.5888C26.3383 17.7059 26.4386 17.7561 26.5557 17.7561H27.576C27.7098 17.7561 27.7767 17.6892 27.7767 17.5721V12.7048C27.7767 12.6546 27.7432 12.6045 27.6931 12.571Z" fill="#373737"/>
<path d="M33.1681 15.034C33.0176 14.9169 32.8336 14.7998 32.6162 14.7162C32.3987 14.6326 32.1813 14.5322 31.9304 14.4653C31.7966 14.4151 31.6962 14.3817 31.5959 14.3482C31.4955 14.3148 31.4286 14.2813 31.3617 14.2312C31.2948 14.1977 31.2614 14.1475 31.2279 14.1141C31.1945 14.0806 31.1777 14.0137 31.1777 13.9635C31.1777 13.9134 31.1945 13.8632 31.2112 13.813C31.2446 13.7795 31.2781 13.7461 31.3283 13.7126C31.3784 13.6792 31.4286 13.6625 31.4955 13.6625C31.5624 13.6457 31.6293 13.6457 31.713 13.6457C31.7799 13.6457 31.8468 13.6625 31.9304 13.6792C31.9973 13.6959 32.0642 13.7294 32.1311 13.7628C32.198 13.7963 32.2482 13.8297 32.3151 13.8799C32.3653 13.9134 32.4155 13.9635 32.4656 13.997L32.4991 14.0304C32.5325 14.0639 32.566 14.0806 32.5827 14.0973C32.6162 14.1141 32.6496 14.1308 32.6831 14.1308C32.7333 14.1308 32.7834 14.1141 32.8336 14.0639L33.3689 13.4952C33.4023 13.4618 33.419 13.4283 33.4358 13.3948C33.4525 13.3614 33.4692 13.3279 33.4692 13.2945C33.4692 13.261 33.4525 13.2109 33.419 13.1607C33.3856 13.1105 33.3354 13.0771 33.2852 13.0269C33.235 12.9767 33.1681 12.9265 33.1012 12.8763C33.0343 12.8262 32.9507 12.776 32.8671 12.7258C32.6831 12.6254 32.4824 12.5418 32.2817 12.4916C32.0809 12.4415 31.8802 12.4247 31.6628 12.4247C31.3784 12.4247 31.1108 12.4582 30.8934 12.5251C30.6592 12.592 30.4585 12.6923 30.2912 12.8262C30.124 12.96 29.9902 13.1105 29.9065 13.2945C29.8229 13.4785 29.7727 13.6792 29.7727 13.8966C29.7727 14.0973 29.8062 14.2981 29.8731 14.4653C29.94 14.6326 30.0571 14.7998 30.1909 14.9337C30.3247 15.0675 30.5087 15.2013 30.7261 15.3184C30.9268 15.4354 31.1777 15.5358 31.4621 15.6361C31.529 15.6529 31.5959 15.6863 31.6795 15.7198C31.7631 15.7532 31.8468 15.7867 31.9304 15.8369C32.014 15.887 32.0642 15.9205 32.1311 15.9874C32.1813 16.0376 32.198 16.0878 32.198 16.1547C32.198 16.2216 32.1813 16.2717 32.1646 16.3219C32.1478 16.3721 32.1144 16.4223 32.0809 16.4557C32.0308 16.4892 31.9806 16.5226 31.897 16.5561C31.8133 16.5895 31.7297 16.5895 31.6126 16.5895C31.4955 16.5895 31.3617 16.5728 31.2614 16.5226C31.1443 16.4725 31.0272 16.4223 30.9101 16.3386C30.8265 16.2885 30.7596 16.2383 30.7094 16.1714C30.6425 16.1212 30.5923 16.071 30.5589 16.0376C30.5254 16.0041 30.492 15.9874 30.4752 15.9707C30.4418 15.9539 30.4251 15.9372 30.3916 15.9372C30.3582 15.9372 30.308 15.9539 30.2578 16.0041L29.6557 16.5728C29.5887 16.623 29.572 16.6732 29.572 16.7233C29.572 16.7735 29.6055 16.8237 29.6724 16.9073L29.6891 16.9241C29.8062 17.0579 29.94 17.175 30.0738 17.2753C30.2243 17.3757 30.3749 17.476 30.5421 17.5597C30.7094 17.6433 30.8767 17.7102 31.0606 17.7436C31.2446 17.7938 31.4286 17.8105 31.5959 17.8105C31.8802 17.8105 32.1478 17.7771 32.3987 17.6935C32.6496 17.6098 32.8671 17.4928 33.0511 17.3422C33.235 17.1917 33.3856 17.0077 33.4859 16.807C33.5863 16.5895 33.6532 16.3554 33.6532 16.1045C33.6532 15.8536 33.603 15.6529 33.5194 15.4689C33.4525 15.3016 33.3354 15.1511 33.1681 15.034Z" fill="#373737"/>
<path d="M39.3572 12.5233H35.5771C35.46 12.5233 35.3931 12.5902 35.3931 12.7073V13.5937C35.3931 13.7108 35.46 13.7777 35.5771 13.7777H36.7813V17.5746C36.7813 17.6916 36.8482 17.7585 36.9653 17.7585H37.9689C38.086 17.7585 38.1529 17.6916 38.1529 17.5746V13.7777H39.3572C39.4742 13.7777 39.5411 13.7108 39.5411 13.5937V12.7073C39.5579 12.5902 39.491 12.5233 39.3572 12.5233Z" fill="#373737"/>
<path d="M74.4141 14.7946H73.6949V13.6907H74.4141C74.4978 13.6907 74.5647 13.7074 74.6316 13.7409C74.6985 13.7743 74.7487 13.8245 74.7821 13.8747C74.8323 13.9248 74.8657 13.9917 74.8825 14.0587C74.8992 14.1256 74.9159 14.1925 74.9159 14.2594C74.9159 14.3263 74.8992 14.3932 74.8825 14.4601C74.8657 14.527 74.8323 14.5772 74.7821 14.6273C74.7487 14.6775 74.6818 14.711 74.6316 14.7444C74.5647 14.7779 74.4978 14.7946 74.4141 14.7946ZM76.1537 13.4063C76.0868 13.2725 76.0031 13.1554 75.9028 13.0551C75.8024 12.938 75.7021 12.8544 75.5682 12.7707C75.4512 12.6871 75.3174 12.6369 75.1668 12.5868C75.0163 12.5366 74.8657 12.5198 74.6985 12.5198H72.4572C72.407 12.5198 72.3568 12.5366 72.3234 12.57C72.2899 12.6035 72.2732 12.6537 72.2732 12.7038V17.5711C72.2732 17.6882 72.3401 17.7551 72.4572 17.7551H73.4942C73.6113 17.7551 73.6949 17.6882 73.6949 17.5711V15.9487H74.7319C74.9661 15.9487 75.2003 15.8985 75.401 15.7982C75.6017 15.6978 75.769 15.564 75.9195 15.4135C76.07 15.2462 76.1704 15.0622 76.254 14.8615C76.3376 14.6608 76.3711 14.4434 76.3711 14.2259C76.3711 14.0754 76.3544 13.9416 76.3209 13.791C76.2707 13.674 76.2206 13.5401 76.1537 13.4063Z" fill="#373737"/>
<path d="M79.5999 15.747L80.1016 14.2918L80.6202 15.747H79.5999ZM80.7874 12.6861C80.7372 12.569 80.6536 12.5189 80.5532 12.5189H79.7002C79.5831 12.5189 79.4995 12.5858 79.4493 12.6861L77.5593 17.5534C77.5258 17.6203 77.5258 17.6705 77.5593 17.704C77.576 17.7374 77.6262 17.7542 77.6931 17.7542H78.7301C78.8472 17.7542 78.9308 17.6872 78.9643 17.5702L79.1984 16.9011H81.055L81.2892 17.5702C81.3226 17.6872 81.4063 17.7542 81.5234 17.7542H82.5604C82.6273 17.7542 82.6607 17.7374 82.6942 17.704C82.7109 17.6705 82.7109 17.6203 82.6942 17.5534L80.7874 12.6861Z" fill="#373737"/>
<path d="M87.7913 16.4694H85.8845V12.706C85.8845 12.5889 85.8176 12.522 85.7005 12.522H84.6635C84.6133 12.522 84.5798 12.5388 84.5297 12.5722C84.4962 12.6057 84.4795 12.6559 84.4795 12.706V17.5733C84.4795 17.6904 84.5464 17.7573 84.6635 17.7573H87.7913C87.9084 17.7573 87.9753 17.6904 87.9753 17.5733V16.6534C87.9753 16.5363 87.9251 16.4694 87.7913 16.4694Z" fill="#373737"/>
<path d="M91.4636 15.747L91.9654 14.2918L92.4839 15.747H91.4636ZM92.6512 12.6861C92.601 12.569 92.5174 12.5189 92.417 12.5189H91.564C91.4469 12.5189 91.3633 12.569 91.3131 12.6861L89.423 17.5534C89.3896 17.6203 89.3896 17.6705 89.423 17.704C89.4398 17.7374 89.4899 17.7542 89.5568 17.7542H90.5939C90.711 17.7542 90.7946 17.6872 90.828 17.5702L91.0622 16.9011H92.9188L93.153 17.5702C93.1864 17.6872 93.27 17.7542 93.3871 17.7542H94.4242C94.4911 17.7542 94.5245 17.7374 94.558 17.704C94.5747 17.6705 94.5747 17.6203 94.558 17.5534L92.6512 12.6861Z" fill="#373737"/>
<path d="M99.7822 15.4827C99.6986 15.3154 99.5815 15.1649 99.4142 15.0311C99.2637 14.914 99.0797 14.7969 98.8623 14.7133C98.6448 14.6297 98.4274 14.5293 98.1765 14.4624C98.0427 14.4289 97.9423 14.3788 97.842 14.3453C97.7416 14.3119 97.6747 14.2784 97.6078 14.2282C97.5409 14.1948 97.5075 14.1446 97.474 14.1111C97.4405 14.061 97.4238 14.0108 97.4238 13.9606C97.4238 13.9104 97.4405 13.8602 97.4573 13.8101C97.4907 13.7766 97.5242 13.7432 97.5744 13.7097C97.6245 13.6763 97.6747 13.6595 97.7416 13.6595C97.8085 13.6428 97.8754 13.6428 97.9591 13.6428C98.026 13.6428 98.0929 13.6595 98.1765 13.6763C98.2434 13.693 98.3103 13.7264 98.3772 13.7599C98.4441 13.7933 98.4943 13.8268 98.5612 13.877C98.6114 13.9104 98.6616 13.9606 98.7117 13.9941L98.7452 14.0275C98.7786 14.061 98.8121 14.0777 98.8288 14.0944C98.8623 14.1111 98.8957 14.1279 98.9292 14.1279C98.9794 14.1279 99.0295 14.1111 99.0797 14.061L99.6149 13.4923C99.6484 13.4588 99.6651 13.4254 99.6819 13.3919C99.6986 13.3585 99.7153 13.325 99.7153 13.2916C99.7153 13.2581 99.6986 13.2079 99.6651 13.1577C99.6317 13.1076 99.5815 13.0741 99.5313 13.0239C99.4811 12.9738 99.4142 12.9236 99.3473 12.8734C99.2804 12.8232 99.1968 12.773 99.1132 12.7229C98.9292 12.6225 98.7285 12.5389 98.5277 12.4887C98.327 12.4385 98.1263 12.4218 97.9089 12.4218C97.6245 12.4218 97.3569 12.4553 97.1395 12.5222C96.9053 12.5891 96.7046 12.6894 96.5373 12.8232C96.3701 12.957 96.2363 13.1076 96.1526 13.2916C96.069 13.4755 96.0188 13.6763 96.0188 13.8937C96.0188 14.0944 96.0523 14.2951 96.1192 14.4624C96.1861 14.6297 96.3032 14.7969 96.437 14.9307C96.5708 15.0645 96.7548 15.1983 96.9722 15.3154C97.1729 15.4325 97.4238 15.5329 97.7082 15.6332C97.7751 15.6499 97.842 15.6834 97.9256 15.7168C98.0092 15.7503 98.0929 15.7838 98.1765 15.8339C98.2601 15.8841 98.3103 15.9343 98.3772 15.9845C98.4274 16.0346 98.4441 16.0848 98.4441 16.1517C98.4441 16.2186 98.4274 16.2688 98.4107 16.319C98.3939 16.3692 98.3605 16.4193 98.327 16.4528C98.2769 16.4863 98.2267 16.5197 98.143 16.5532C98.0594 16.5866 97.9758 16.5866 97.8587 16.5866C97.7416 16.5866 97.6078 16.5699 97.5075 16.5197C97.3904 16.4695 97.2733 16.4193 97.1562 16.3357C97.0726 16.2855 97.0057 16.2354 96.9555 16.1685C96.8886 16.1183 96.8384 16.0681 96.805 16.0346C96.7715 16.0012 96.7381 15.9845 96.7213 15.9677C96.6879 15.951 96.6711 15.9343 96.6377 15.9343C96.6042 15.9343 96.5541 15.951 96.5039 16.0012L95.9017 16.5699C95.8348 16.6201 95.8181 16.6702 95.8181 16.7204C95.8181 16.7706 95.8516 16.8208 95.9185 16.9044L95.9352 16.9211C96.0523 17.0549 96.1861 17.172 96.3199 17.2724C96.4704 17.3727 96.621 17.4731 96.7882 17.5567C96.9555 17.6404 97.1228 17.7073 97.3067 17.7407C97.4907 17.7909 97.6747 17.8076 97.8587 17.8076C98.143 17.8076 98.4107 17.7742 98.6616 17.6905C98.9125 17.6069 99.1299 17.4898 99.3139 17.3393C99.4979 17.1887 99.6484 17.0048 99.7488 16.804C99.8491 16.5866 99.916 16.3524 99.916 16.1016C99.916 15.8674 99.8826 15.6499 99.7822 15.4827Z" fill="#373737"/>
<path d="M105.428 12.5233H101.648C101.531 12.5233 101.464 12.5902 101.464 12.7073V13.5937C101.464 13.7108 101.531 13.7777 101.648 13.7777H102.852V17.5746C102.852 17.6916 102.919 17.7585 103.036 17.7585H104.039C104.157 17.7585 104.223 17.6916 104.223 17.5746V13.7777H105.428C105.545 13.7777 105.612 13.7108 105.612 13.5937V12.7073C105.628 12.5902 105.562 12.5233 105.428 12.5233Z" fill="#373737"/>
<path d="M66.2355 -0.00375582H47.636V29.9695H66.2355V-0.00375582ZM64.0611 27.7951H49.8104V2.17064H64.0611V27.7951Z" fill="#373737"/>
<path d="M113.905 5.64967H-0.0168457V24.3328H113.905V5.64967ZM111.73 22.1584H2.15755V7.82406H111.73V22.1584Z" fill="#373737"/>
</svg>
