<svg width="44" height="25" viewBox="0 0 44 25" fill="none" xmlns="http://www.w3.org/2000/svg">
<path d="M24.8186 12.5002C24.8186 19.4037 19.2627 25 12.4095 25C5.55634 25 0 19.4024 0 12.5002C0 5.59802 5.55592 0 12.4095 0C19.2631 0 24.8186 5.59675 24.8186 12.5002ZM38.4319 12.5002C38.4319 18.9983 35.6539 24.2682 32.2271 24.2682C28.8003 24.2682 26.0223 18.9983 26.0223 12.5002C26.0223 6.00209 28.7999 0.73223 32.2267 0.73223C35.6535 0.73223 38.4314 6.0004 38.4314 12.5002H38.4319ZM44 12.5002C44 18.3209 43.0231 23.0425 41.8178 23.0425C40.6124 23.0425 39.636 18.3222 39.636 12.5002C39.636 6.67822 40.6128 1.95796 41.8178 1.95796C43.0227 1.95796 44 6.6778 44 12.5002" fill="black"/>
</svg>
