<svg width="35" height="40" viewBox="0 0 35 40" fill="none" xmlns="http://www.w3.org/2000/svg">
<g clip-path="url(#clip0_1213_3125)">
<path d="M0 0V17.0227L24.5303 19.964L34.6667 18.756V0H0Z" fill="#008996"/>
<path d="M0 40H34.6667V21.1724L24.5303 19.9644L0 22.9057V40Z" fill="#76121C"/>
<path d="M0 22.9057L24.5303 19.9644L0 17.0227V22.9057Z" fill="#1E1E20"/>
<path d="M17.4878 35.4813H17.4212C17.5269 35.0035 17.7569 34.5621 18.0878 34.2017C18.153 34.1287 18.2429 34.0822 18.3402 34.0713C18.7032 34.0713 19.0318 34.2973 19.0318 34.4667C19.0332 34.6927 18.6332 34.8617 17.4878 35.4813ZM17.4212 35.735C19.1235 34.9073 19.5305 34.8097 19.5305 34.3317C19.5305 34.034 19.1675 33.743 18.6305 33.743C17.7565 33.743 16.9102 34.7187 16.9102 35.8893C16.9339 36.1498 17.0511 36.3928 17.2403 36.5733C17.4294 36.7539 17.6776 36.8598 17.9388 36.8713C18.3588 36.8713 18.9285 36.452 19.2912 35.8633L19.2195 35.7983C18.8536 36.0674 18.4684 36.3092 18.0672 36.522C17.9062 36.522 17.4065 36.2113 17.4065 35.9203C17.4087 35.8583 17.4142 35.7965 17.4228 35.735H17.4212ZM15.2175 35.4683C15.5738 35.7207 15.8198 35.875 15.8198 36.1077C15.8091 36.2045 15.776 36.2974 15.7232 36.3792C15.6704 36.461 15.5993 36.5294 15.5155 36.579C15.208 36.5568 14.905 36.4917 14.6155 36.3857C14.6505 36.3175 14.6705 36.2426 14.6742 36.166C14.6742 35.966 14.6075 35.914 14.3828 35.914C14.2022 35.914 14.0655 36.0377 14.0655 36.2897C14.0655 36.6523 14.4415 36.8783 15.0942 36.8783C15.7532 36.8783 16.2985 36.496 16.2985 35.9677C16.2985 35.6247 16.0528 35.444 15.6068 35.1343C15.2178 34.8677 14.9915 34.7083 14.9915 34.4677C14.9924 34.3838 15.0142 34.3015 15.0549 34.2283C15.0957 34.155 15.1541 34.093 15.2248 34.048C15.5333 34.0587 15.8377 34.1219 16.1248 34.235C16.0892 34.2983 16.0691 34.3691 16.0662 34.4417C16.0662 34.6417 16.1248 34.6937 16.3508 34.6937C16.5382 34.6937 16.6618 34.57 16.6618 34.318C16.6618 33.9813 16.2418 33.7163 15.6462 33.7163C14.9348 33.7163 14.5198 34.1357 14.5198 34.622C14.5208 34.977 14.7602 35.1267 15.2192 35.4697L15.2175 35.4683ZM10.4242 34.4333L10.4828 34.492L11.1942 34.201L11.2202 34.2463C11.2202 34.253 11.1095 34.5893 11.0005 34.931C10.9338 35.131 10.8655 35.357 10.7808 35.609C10.696 35.8248 10.6418 36.0515 10.6198 36.2823C10.6198 36.4887 11.1048 36.8643 11.3375 36.8643C11.4517 36.8724 11.5663 36.8571 11.6743 36.8193C11.7824 36.7815 11.8816 36.7221 11.9658 36.6447C12.2707 36.2658 12.5393 35.8591 12.7682 35.43H12.8348C12.7102 35.8346 12.6107 36.2465 12.5368 36.6633C12.6602 36.7526 12.7978 36.8202 12.9438 36.8633C13.2285 36.8633 13.6175 36.4877 13.8242 36.1463L13.7655 36.0943L13.0855 36.3333L13.0522 36.2813L13.2785 34.8193L13.5568 33.7983L12.9805 33.8317L12.7738 34.788C12.3278 35.952 11.9405 36.4237 11.6605 36.4237C11.4995 36.4237 11.1168 36.165 11.1168 36.0807C11.2024 35.7154 11.3064 35.3547 11.4285 35C11.5649 34.6342 11.6795 34.2607 11.7718 33.8813C11.7718 33.829 11.3195 33.7397 11.2738 33.7397C10.9808 33.743 10.6262 34.1 10.4242 34.4333ZM9.56317 34.8023C9.54938 34.9932 9.5145 35.1819 9.45917 35.365C9.3045 35.9017 8.9805 36.5097 8.7025 36.5097C8.3265 36.5097 7.72584 36.2643 7.72584 35.8317C7.73981 35.6345 7.77479 35.4394 7.83017 35.2497C7.98484 34.7197 8.30884 34.0983 8.58684 34.0983C8.96117 34.1 9.5635 34.3707 9.5635 34.803L9.56317 34.8023ZM10.0612 34.8547C10.0612 34.214 9.4005 33.7423 8.78017 33.7423C7.8165 33.7423 7.2275 35.0547 7.2275 35.7587C7.2275 36.404 7.87517 36.8707 8.50183 36.8707C9.47383 36.8713 10.0615 35.5593 10.0615 34.8553L10.0612 34.8547ZM5.10217 36.7813H6.71983L6.7655 36.4383L6.2155 36.2383L6.20883 36.2123L6.6045 33.2317L6.6175 33.2057H7.1155L7.18217 32.739H5.56283L5.51717 33.0887L6.06083 33.282L6.07383 33.308L5.91283 34.518H3.81483L3.9815 33.2317L3.9945 33.2057H4.4925L4.55917 32.739H2.93317L2.89417 33.082L3.43783 33.282L3.45083 33.308L3.0555 36.2887L3.0425 36.3147H2.53883L2.47217 36.7797H4.0965L4.14217 36.43L3.59217 36.2367L3.58583 36.2107L3.7525 34.944H5.84883L5.67484 36.2887L5.65517 36.3147H5.1665L5.10217 36.7813Z" fill="white"/>
<path d="M30.0952 28.5073C30.1078 28.4089 30.1352 28.3129 30.1765 28.2227C30.2175 28.1304 30.2738 28.0457 30.3432 27.9723C30.4166 27.896 30.5046 27.8352 30.6019 27.7933C30.7093 27.7471 30.8253 27.7244 30.9422 27.7267C31.037 27.7187 31.1324 27.7326 31.2209 27.7673C31.3095 27.802 31.389 27.8565 31.4532 27.9267C31.5663 28.0776 31.6233 28.2633 31.6142 28.4517V28.4973L30.0952 28.5073ZM30.0692 28.901C30.4401 28.901 30.7721 28.8988 31.0652 28.8943C31.1905 28.8893 31.3125 28.888 31.4319 28.888H32.0632C32.086 28.8152 32.1024 28.7406 32.1122 28.665C32.1231 28.5826 32.1284 28.4995 32.1282 28.4163C32.1442 28.1073 32.0385 27.8044 31.8339 27.5723C31.724 27.4641 31.5926 27.3802 31.4481 27.3262C31.3037 27.2722 31.1495 27.2491 30.9955 27.2587C30.7964 27.2571 30.5991 27.2969 30.4162 27.3757C30.24 27.4509 30.0823 27.5635 29.9539 27.7057C29.8216 27.8549 29.7174 28.0267 29.6462 28.213C29.5691 28.4228 29.5311 28.6449 29.5339 28.8683C29.5312 29.0805 29.5689 29.2912 29.6449 29.4893C29.7135 29.672 29.818 29.839 29.9522 29.9807C30.0854 30.1193 30.2462 30.2284 30.4242 30.301C30.6189 30.3783 30.8268 30.4169 31.0362 30.4147C31.2181 30.4154 31.3995 30.3947 31.5765 30.353C31.7372 30.3161 31.891 30.254 32.0322 30.169L31.9345 29.678C31.8068 29.7609 31.6659 29.8215 31.5179 29.857C31.3647 29.8959 31.2073 29.9161 31.0492 29.917C30.9149 29.9186 30.7816 29.8938 30.6569 29.844C30.5425 29.7971 30.439 29.7273 30.3525 29.639C30.2664 29.5488 30.1985 29.4429 30.1525 29.327C30.1016 29.1996 30.074 29.0641 30.0712 28.927V28.9L30.0692 28.901ZM28.8955 30.317V28.2813C28.9124 28.0072 28.8221 27.7373 28.6435 27.5287C28.5515 27.437 28.4411 27.3658 28.3196 27.3198C28.1981 27.2739 28.0682 27.2542 27.9385 27.262C27.7624 27.2632 27.5888 27.3043 27.4309 27.3823C27.2615 27.4645 27.1074 27.575 26.9752 27.709L26.9819 27.2633L26.4449 27.348V30.322H26.9819V28.0977C27.0812 28.0071 27.1935 27.932 27.3152 27.875C27.4509 27.8085 27.6001 27.7743 27.7512 27.775C27.834 27.7677 27.9174 27.777 27.9965 27.8024C28.0756 27.8278 28.1489 27.8688 28.2119 27.923C28.3272 28.0768 28.3801 28.2685 28.3599 28.4597V30.3213H28.8952L28.8955 30.317ZM24.5599 28.3837C24.6488 28.206 24.7736 28.0488 24.9265 27.922C25.0423 27.8269 25.1867 27.7736 25.3365 27.7707C25.4141 27.7718 25.4912 27.783 25.5659 27.804C25.6512 27.8271 25.7329 27.8621 25.8085 27.908L25.9435 27.4103C25.7758 27.3092 25.5827 27.2579 25.3869 27.2623C25.2166 27.2561 25.0489 27.3046 24.9082 27.4007C24.768 27.505 24.6492 27.6352 24.5582 27.7843V27.2603L24.0212 27.345V30.319H24.5582V28.384L24.5599 28.3837ZM20.7465 27.356V29.392C20.7297 29.6653 20.8182 29.9346 20.9939 30.1447C21.0804 30.235 21.1854 30.3057 21.3016 30.352C21.4178 30.3983 21.5426 30.4191 21.6675 30.413C21.8521 30.4142 22.0347 30.3754 22.2029 30.2993C22.3739 30.2219 22.529 30.1133 22.6602 29.979V30.4123L23.1972 30.328V27.353H22.6605V29.5773C22.5608 29.669 22.447 29.7442 22.3235 29.8C22.1776 29.8683 22.018 29.9025 21.8569 29.9C21.7784 29.9061 21.6994 29.8962 21.6249 29.8707C21.5504 29.8453 21.4819 29.8049 21.4235 29.752C21.3101 29.5974 21.2584 29.406 21.2785 29.2153V27.3543H20.7452L20.7465 27.356ZM19.5275 29.283C19.4922 29.4085 19.4331 29.5261 19.3535 29.6293C19.2763 29.7259 19.1777 29.8033 19.0655 29.8553C18.943 29.9111 18.8095 29.9389 18.6749 29.9367C18.5398 29.9395 18.406 29.9105 18.2842 29.852C18.1709 29.7969 18.0714 29.7172 17.9929 29.6187C17.9108 29.5147 17.8495 29.396 17.8122 29.269C17.7699 29.1266 17.749 28.9786 17.7502 28.83C17.7489 28.6805 17.7686 28.5316 17.8089 28.3877C17.8439 28.261 17.9029 28.1423 17.9829 28.038C18.0601 27.9414 18.1587 27.8641 18.2709 27.812C18.3934 27.7562 18.5269 27.7284 18.6615 27.7307C18.7971 27.7281 18.9314 27.7571 19.0539 27.8153C19.1672 27.8704 19.2667 27.9501 19.3452 28.0487C19.4279 28.1534 19.4893 28.2733 19.5259 28.4017C19.5681 28.5453 19.589 28.6943 19.5879 28.844C19.588 28.9924 19.5677 29.1401 19.5275 29.283ZM20.0075 28.183C19.9446 27.9994 19.8456 27.8303 19.7162 27.6857C19.5908 27.5486 19.4377 27.4398 19.2669 27.3667C19.0835 27.2896 18.8864 27.2509 18.6875 27.253C18.4861 27.2504 18.2862 27.2891 18.1002 27.3667C17.9243 27.4396 17.7666 27.55 17.6379 27.6903C17.5053 27.836 17.402 28.0057 17.3335 28.1903C17.2577 28.3975 17.2202 28.6167 17.2229 28.8373C17.2211 29.0585 17.2586 29.2782 17.3335 29.4863C17.3973 29.6702 17.4975 29.8394 17.6282 29.9837C17.7545 30.1193 17.9075 30.2273 18.0775 30.301C18.4489 30.4525 18.8648 30.4525 19.2362 30.301C19.4115 30.2286 19.5691 30.1193 19.6985 29.9807C19.8305 29.8359 19.9329 29.6669 20.0002 29.483C20.0761 29.2757 20.1136 29.0564 20.1109 28.8357C20.1129 28.6141 20.078 28.3937 20.0075 28.1837V28.183ZM16.1335 29.265C16.0963 29.3916 16.0349 29.5097 15.9529 29.613C15.8701 29.7168 15.7645 29.8 15.6442 29.8562C15.5239 29.9123 15.3922 29.9399 15.2595 29.9367C15.0222 29.9446 14.7895 29.8693 14.6019 29.7237V28.0423C14.7001 27.9569 14.8109 27.8871 14.9305 27.8357C15.0529 27.7832 15.1848 27.7567 15.3179 27.7577C15.4411 27.7521 15.5638 27.7761 15.6759 27.8276C15.788 27.8791 15.8861 27.9566 15.9622 28.0537C16.1268 28.2821 16.209 28.5595 16.1955 28.8407C16.1953 28.9844 16.1744 29.1273 16.1335 29.265ZM16.6559 28.2033C16.6026 28.0233 16.5147 27.8554 16.3972 27.709C16.284 27.5699 16.1418 27.4573 15.9805 27.379C15.8066 27.2969 15.6162 27.2558 15.4239 27.2587C15.2614 27.2551 15.1008 27.2932 14.9572 27.3693C14.8263 27.4419 14.7044 27.5297 14.5942 27.631L14.6009 25.875L14.0639 25.9597V30.4133L14.6009 30.3157C14.8082 30.3765 15.0228 30.4094 15.2389 30.4133C15.4477 30.4158 15.6546 30.3736 15.8459 30.2897C16.0264 30.2117 16.1888 30.0972 16.3229 29.9533C16.4584 29.8074 16.5636 29.636 16.6322 29.449C16.7064 29.2483 16.7433 29.0357 16.7412 28.8217C16.7449 28.6124 16.7163 28.4039 16.6565 28.2033H16.6559ZM13.2592 30.317V28.2943C13.2762 28.018 13.1878 27.7454 13.0119 27.5317C12.9288 27.4414 12.8271 27.3704 12.7138 27.3235C12.6005 27.2766 12.4784 27.2549 12.3559 27.26C12.1573 27.2582 11.961 27.3011 11.7812 27.3853C11.5942 27.4762 11.4241 27.5983 11.2782 27.7463C11.214 27.5951 11.1043 27.4678 10.9642 27.382C10.8243 27.2994 10.6643 27.2572 10.5019 27.26C10.1447 27.263 9.80307 27.4067 9.5512 27.66L9.55787 27.26L9.02087 27.3447V30.3187H9.55787V28.0633C9.6518 27.9764 9.7582 27.9041 9.87353 27.8487C10.0083 27.7853 10.156 27.7542 10.3049 27.7577C10.3835 27.7513 10.4626 27.7622 10.5366 27.7898C10.6105 27.8173 10.6775 27.8607 10.7329 27.917C10.8414 28.078 10.8903 28.2718 10.8712 28.465V30.3187H11.4082V28.0943C11.5035 28.0051 11.6096 27.9281 11.7239 27.865C11.8556 27.7915 12.0044 27.7545 12.1552 27.7577C12.2339 27.7513 12.313 27.7622 12.3869 27.7898C12.4609 27.8173 12.5279 27.8607 12.5832 27.917C12.6917 28.078 12.7407 28.2718 12.7215 28.465V30.3187H13.2585L13.2592 30.317ZM7.67253 30C7.7109 30.1279 7.79488 30.2373 7.90853 30.3073C8.07547 30.391 8.26469 30.4195 8.44887 30.3887L8.4822 29.943C8.35353 29.943 8.2722 29.9253 8.23987 29.888C8.19881 29.8166 8.18164 29.7339 8.19087 29.652V28.4113C8.20916 28.2546 8.19536 28.0958 8.15032 27.9446C8.10528 27.7933 8.02993 27.6529 7.92887 27.5317C7.68107 27.3292 7.36393 27.2317 7.0452 27.26C6.83471 27.2596 6.62566 27.2948 6.42687 27.364C6.25179 27.4206 6.08534 27.501 5.9322 27.603L6.03654 28.081C6.18183 27.9848 6.33861 27.9072 6.5032 27.85C6.65898 27.7917 6.82356 27.7604 6.98987 27.7573C7.17443 27.7391 7.35873 27.7946 7.50253 27.9117C7.61731 28.0576 7.6715 28.2422 7.65387 28.427V28.5117C7.36456 28.5204 7.07702 28.5602 6.7962 28.6303C6.60329 28.677 6.41991 28.7568 6.2542 28.866C6.13336 28.9459 6.03656 29.0572 5.9742 29.188C5.92039 29.3076 5.89267 29.4372 5.89287 29.5683C5.89198 29.683 5.91526 29.7966 5.9612 29.9017C6.0055 30.0041 6.07159 30.0957 6.15487 30.17C6.24253 30.2479 6.34439 30.3081 6.45487 30.3473C6.57704 30.3913 6.70603 30.4133 6.83587 30.4123C6.9895 30.4137 7.14107 30.3769 7.27687 30.305C7.4185 30.228 7.544 30.1244 7.64653 30H7.67253ZM7.65287 29.6457C7.56595 29.737 7.4646 29.8133 7.35287 29.8717C7.23694 29.9325 7.10778 29.9638 6.97687 29.9627C6.83759 29.9712 6.70047 29.9252 6.59454 29.8343C6.54927 29.7923 6.5135 29.7411 6.48965 29.6841C6.46579 29.6272 6.45439 29.5657 6.4562 29.504C6.45635 29.415 6.48181 29.3278 6.52962 29.2526C6.57742 29.1775 6.6456 29.1175 6.7262 29.0797C7.01889 28.9481 7.33221 28.8683 7.6522 28.844L7.65287 29.6457ZM3.34787 29.8067C3.15737 29.7332 2.97515 29.6399 2.8042 29.5283L2.62354 30.0283C2.82204 30.1574 3.03958 30.2545 3.2682 30.316C3.49867 30.3806 3.73686 30.4134 3.9762 30.4137C4.17303 30.4157 4.36882 30.385 4.55554 30.3227C4.7206 30.2674 4.87397 30.1819 5.00787 30.0707C5.13459 29.9649 5.23622 29.8322 5.30539 29.6823C5.37457 29.5325 5.40957 29.3691 5.40787 29.204C5.41339 29.0459 5.38233 28.8886 5.31711 28.7445C5.25189 28.6004 5.15428 28.4732 5.03187 28.373C4.91661 28.2787 4.78769 28.2025 4.64953 28.147C4.50864 28.0887 4.36384 28.0404 4.2162 28.0023C3.96215 27.9415 3.71669 27.8491 3.48553 27.7273C3.40561 27.6838 3.33956 27.6186 3.29493 27.5392C3.25031 27.4599 3.22892 27.3696 3.2332 27.2787C3.2321 27.1981 3.24856 27.1183 3.28143 27.0447C3.3143 26.9711 3.36279 26.9056 3.42354 26.8527C3.60547 26.7191 3.8302 26.6572 4.05487 26.6787C4.24399 26.6803 4.43174 26.711 4.61153 26.7697C4.79499 26.8263 4.96933 26.909 5.1292 27.0153L5.32287 26.5373C4.94036 26.3004 4.49845 26.177 4.04854 26.1813C3.86307 26.1796 3.67848 26.2071 3.50153 26.2627C3.34455 26.3119 3.19863 26.3911 3.07187 26.496C2.95345 26.5942 2.85837 26.7175 2.79353 26.857C2.72742 27.0018 2.69407 27.1595 2.69587 27.3187C2.69077 27.4885 2.72704 27.657 2.80153 27.8097C2.87022 27.9393 2.96565 28.053 3.08153 28.143C3.1996 28.2352 3.33144 28.3082 3.4722 28.3593C3.6172 28.413 3.75853 28.4593 3.90187 28.4977C4.15898 28.5543 4.40616 28.6492 4.6352 28.779C4.712 28.8281 4.77434 28.8967 4.81582 28.9778C4.8573 29.059 4.87641 29.1497 4.8712 29.2407C4.87326 29.3363 4.85196 29.431 4.80915 29.5166C4.76635 29.6021 4.70332 29.676 4.62553 29.7317C4.44109 29.8627 4.21823 29.9285 3.9922 29.9187C3.77259 29.9198 3.55453 29.8819 3.3482 29.8067H3.34787Z" fill="white"/>
<path d="M17.3578 12.6407H17.2912C17.3969 12.1629 17.6269 11.7215 17.9578 11.361C18.0232 11.2886 18.1131 11.2429 18.2102 11.2327C18.5732 11.2327 18.9018 11.4587 18.9018 11.6264C18.9038 11.852 18.5035 12.021 17.3578 12.6407ZM17.2912 12.8927C18.9935 12.065 19.4005 11.9674 19.4005 11.4894C19.4005 11.1917 19.0375 10.9007 18.5005 10.9007C17.6265 10.9007 16.7802 11.8764 16.7802 13.047C16.8039 13.3075 16.9211 13.5505 17.1103 13.731C17.2994 13.9116 17.5476 14.0175 17.8088 14.029C18.2288 14.029 18.7985 13.6094 19.1615 13.021L19.0898 12.9544C18.724 13.2235 18.3388 13.4654 17.9375 13.678C17.7765 13.678 17.2768 13.3674 17.2768 13.078C17.2795 13.0097 17.2862 12.9447 17.2925 12.8927H17.2912ZM15.1202 12.626C15.4765 12.878 15.7225 13.0327 15.7225 13.265C15.7118 13.3619 15.6787 13.4549 15.6259 13.5367C15.5731 13.6186 15.502 13.687 15.4182 13.7367C15.1106 13.7146 14.8077 13.6495 14.5182 13.5434C14.5533 13.4752 14.5733 13.4003 14.5768 13.3237C14.5768 13.1237 14.5102 13.0717 14.2855 13.0717C14.1048 13.0717 13.9682 13.1954 13.9682 13.4474C13.9682 13.81 14.3442 14.036 14.9968 14.036C15.6575 14.036 16.2012 13.6557 16.2012 13.1254C16.2012 12.7824 15.9555 12.6017 15.5095 12.292C15.1205 12.0254 14.8942 11.866 14.8942 11.6254C14.8951 11.5416 14.9169 11.4594 14.9577 11.3861C14.9984 11.3129 15.0568 11.251 15.1275 11.206C15.436 11.2167 15.7403 11.2799 16.0275 11.393C15.992 11.4562 15.9719 11.5269 15.9688 11.5994C15.9688 11.7994 16.0275 11.8514 16.2535 11.8514C16.4408 11.8514 16.5645 11.7277 16.5645 11.4757C16.5645 11.139 16.1445 10.8757 15.5488 10.8757C14.8375 10.8757 14.4225 11.2954 14.4225 11.7814C14.4232 12.1367 14.6625 12.2864 15.1215 12.6277L15.1202 12.626ZM10.3595 11.5927L10.4182 11.6514L11.1295 11.3604L11.1555 11.406C11.1555 11.4124 11.0448 11.749 10.9358 12.0907C10.8692 12.2907 10.7992 12.5167 10.7162 12.7687C10.6313 12.9845 10.5772 13.2112 10.5552 13.442C10.5552 13.6484 11.0402 14.024 11.2728 14.024C11.387 14.0321 11.5016 14.0168 11.6097 13.979C11.7177 13.9413 11.8169 13.8818 11.9012 13.8044C12.206 13.4254 12.4746 13.0188 12.7035 12.5897H12.7702C12.6457 12.9943 12.5462 13.4062 12.4725 13.823C12.5958 13.9124 12.7334 13.98 12.8795 14.023C13.1642 14.023 13.5518 13.6474 13.7598 13.306L13.7012 13.254L13.0208 13.493L12.9875 13.441L13.2138 11.9807L13.4922 10.9597L12.9158 10.993L12.7092 11.949C12.2632 13.1134 11.8758 13.5847 11.5958 13.5847C11.4348 13.5847 11.0522 13.326 11.0522 13.2417C11.1376 12.8768 11.2414 12.5165 11.3632 12.162C11.4996 11.7963 11.6142 11.4227 11.7065 11.0434C11.7065 10.9914 11.2542 10.902 11.2085 10.902C10.9158 10.9024 10.5612 11.257 10.3608 11.5934L10.3595 11.5927ZM9.5295 11.9617C9.51569 12.1525 9.48081 12.3412 9.4255 12.5244C9.27083 13.061 8.94717 13.669 8.6685 13.669C8.2925 13.669 7.69217 13.4234 7.69217 12.991C7.70611 12.7939 7.74108 12.5988 7.7965 12.409C7.95117 11.879 8.27483 11.2577 8.55317 11.2577C8.93017 11.257 9.53083 11.5284 9.53083 11.9627L9.5295 11.9617ZM10.0275 12.0137C10.0275 11.373 9.36684 10.9014 8.7465 10.9014C7.78317 10.9014 7.19384 12.2137 7.19384 12.9177C7.19384 13.5634 7.8415 14.03 8.46817 14.03C9.44117 14.031 10.0288 12.7187 10.0288 12.0147L10.0275 12.0137ZM5.10083 13.939H6.7185L6.7665 13.5967L6.2165 13.3967L6.20984 13.3707L6.6055 10.3904L6.6185 10.3644H7.1165L7.18317 9.89771H5.56283L5.51717 10.2474L6.06083 10.441L6.07383 10.467L5.91283 11.6767H3.81483L3.9815 10.3904L3.9945 10.3644H4.4925L4.55917 9.89771H2.93317L2.89417 10.2407L3.43783 10.4407L3.45083 10.4667L3.0565 13.4504L3.0435 13.4764H2.53883L2.47217 13.943H4.0965L4.14217 13.5934L3.59217 13.3997L3.58583 13.3737L3.7525 12.107H5.84883L5.67484 13.4517L5.65517 13.4777H5.1665L5.10083 13.939Z" fill="white"/>
<path d="M24.3958 7.47644V5.43911C24.4127 5.16487 24.3222 4.89482 24.1435 4.68611C24.0515 4.59446 23.9412 4.52332 23.8197 4.47736C23.6983 4.4314 23.5685 4.41166 23.4388 4.41944C23.2628 4.41999 23.0892 4.46057 22.9312 4.53811C22.7618 4.62032 22.6077 4.73079 22.4755 4.86478L22.4822 4.41911L21.9452 4.50378V7.47778H22.4822V5.25211C22.5812 5.1612 22.6936 5.0861 22.8155 5.02944C22.9513 4.96294 23.1006 4.92871 23.2518 4.92944C23.3346 4.92209 23.418 4.93139 23.4972 4.95681C23.5763 4.98223 23.6495 5.02325 23.7125 5.07744C23.8279 5.23122 23.8807 5.42295 23.8605 5.61411V7.47578H24.3958V7.47644ZM20.7335 6.44244C20.6982 6.56794 20.6391 6.68551 20.5595 6.78878C20.4823 6.88536 20.3837 6.96272 20.2715 7.01478C20.1489 7.07041 20.0155 7.09819 19.8808 7.09611C19.7453 7.09869 19.611 7.06971 19.4885 7.01144C19.3752 6.9564 19.2756 6.87667 19.1972 6.77811C19.1151 6.67421 19.0538 6.5555 19.0165 6.42844C18.9743 6.28597 18.9535 6.13802 18.9548 5.98944C18.9535 5.83997 18.9732 5.69106 19.0135 5.54711C19.0481 5.42032 19.1073 5.30153 19.1875 5.19744C19.2644 5.1005 19.3631 5.02307 19.4755 4.97144C19.5986 4.91548 19.7326 4.88769 19.8678 4.89011C20.0029 4.88734 20.1367 4.91634 20.2585 4.97478C20.3718 5.02981 20.4714 5.10954 20.5498 5.20811C20.6325 5.31272 20.6939 5.43254 20.7305 5.56078C20.7726 5.70441 20.7935 5.85343 20.7925 6.00311C20.7938 6.15161 20.7739 6.29953 20.7335 6.44244ZM21.2135 5.34244C21.1507 5.15873 21.0516 4.9895 20.9222 4.84478C20.7969 4.7072 20.6437 4.59798 20.4728 4.52444C20.2895 4.44738 20.0924 4.4087 19.8935 4.41078C19.6925 4.40837 19.4931 4.44705 19.3075 4.52444C19.1317 4.59735 18.9739 4.70781 18.8452 4.84811C18.7121 4.99333 18.6087 5.16318 18.5408 5.34811C18.465 5.55528 18.4275 5.77452 18.4302 5.99511C18.4274 6.21597 18.4637 6.43558 18.5375 6.64378C18.6013 6.8278 18.7015 6.99706 18.8322 7.14144C18.9584 7.27702 19.1114 7.38496 19.2815 7.45844C19.6528 7.6102 20.0689 7.6102 20.4402 7.45844C20.6155 7.38616 20.7732 7.2769 20.9025 7.13811C21.0354 6.99366 21.1388 6.82459 21.2068 6.64044C21.2827 6.43328 21.3202 6.21404 21.3175 5.99344C21.3194 5.77243 21.2845 5.55265 21.2142 5.34311L21.2135 5.34244ZM18.1162 7.20911C18.1032 7.14911 18.0918 7.09544 18.0828 7.04811C18.0738 7.00078 18.0682 6.97644 18.0632 6.97644C17.9767 7.01095 17.8875 7.03816 17.7965 7.05778C17.7073 7.07716 17.6162 7.08699 17.5248 7.08711C17.2582 7.08711 17.1278 6.94744 17.1358 6.66778L17.1815 4.99311H18.1058L18.1255 4.51511H17.2038L17.2235 3.83711H16.7122L16.7002 4.47811L16.2085 4.62611L16.1888 4.96278L16.6805 4.99611L16.6335 6.65044C16.6183 6.77567 16.6288 6.90269 16.6643 7.02373C16.6999 7.14477 16.7597 7.2573 16.8402 7.35444C16.9288 7.43272 17.0322 7.49248 17.1443 7.5302C17.2564 7.56792 17.3749 7.58285 17.4928 7.57411C17.7211 7.57273 17.9471 7.52922 18.1595 7.44578C18.1502 7.36684 18.136 7.28858 18.1168 7.21144L18.1162 7.20911ZM15.7758 7.47578V5.43911C15.793 5.1654 15.7038 4.89564 15.5268 4.68611C15.4399 4.59596 15.3346 4.52551 15.2181 4.47951C15.1016 4.43351 14.9766 4.41303 14.8515 4.41944C14.6664 4.41803 14.4832 4.45681 14.3145 4.53311C14.1429 4.61038 13.9872 4.71902 13.8555 4.85344L13.8622 3.03711L13.3252 3.12178V7.47644H13.8622V5.25211C13.9622 5.16078 14.0759 5.08565 14.1992 5.02944C14.3451 4.96097 14.5047 4.92676 14.6658 4.92944C14.7444 4.92325 14.8233 4.93319 14.8978 4.95864C14.9723 4.9841 15.0409 5.02452 15.0992 5.07744C15.2126 5.23206 15.2643 5.42341 15.2442 5.61411V7.47578H15.7775H15.7758ZM10.0452 7.77011C9.93935 7.89298 9.88209 8.0503 9.88418 8.21244C9.88266 8.3401 9.91947 8.46527 9.98985 8.57178C10.0659 8.68253 10.1654 8.77526 10.2812 8.84344C10.4169 8.92344 10.564 8.98213 10.7175 9.01744C10.8957 9.05947 11.0782 9.08017 11.2612 9.07911C11.4738 9.08079 11.6855 9.05125 11.8895 8.99144C12.0703 8.93901 12.2416 8.85835 12.3972 8.75244C12.535 8.65834 12.651 8.53581 12.7375 8.39311C12.8189 8.25643 12.8617 8.1002 12.8612 7.94111C12.8671 7.82287 12.8411 7.7052 12.7859 7.6005C12.7306 7.49579 12.6482 7.40791 12.5472 7.34611C12.2448 7.19171 11.9062 7.12257 11.5675 7.14611H11.2958C11.1821 7.14764 11.0684 7.14118 10.9555 7.12678C10.8842 7.11878 10.8146 7.10013 10.7488 7.07144C10.7063 7.05479 10.6709 7.02378 10.6488 6.98378C10.6227 6.93146 10.6159 6.8716 10.6296 6.81475C10.6434 6.75791 10.6767 6.70774 10.7238 6.67311C10.7801 6.62386 10.8445 6.58483 10.9142 6.55778C11.0005 6.58378 11.0722 6.60178 11.1305 6.61311C11.1955 6.62483 11.2615 6.63029 11.3275 6.62944C11.4901 6.63131 11.6516 6.60153 11.8028 6.54178C11.9413 6.48755 12.0688 6.40847 12.1788 6.30844C12.2843 6.2117 12.3681 6.09365 12.4245 5.96211C12.4829 5.82993 12.5129 5.68695 12.5125 5.54244C12.5119 5.42484 12.4933 5.30803 12.4572 5.19611C12.4321 5.09791 12.3821 5.0078 12.3122 4.93444L12.8818 5.03844L12.8622 4.51478L12.0988 4.58644C11.9909 4.5394 11.8795 4.50084 11.7655 4.47111C11.6244 4.43506 11.4791 4.4178 11.3335 4.41978C11.1574 4.41606 10.9825 4.44815 10.8192 4.51411C10.6791 4.57215 10.5514 4.65657 10.4432 4.76278C10.3417 4.86407 10.2622 4.98528 10.2098 5.11878C10.1559 5.2521 10.1283 5.39461 10.1285 5.53844C10.124 5.72749 10.1683 5.91451 10.2572 6.08144C10.3423 6.23523 10.4678 6.36282 10.6202 6.45044C10.4817 6.49488 10.3575 6.57542 10.2605 6.68378C10.1749 6.77751 10.1274 6.89983 10.1272 7.02678C10.1271 7.13029 10.1624 7.23073 10.2272 7.31144C10.3039 7.40539 10.4029 7.47863 10.5152 7.52444C10.3342 7.54754 10.1676 7.63498 10.0458 7.77078L10.0452 7.77011ZM11.1648 7.63678C11.2648 7.64178 11.3618 7.64344 11.4562 7.64344C11.6811 7.63415 11.9061 7.66048 12.1228 7.72144C12.1911 7.74188 12.2502 7.78524 12.2903 7.8442C12.3303 7.90316 12.3487 7.97412 12.3425 8.04511C12.3434 8.13323 12.3161 8.21933 12.2645 8.29078C12.2073 8.36831 12.1347 8.43312 12.0512 8.48111C11.952 8.53767 11.8451 8.57934 11.7338 8.60478C11.6062 8.63349 11.4757 8.64769 11.3448 8.64711C11.1077 8.65836 10.872 8.60502 10.6628 8.49278C10.5884 8.45671 10.5252 8.40097 10.4801 8.33158C10.4351 8.26219 10.4098 8.1818 10.4072 8.09911C10.4074 8.04308 10.4203 7.98782 10.4448 7.93744C10.4693 7.88707 10.5049 7.84286 10.5488 7.80811C10.6568 7.71944 10.7828 7.6556 10.9182 7.62111C10.9832 7.62611 11.0668 7.63344 11.1668 7.63744L11.1648 7.63678ZM10.8378 5.03678C10.8975 4.97272 10.9702 4.92226 11.0511 4.88884C11.1319 4.85542 11.2191 4.83982 11.3065 4.84311C11.4001 4.83603 11.4941 4.84906 11.5822 4.88131C11.6704 4.91357 11.7506 4.9643 11.8175 5.03011C11.9318 5.16249 11.9914 5.33339 11.9842 5.50811C11.9924 5.6904 11.9313 5.86904 11.8132 6.00811C11.7547 6.07169 11.683 6.12169 11.6031 6.15458C11.5233 6.18746 11.4371 6.20243 11.3508 6.19844C11.2584 6.20381 11.1659 6.19059 11.0787 6.15955C10.9915 6.12852 10.9114 6.08031 10.8432 6.01778C10.781 5.95523 10.7326 5.88043 10.7009 5.79814C10.6692 5.71584 10.655 5.62786 10.6592 5.53978C10.6523 5.35603 10.7165 5.1767 10.8385 5.03911L10.8378 5.03678ZM9.47718 7.47411V4.41978L8.94018 4.50444V7.47844H9.47718V7.47411ZM9.47051 3.21378C9.43687 3.17686 9.3959 3.14737 9.35021 3.1272C9.30452 3.10702 9.25513 3.0966 9.20518 3.0966C9.15524 3.0966 9.10584 3.10702 9.06015 3.1272C9.01446 3.14737 8.97349 3.17686 8.93985 3.21378C8.88481 3.29118 8.85524 3.3838 8.85524 3.47878C8.85524 3.57375 8.88481 3.66637 8.93985 3.74378C8.97349 3.78069 9.01446 3.81018 9.06015 3.83035C9.10584 3.85053 9.15524 3.86095 9.20518 3.86095C9.25513 3.86095 9.30452 3.85053 9.35021 3.83035C9.3959 3.81018 9.43687 3.78069 9.47051 3.74378C9.52652 3.66623 9.5562 3.57276 9.55518 3.47711C9.55588 3.38346 9.52643 3.29207 9.47118 3.21644L9.47051 3.21378ZM6.29418 5.66678C6.30672 5.56832 6.33415 5.47233 6.37551 5.38211C6.41644 5.2898 6.4728 5.20514 6.54218 5.13178C6.61556 5.05541 6.70352 4.99454 6.80085 4.95278C6.90824 4.90654 7.02428 4.88381 7.14118 4.88611C7.23598 4.87817 7.33133 4.89208 7.41991 4.92675C7.5085 4.96142 7.58796 5.01593 7.65218 5.08611C7.76546 5.23709 7.82241 5.42291 7.81318 5.61144V5.65711L6.29418 5.66678ZM6.26685 6.06044C6.63796 6.06044 6.96996 6.05822 7.26285 6.05378C7.38818 6.04878 7.51018 6.04744 7.62951 6.04744H8.26085C8.28358 5.97479 8.29986 5.90028 8.30951 5.82478C8.32052 5.74235 8.32597 5.65927 8.32585 5.57611C8.34212 5.26783 8.2372 4.96541 8.03351 4.73344C7.92365 4.6252 7.79222 4.54132 7.64777 4.48728C7.50333 4.43323 7.34911 4.41023 7.19518 4.41978C6.99623 4.41841 6.7991 4.45766 6.61585 4.53511C6.43967 4.61036 6.28193 4.72295 6.15351 4.86511C6.01941 5.01295 5.91496 5.18518 5.84585 5.37244C5.76807 5.58207 5.72943 5.8042 5.73185 6.02778C5.72917 6.23991 5.76672 6.45063 5.84251 6.64878C5.91128 6.83133 6.01589 6.99827 6.15018 7.13978C6.28348 7.27827 6.44425 7.38738 6.62218 7.46011C6.81683 7.53748 7.02472 7.57609 7.23418 7.57378C7.41609 7.57448 7.59744 7.55378 7.77451 7.51211C7.93513 7.47526 8.08891 7.41328 8.23018 7.32844L8.13251 6.83744C8.0048 6.92034 7.86389 6.98088 7.71585 7.01644C7.5628 7.05627 7.40532 7.07654 7.24718 7.07678C7.11342 7.07847 6.98064 7.05366 6.85651 7.00378C6.74181 6.95755 6.63812 6.8877 6.55218 6.79878C6.46604 6.7085 6.39814 6.60245 6.35218 6.48644C6.30066 6.35926 6.27309 6.22365 6.27085 6.08644V6.06044H6.26685ZM5.41085 7.47678V6.95944H3.45918V3.43578H2.90918V7.47644L5.41085 7.47678Z" fill="white"/>
</g>
<defs>
<clipPath id="clip0_1213_3125">
<rect width="34.6667" height="40" fill="white"/>
</clipPath>
</defs>
</svg>
