<svg width="19" height="15" viewBox="0 0 19 15" xmlns="http://www.w3.org/2000/svg">
<path d="M19.0005 1.77927C18.3219 2.07995 17.593 2.28311 16.8267 2.37493C17.6174 1.90181 18.2089 1.15718 18.4909 0.279967C17.7481 0.721218 16.935 1.03181 16.0872 1.19824C15.517 0.58947 14.7618 0.185967 13.9388 0.050377C13.1159 -0.0852125 12.2711 0.0546982 11.5358 0.448387C10.8005 0.842076 10.2157 1.46752 9.87229 2.22761C9.52885 2.9877 9.44596 3.83991 9.6365 4.65193C8.13125 4.57635 6.65871 4.18511 5.31445 3.5036C3.97019 2.82209 2.78425 1.86554 1.8336 0.696035C1.50855 1.25675 1.32164 1.90686 1.32164 2.59922C1.32128 3.22251 1.47477 3.83624 1.76849 4.38598C2.06221 4.93572 2.48709 5.40446 3.00542 5.75061C2.40429 5.73148 1.81643 5.56905 1.29076 5.27684V5.3256C1.2907 6.19978 1.59309 7.04707 2.14661 7.72368C2.70014 8.40029 3.47071 8.86456 4.32757 9.03771C3.76993 9.18863 3.18528 9.21086 2.61779 9.10272C2.85955 9.8549 3.33047 10.5127 3.96462 10.9839C4.59878 11.4551 5.36442 11.7163 6.15437 11.7308C4.81339 12.7835 3.15729 13.3545 1.45248 13.352C1.15049 13.3521 0.848752 13.3344 0.548828 13.2992C2.27931 14.4118 4.29372 15.0023 6.35103 15C13.3153 15 17.1225 9.23193 17.1225 4.22936C17.1225 4.06683 17.1184 3.90268 17.1111 3.74016C17.8516 3.20461 18.4909 2.54144 18.9988 1.78171L19.0005 1.77927Z"/>
</svg>
