<svg width="139" height="20" viewBox="0 0 139 20" fill="none" xmlns="http://www.w3.org/2000/svg">
<path d="M49.7344 12C49.7344 13.5797 48.4909 15 45.3749 15C42.4051 15 40.7373 13.8406 40.7373 11.5797V11.4928H42.9317V11.7536C42.9317 12.6522 43.3852 13.0145 45.3749 13.0145C47.1304 13.0145 47.54 12.7536 47.54 12.1014C47.54 11.5072 47.2035 11.2899 46.1941 11.1159L43.4438 10.7246C41.6882 10.4493 40.6495 9.57971 40.6495 8C40.6495 6.53623 41.8491 5 45.1408 5C48.1545 5 49.5589 6.37681 49.5589 8.42029V8.50725H47.3498V8.30435C47.3498 7.37681 46.8671 6.98551 44.9213 6.98551C43.3414 6.98551 42.8586 7.28985 42.8586 7.91304C42.8586 8.47826 43.1804 8.68116 43.9997 8.82609L46.75 9.26087C48.9445 9.6087 49.7344 10.6667 49.7344 12Z" fill="black"/>
<path fill-rule="evenodd" clip-rule="evenodd" d="M52.8225 12.1739V14.8551H50.6281V5.14493H55.7484C58.016 5.14493 59.4789 6.42029 59.4789 8.65217C59.4789 10.8841 58.016 12.1739 55.7484 12.1739H52.8225ZM57.2991 8.65217C57.2991 7.46377 56.7286 7.10145 55.5143 7.10145H52.8225V10.2174H55.5143C56.7286 10.2174 57.2991 9.86956 57.2991 8.65217Z" fill="black"/>
<path fill-rule="evenodd" clip-rule="evenodd" d="M62.993 12.7101L62.0567 14.8551H59.599L63.8854 5.14493H67.0161L71.3318 14.8551H68.8155L67.8939 12.7101H62.993ZM65.363 7.13043L64.7632 8.63768L63.8415 10.7536H67.0454L66.1237 8.63768L65.5239 7.13043H65.363Z" fill="black"/>
<path d="M81.8649 11.029C81.8649 13.4928 79.9192 15 76.8616 15C73.6285 15 71.6243 13.029 71.6243 10C71.6243 6.97101 73.6285 5 76.8616 5C79.9046 5 81.8649 6.50725 81.8649 8.97101V9.18841H79.4218V8.97101C79.4218 7.69565 78.6903 7.08696 76.9055 7.08696C74.755 7.08696 73.9504 7.84058 73.9504 10C73.9504 12.1594 74.755 12.913 76.9055 12.913C78.6903 12.913 79.4218 12.3043 79.4218 11.029V10.8116H81.8649V11.029Z" fill="black"/>
<path d="M85.0103 12.8986H91.1108V14.8551H82.8158V5.14493H91.1108V7.10145H85.0103V9H90.8913V10.942H85.0103V12.8986Z" fill="black"/>
<path d="M100.909 12C100.909 13.5797 99.6656 15 96.5495 15C93.5797 15 91.912 13.8406 91.912 11.5797V11.4928H94.1064V11.7536C94.1064 12.6522 94.5599 13.0145 96.5495 13.0145C98.305 13.0145 98.7147 12.7536 98.7147 12.1014C98.7147 11.5072 98.3782 11.2899 97.3688 11.1159L94.6184 10.7246C92.8629 10.4493 91.8242 9.57971 91.8242 8C91.8242 6.53623 93.0238 5 96.3154 5C99.3291 5 100.734 6.37681 100.734 8.42029V8.50725H98.5245V8.30435C98.5245 7.37681 98.0417 6.98551 96.096 6.98551C94.516 6.98551 94.0332 7.28985 94.0332 7.91304C94.0332 8.47826 94.3551 8.68116 95.1743 8.82609L97.9247 9.26087C100.119 9.6087 100.909 10.6667 100.909 12Z" fill="black"/>
<path d="M1.6702 6.08696V14.8551H3.04781V6.08696H4.66925V5.07246H0V6.08696H1.6702Z" fill="black"/>
<path d="M5.29205 5.07246L6.90129 14.8551H7.94974L9.33954 7.6087L10.7172 14.8551H11.7168L13.3017 5.07246H12.1801L11.1438 12.1377L9.80281 5.1087H8.82751L7.49866 12.1014L6.43803 5.07246H5.29205Z" fill="black"/>
<path d="M14.5759 5.07246V14.8551H15.9291V5.07246H14.5759Z" fill="black"/>
<path d="M18.6117 6.08696V14.8551H19.9894V6.08696H21.6108V5.07246H16.9415V6.08696H18.6117Z" fill="black"/>
<path d="M23.6478 6.08696V14.8551H25.0254V6.08696H26.6468V5.07246H21.9776V6.08696H23.6478Z" fill="black"/>
<path d="M27.5988 5.07246V14.8551H31.4512V13.8768H28.9764V10.2899H30.9636V9.32367H28.9764V6.08696H31.4268V5.07246H27.5988Z" fill="black"/>
<path fill-rule="evenodd" clip-rule="evenodd" d="M32.5634 5.07246V14.8551H33.941V10.2657H35.0138L36.3061 14.8551H37.6349L36.233 9.95169C36.5255 9.85507 36.7612 9.70209 36.94 9.49275C37.1188 9.27536 37.2489 9.01369 37.3302 8.70773C37.4114 8.39372 37.4521 8.0475 37.4521 7.66908C37.4521 7.04911 37.3464 6.54992 37.1351 6.1715C36.9319 5.78502 36.6149 5.50725 36.1842 5.33816C35.7534 5.16103 35.2089 5.07246 34.5506 5.07246H32.5634ZM34.4652 9.28744H33.941V6.05072H34.5506C35.1764 6.05072 35.5949 6.17955 35.8063 6.4372C36.0176 6.6868 36.1232 7.09742 36.1232 7.66908C36.1232 8.08776 36.0663 8.41385 35.9526 8.64734C35.8388 8.88084 35.66 9.04589 35.4161 9.14251C35.1723 9.23913 34.8553 9.28744 34.4652 9.28744Z" fill="black"/>
<path d="M133.131 6.18618C132.682 6.38663 132.199 6.52207 131.691 6.58329C132.215 6.26788 132.607 5.77145 132.794 5.18664C132.302 5.48081 131.763 5.68787 131.202 5.79883C130.824 5.39298 130.324 5.12398 129.779 5.03358C129.233 4.94319 128.674 5.03647 128.187 5.29892C127.7 5.56138 127.312 5.97834 127.085 6.48507C126.857 6.9918 126.803 7.55994 126.929 8.10129C125.932 8.0509 124.956 7.79008 124.066 7.33574C123.175 6.8814 122.39 6.2437 121.76 5.46402C121.545 5.83783 121.421 6.27124 121.421 6.73281C121.421 7.14834 121.523 7.5575 121.717 7.92399C121.912 8.29048 122.193 8.60297 122.536 8.83374C122.138 8.82099 121.749 8.7127 121.401 8.5179V8.5504C121.401 9.13319 121.601 9.69804 121.968 10.1491C122.334 10.6002 122.845 10.9097 123.412 11.0251C123.043 11.1258 122.656 11.1406 122.28 11.0685C122.44 11.5699 122.752 12.0084 123.172 12.3226C123.592 12.6368 124.099 12.8109 124.622 12.8205C123.734 13.5223 122.637 13.903 121.508 13.9013C121.308 13.9014 121.108 13.8896 120.909 13.8661C122.055 14.6079 123.39 15.0015 124.753 15C129.366 15 131.887 11.1546 131.887 7.81957C131.887 7.71122 131.885 7.60179 131.88 7.49344C132.37 7.13641 132.794 6.69429 133.13 6.18781L133.131 6.18618Z" fill="black"/>
</svg>
