<svg width="164" height="15" viewBox="0 0 164 15" fill="none" xmlns="http://www.w3.org/2000/svg">
<path d="M7.5 14.4785H7.69325L11.408 4.55828C12.589 1.33742 12.8896 1.07975 14.1135 0.950921L14.4571 0.907977L14.5215 0.779141H9.7546L9.81902 0.907977L10.2485 0.950921C12.3313 1.16564 12.2669 1.48773 11.2362 4.32209L8.65951 11.2577H8.61656L5.30982 2.69019C4.73006 1.18712 4.68712 0.972393 5.99693 0.929449L6.76994 0.907977L6.81288 0.779141H0.5L0.542945 0.907977L1.16564 0.950921C2.26074 1.03681 2.30368 1.23006 3.22699 3.59202L7.5 14.4785Z" fill="white"/>
<path d="M20.4645 14.5C24.5872 14.5 27.8939 11.1718 27.8939 7.52147C27.8939 3.35583 24.8234 0.5 20.6792 0.5C16.5994 0.5 13.2712 3.91411 13.2712 7.54294C13.2712 11.6656 16.3203 14.5 20.4645 14.5ZM20.6362 14.2638C17.7804 14.2638 15.9123 11.6656 15.9123 7.56442C15.9123 3.20552 17.6086 0.736197 20.5289 0.736197C23.3418 0.736197 25.2313 3.3773 25.2313 7.45706C25.2313 11.8374 23.5565 14.2638 20.6362 14.2638Z" fill="white"/>
<path d="M28.2665 14.2209H38.7235L39.4107 9.47546H39.2818L39.153 9.7546C37.9505 12.4816 37.1131 14.0276 34.3861 14.0276L32.5395 13.9202V1.3589C32.5395 1.20859 32.8616 1.07975 33.5702 1.01534L34.7941 0.929449L34.8585 0.800615H28.288L28.3524 0.929449L28.9751 0.993865C30.0702 1.10123 30.1346 1.14417 30.1346 1.29448V13.6626C30.1346 13.7914 29.9413 13.9202 29.1898 14.0061L28.3309 14.092L28.2665 14.2209Z" fill="white"/>
<path d="M39.7844 14.2209H46.1402L46.0758 14.092L45.3028 14.0276C44.2077 13.9202 44.0574 13.8773 44.0574 13.727V8.65951L45.7752 6.94172L48.4163 11.4724C49.6188 13.5552 49.6188 13.9632 48.5451 14.0491L48.0298 14.092L47.9869 14.2209H54.1494L54.085 14.092L53.6556 14.0491C52.7537 13.9847 52.5605 13.8344 51.5513 12.138L47.4286 5.26687L47.5359 5.13804C51.0145 1.59509 51.2507 1.1227 52.947 0.972393L53.312 0.929449L53.3764 0.800615H47.8151L47.858 0.929449L48.6096 0.993865C50.5635 1.16564 50.6494 1.63804 47.3427 5.0092L44.0574 8.3589V1.3589C44.0574 1.23006 44.358 1.07975 45.0881 1.01534L46.0973 0.929449L46.1617 0.800615H39.8059L39.8703 0.929449L40.493 0.993865C41.5881 1.10123 41.6525 1.14417 41.6525 1.29448V13.6626C41.6525 13.7914 41.4378 13.9202 40.7077 14.0061L39.8488 14.092L39.7844 14.2209Z" fill="white"/>
<path d="M53.8396 14.2209H64.9408L65.6279 9.79755L65.4776 9.77607L65.3703 10.0552C64.5114 12.2239 63.3733 13.9632 60.496 14.0061L58.1341 13.8988V7.41411L58.9071 7.45706C61.2261 7.58589 61.8917 7.84356 61.9991 9.45399L62.0206 9.77607L62.1709 9.79755L62.6862 4.96626L62.5359 4.94479L62.4071 5.28834C61.9347 6.72699 61.1617 7.09203 59.0789 7.19939L58.1341 7.22086V1.01534H60.0451C62.8365 0.993865 63.7169 2.26074 64.5328 4.81595L64.6187 5.09509L64.769 5.07362L64.5114 0.800615H53.8611L53.9255 0.929449L54.4838 0.993865C55.5789 1.10123 55.7077 1.14417 55.7077 1.29448V13.6626C55.7077 13.7914 55.3856 13.9202 54.6341 14.0061L53.904 14.092L53.8396 14.2209Z" fill="white"/>
<path d="M65.8767 14.2209H72.4902L72.4258 14.092L71.6098 14.0276C70.9657 13.9632 70.3859 13.8773 70.3859 13.727V7.1135C70.8154 7.28528 71.2663 7.43558 71.6957 7.54294L75.4534 13.8988L75.6252 14.2209H79.9841L79.8982 14.092L79.6405 14.0706C78.5025 13.9632 78.0516 13.5552 77.0638 12.0092L74.1651 7.54294C76.1405 7.17791 77.4718 5.84663 77.4718 4.27914C77.4718 1.93865 75.6037 0.779141 71.9963 0.779141L65.8982 0.800615L65.9626 0.929449L66.7356 0.993865C67.8307 1.10123 67.9595 1.14417 67.9595 1.29448V13.6626C67.9595 13.7914 67.4657 13.9417 66.9503 14.0061L65.9411 14.092L65.8767 14.2209ZM71.7816 7.17791C71.3307 7.17791 70.9013 7.07055 70.3859 6.92025V1.05828L71.2663 1.01534C73.6927 0.950921 74.9381 2.19632 74.9381 4.17178C74.9381 6.12577 73.7571 7.17791 71.7816 7.17791Z" fill="white"/>
<path d="M82.9414 14.2209H89.1254L89.061 14.092L88.4598 14.0276C87.3432 13.9202 87.2144 13.8773 87.2144 13.727V7.5H93.7205V13.6626C93.7205 13.7914 93.4414 13.9202 92.6899 14.0061L91.8524 14.092L91.788 14.2209H97.9721L97.9077 14.092L97.3494 14.0276C96.2543 13.9202 96.1254 13.8773 96.1254 13.727V1.3589C96.1254 1.23006 96.4046 1.10123 97.1346 1.01534L97.9291 0.929449L97.9935 0.800615H91.8095L91.8739 0.929449L92.4751 0.993865C93.5917 1.10123 93.7205 1.14417 93.7205 1.29448V7.28528H87.2144V1.3589C87.2144 1.23006 87.4935 1.10123 88.2451 1.01534L89.0825 0.929449L89.1469 0.800615H82.9629L83.0273 0.929449L83.5856 0.993865C84.6807 1.10123 84.8095 1.14417 84.8095 1.29448V13.6626C84.8095 13.7914 84.5303 13.9202 83.8003 14.0061L83.0058 14.092L82.9414 14.2209Z" fill="white"/>
<path d="M98.2128 14.2209H109.314L110.001 9.79755L109.851 9.77607L109.743 10.0552C108.885 12.2239 107.747 13.9632 104.869 14.0061L102.507 13.8988V7.41411L103.28 7.45706C105.599 7.58589 106.265 7.84356 106.372 9.45399L106.394 9.77607L106.544 9.79755L107.059 4.96626L106.909 4.94479L106.78 5.28834C106.308 6.72699 105.535 7.09203 103.452 7.19939L102.507 7.22086V1.01534H104.418C107.21 0.993865 108.09 2.26074 108.906 4.81595L108.992 5.09509L109.142 5.07362L108.885 0.800615H98.2343L98.2987 0.929449L98.857 0.993865C99.9521 1.10123 100.081 1.14417 100.081 1.29448V13.6626C100.081 13.7914 99.7588 13.9202 99.0073 14.0061L98.2772 14.092L98.2128 14.2209Z" fill="white"/>
<path d="M110.25 14.2209H116.863L116.799 14.092L115.983 14.0276C115.339 13.9632 114.759 13.8773 114.759 13.727V7.1135C115.189 7.28528 115.639 7.43558 116.069 7.54294L119.827 13.8988L119.998 14.2209H124.357L124.271 14.092L124.014 14.0706C122.876 13.9632 122.425 13.5552 121.437 12.0092L118.538 7.54294C120.514 7.17791 121.845 5.84663 121.845 4.27914C121.845 1.93865 119.977 0.779141 116.37 0.779141L110.271 0.800615L110.336 0.929449L111.109 0.993865C112.204 1.10123 112.333 1.14417 112.333 1.29448V13.6626C112.333 13.7914 111.839 13.9417 111.324 14.0061L110.314 14.092L110.25 14.2209ZM116.155 7.17791C115.704 7.17791 115.274 7.07055 114.759 6.92025V1.05828L115.639 1.01534C118.066 0.950921 119.311 2.19632 119.311 4.17178C119.311 6.12577 118.13 7.17791 116.155 7.17791Z" fill="white"/>
<path d="M124.015 14.2209H128.953L128.889 14.092L128.502 14.0706C126.827 13.9847 126.419 13.6196 126.419 13.2546L126.634 1.72393C126.72 1.83129 126.87 2.06748 126.935 2.30368L131.444 14.2209H131.637L136.469 1.7454H136.49L136.748 13.6626C136.748 13.7914 136.576 13.9417 135.867 14.0061L134.837 14.092L134.772 14.2209H141.064L140.999 14.092L140.377 14.0276C139.303 13.9202 139.174 13.8773 139.174 13.727L138.938 1.3589C138.938 1.23006 139.238 1.07975 139.947 1.01534L141.021 0.929449L141.085 0.800615H136.576L132.625 11.0215H132.604L128.824 0.800615H124.423L124.487 0.929449L125.088 0.972393C125.668 1.03681 126.097 1.14417 126.441 1.44479L126.162 13.1687C126.162 13.5982 125.947 13.9847 124.487 14.0706L124.079 14.092L124.015 14.2209Z" fill="white"/>
<path d="M141.28 14.2209H152.381L153.068 9.79755L152.918 9.77607L152.811 10.0552C151.952 12.2239 150.814 13.9632 147.936 14.0061L145.575 13.8988V7.41411L146.348 7.45706C148.667 7.58589 149.332 7.84356 149.44 9.45399L149.461 9.77607L149.611 9.79755L150.127 4.96626L149.976 4.94479L149.848 5.28834C149.375 6.72699 148.602 7.09203 146.519 7.19939L145.575 7.22086V1.01534H147.486C150.277 0.993865 151.157 2.26074 151.973 4.81595L152.059 5.09509L152.209 5.07362L151.952 0.800615H141.301L141.366 0.929449L141.924 0.993865C143.019 1.10123 143.148 1.14417 143.148 1.29448V13.6626C143.148 13.7914 142.826 13.9202 142.075 14.0061L141.344 14.092L141.28 14.2209Z" fill="white"/>
<path d="M158.277 14.5C161.219 14.5 163.194 12.3098 163.194 10.184C163.194 7.82209 161.605 6.76994 159.222 5.93252C157.504 5.33129 156.13 4.66564 156.13 3.05521C156.13 1.72393 157.204 0.714725 158.621 0.714725C159.587 0.714725 160.253 1.03681 160.79 1.44479L162.379 4.36503H162.486L162.443 0.736197L161.627 1.01534C160.832 0.779141 159.802 0.5 158.642 0.5C155.98 0.5 154.305 2.34663 154.305 4.32209C154.305 6.46933 155.958 7.43558 158.063 8.18712C159.952 8.85276 161.262 9.6043 161.262 11.365C161.262 13.0828 160.102 14.2853 158.32 14.2853C156.731 14.2853 155.529 13.5552 154.713 11.8804L154.004 10.4202H153.875L154.047 13.7485C155.228 14.1564 156.86 14.5 158.277 14.5Z" fill="white"/>
</svg>
