<svg width="140" height="13" viewBox="0 0 140 13" fill="none" xmlns="http://www.w3.org/2000/svg">
<path d="M6.00678 11.9951H6.17261L9.36026 3.48246C10.3737 0.718603 10.6316 0.497494 11.6819 0.38694L11.9767 0.350089L12.032 0.239534H7.94148L7.99676 0.350089L8.36527 0.38694C10.1526 0.571197 10.0973 0.847583 9.21285 3.27978L7.00177 9.23128H6.96492L4.12736 1.87942C3.62986 0.589623 3.59301 0.405366 4.71698 0.368515L5.38031 0.350089L5.41716 0.239534H0L0.0368514 0.350089L0.571197 0.38694C1.51091 0.460643 1.54776 0.626475 2.34007 2.6533L6.00678 11.9951Z" fill="black"/>
<path d="M17.1317 12.0136C20.6695 12.0136 23.507 9.15758 23.507 6.02521C23.507 2.45062 20.8722 0 17.316 0C13.8151 0 10.9591 2.92969 10.9591 6.04363C10.9591 9.58137 13.5756 12.0136 17.1317 12.0136ZM17.2791 11.8109C14.8285 11.8109 13.2255 9.58137 13.2255 6.06206C13.2255 2.32164 14.6811 0.202683 17.187 0.202683C19.6008 0.202683 21.2222 2.46905 21.2222 5.96993C21.2222 9.72877 19.785 11.8109 17.2791 11.8109Z" fill="black"/>
<path d="M23.8267 11.774H32.8001L33.3897 7.70195H33.2791L33.1686 7.94148C32.1367 10.2815 31.4181 11.6082 29.0781 11.6082L27.4935 11.5161V0.737029C27.4935 0.608049 27.7698 0.497494 28.3779 0.442218L29.4282 0.368515L29.4834 0.257961H23.8452L23.9004 0.368515L24.4348 0.423791C25.3745 0.515921 25.4298 0.552772 25.4298 0.681751V11.295C25.4298 11.4055 25.2639 11.5161 24.619 11.5898L23.882 11.6635L23.8267 11.774Z" fill="black"/>
<path d="M33.7104 11.774H39.1644L39.1091 11.6635L38.4458 11.6082C37.5061 11.5161 37.3771 11.4792 37.3771 11.3502V7.00177L38.8512 5.52771L41.1175 9.41554C42.1494 11.2028 42.1494 11.5529 41.2281 11.6266L40.7859 11.6635L40.749 11.774H46.0372L45.9819 11.6635L45.6134 11.6266C44.8395 11.5713 44.6737 11.4424 43.8077 9.98673L40.27 4.09051L40.3621 3.97995C43.3471 0.939712 43.5497 0.534346 45.0054 0.405366L45.3186 0.368515L45.3739 0.257961H40.6016L40.6385 0.368515L41.2834 0.423791C42.9601 0.571197 43.0338 0.976563 40.1963 3.8694L37.3771 6.74381V0.737029C37.3771 0.626475 37.6351 0.497494 38.2616 0.442218L39.1276 0.368515L39.1828 0.257961H33.7288L33.7841 0.368515L34.3185 0.423791C35.2582 0.515921 35.3134 0.552772 35.3134 0.681751V11.295C35.3134 11.4055 35.1292 11.5161 34.5027 11.5898L33.7657 11.6635L33.7104 11.774Z" fill="black"/>
<path d="M45.7713 11.774H55.2974L55.887 7.97833L55.7581 7.95991L55.6659 8.19944C54.9289 10.0604 53.9523 11.5529 51.4833 11.5898L49.4565 11.4976V5.93308L50.1198 5.96993C52.1098 6.08048 52.681 6.30159 52.7731 7.68352L52.7915 7.95991L52.9205 7.97833L53.3627 3.83255L53.2337 3.81412L53.1232 4.10893C52.7178 5.34346 52.0545 5.65669 50.2672 5.74882L49.4565 5.76725V0.442218H51.0964C53.4917 0.423791 54.2472 1.51091 54.9473 3.70357L55.021 3.9431L55.15 3.92468L54.9289 0.257961H45.7898L45.845 0.368515L46.3241 0.423791C47.2638 0.515921 47.3744 0.552772 47.3744 0.681751V11.295C47.3744 11.4055 47.098 11.5161 46.4531 11.5898L45.8266 11.6635L45.7713 11.774Z" fill="black"/>
<path d="M56.1005 11.774H61.7756L61.7204 11.6635L61.0202 11.6082C60.4674 11.5529 59.9699 11.4792 59.9699 11.3502V5.67512C60.3384 5.82252 60.7254 5.9515 61.0939 6.04363L64.3184 11.4976L64.4658 11.774H68.2062L68.1325 11.6635L67.9114 11.645C66.9348 11.5529 66.5479 11.2028 65.7003 9.87618L63.2128 6.04363C64.908 5.7304 66.0504 4.588 66.0504 3.24292C66.0504 1.23452 64.4474 0.239534 61.3518 0.239534L56.1189 0.257961L56.1742 0.368515L56.8376 0.423791C57.7773 0.515921 57.8878 0.552772 57.8878 0.681751V11.295C57.8878 11.4055 57.464 11.5345 57.0218 11.5898L56.1558 11.6635L56.1005 11.774ZM61.1676 5.7304C60.7807 5.7304 60.4121 5.63827 59.9699 5.50929V0.479069L60.7254 0.442218C62.8075 0.38694 63.8762 1.45563 63.8762 3.1508C63.8762 4.82754 62.8628 5.7304 61.1676 5.7304Z" fill="black"/>
<path d="M70.7439 11.774H76.0505L75.9952 11.6635L75.4793 11.6082C74.5212 11.5161 74.4106 11.4792 74.4106 11.3502V6.00678H79.9936V11.295C79.9936 11.4055 79.7541 11.5161 79.1092 11.5898L78.3906 11.6635L78.3353 11.774H83.6419L83.5866 11.6635L83.1076 11.6082C82.1679 11.5161 82.0573 11.4792 82.0573 11.3502V0.737029C82.0573 0.626475 82.2968 0.515921 82.9233 0.442218L83.6051 0.368515L83.6603 0.257961H78.3537L78.409 0.368515L78.9249 0.423791C79.8831 0.515921 79.9936 0.552772 79.9936 0.681751V5.82252H74.4106V0.737029C74.4106 0.626475 74.6502 0.515921 75.2951 0.442218L76.0137 0.368515L76.0689 0.257961H70.7623L70.8176 0.368515L71.2967 0.423791C72.2364 0.515921 72.347 0.552772 72.347 0.681751V11.295C72.347 11.4055 72.1074 11.5161 71.4809 11.5898L70.7992 11.6635L70.7439 11.774Z" fill="black"/>
<path d="M83.8485 11.774H93.3746L93.9642 7.97833L93.8352 7.95991L93.7431 8.19944C93.0061 10.0604 92.0295 11.5529 89.5605 11.5898L87.5336 11.4976V5.93308L88.197 5.96993C90.1869 6.08048 90.7581 6.30159 90.8503 7.68352L90.8687 7.95991L90.9977 7.97833L91.4399 3.83255L91.3109 3.81412L91.2003 4.10893C90.795 5.34346 90.1317 5.65669 88.3444 5.74882L87.5336 5.76725V0.442218H89.1735C91.5689 0.423791 92.3243 1.51091 93.0245 3.70357L93.0982 3.9431L93.2272 3.92468L93.0061 0.257961H83.8669L83.9222 0.368515L84.4013 0.423791C85.341 0.515921 85.4515 0.552772 85.4515 0.681751V11.295C85.4515 11.4055 85.1751 11.5161 84.5302 11.5898L83.9038 11.6635L83.8485 11.774Z" fill="black"/>
<path d="M94.1777 11.774H99.8528L99.7975 11.6635L99.0973 11.6082C98.5446 11.5529 98.0471 11.4792 98.0471 11.3502V5.67512C98.4156 5.82252 98.8025 5.9515 99.171 6.04363L102.396 11.4976L102.543 11.774H106.283L106.21 11.6635L105.989 11.645C105.012 11.5529 104.625 11.2028 103.777 9.87618L101.29 6.04363C102.985 5.7304 104.128 4.588 104.128 3.24292C104.128 1.23452 102.525 0.239534 99.429 0.239534L94.1961 0.257961L94.2514 0.368515L94.9147 0.423791C95.8544 0.515921 95.965 0.552772 95.965 0.681751V11.295C95.965 11.4055 95.5412 11.5345 95.099 11.5898L94.233 11.6635L94.1777 11.774ZM99.2448 5.7304C98.8578 5.7304 98.4893 5.63827 98.0471 5.50929V0.479069L98.8025 0.442218C100.885 0.38694 101.953 1.45563 101.953 3.1508C101.953 4.82754 100.94 5.7304 99.2448 5.7304Z" fill="black"/>
<path d="M105.989 11.774H110.227L110.172 11.6635L109.84 11.645C108.403 11.5713 108.053 11.2581 108.053 10.9449L108.237 1.05027C108.311 1.14239 108.44 1.34508 108.495 1.54776L112.365 11.774H112.53L116.676 1.06869H116.695L116.916 11.295C116.916 11.4055 116.768 11.5345 116.16 11.5898L115.276 11.6635L115.221 11.774H120.619L120.564 11.6635L120.03 11.6082C119.108 11.5161 118.998 11.4792 118.998 11.3502L118.795 0.737029C118.795 0.626475 119.053 0.497494 119.661 0.442218L120.582 0.368515L120.638 0.257961H116.768L113.378 9.0286H113.36L110.117 0.257961H106.339L106.395 0.368515L106.911 0.405366C107.408 0.460643 107.777 0.552772 108.071 0.810732L107.832 10.8712C107.832 11.2397 107.648 11.5713 106.395 11.645L106.045 11.6635L105.989 11.774Z" fill="black"/>
<path d="M120.805 11.774H130.331L130.921 7.97833L130.792 7.95991L130.7 8.19944C129.963 10.0604 128.986 11.5529 126.517 11.5898L124.49 11.4976V5.93308L125.153 5.96993C127.143 6.08048 127.715 6.30159 127.807 7.68352L127.825 7.95991L127.954 7.97833L128.396 3.83255L128.267 3.81412L128.157 4.10893C127.751 5.34346 127.088 5.65669 125.301 5.74882L124.49 5.76725V0.442218H126.13C128.525 0.423791 129.281 1.51091 129.981 3.70357L130.055 3.9431L130.184 3.92468L129.963 0.257961H120.823L120.879 0.368515L121.358 0.423791C122.297 0.515921 122.408 0.552772 122.408 0.681751V11.295C122.408 11.4055 122.132 11.5161 121.487 11.5898L120.86 11.6635L120.805 11.774Z" fill="black"/>
<path d="M135.391 12.0136C137.915 12.0136 139.61 10.1341 139.61 8.31C139.61 6.28317 138.247 5.38031 136.201 4.66171C134.727 4.14578 133.548 3.57459 133.548 2.19266C133.548 1.05027 134.469 0.184258 135.685 0.184258C136.514 0.184258 137.086 0.460643 137.546 0.810732L138.91 3.31663H139.002L138.965 0.202683L138.265 0.442218C137.583 0.239534 136.699 0 135.704 0C133.419 0 131.982 1.58461 131.982 3.27978C131.982 5.12235 133.401 5.9515 135.206 6.5964C136.828 7.1676 137.952 7.8125 137.952 9.32341C137.952 10.7975 136.957 11.8293 135.427 11.8293C134.064 11.8293 133.032 11.2028 132.332 9.76563L131.724 8.51268H131.613L131.761 11.3687C132.774 11.7188 134.174 12.0136 135.391 12.0136Z" fill="black"/>
</svg>
