<svg width="303" height="26" viewBox="0 0 303 26" fill="none" xmlns="http://www.w3.org/2000/svg">
<path d="M13 25.9601H13.3589L20.2577 7.53681C22.4509 1.55522 23.0092 1.07669 25.2822 0.837424L25.9202 0.757671L26.0399 0.518405H17.1871L17.3067 0.757671L18.1043 0.837424C21.9724 1.2362 21.8528 1.83436 19.9387 7.09816L15.1534 19.9785H15.0736L8.93252 4.06749C7.85583 1.27607 7.77607 0.877301 10.2086 0.797548L11.6442 0.757671L11.7239 0.518405H0L0.0797546 0.757671L1.2362 0.837424C3.26994 0.996934 3.34969 1.35583 5.06442 5.74233L13 25.9601Z" fill="black"/>
<path d="M37.0769 26C44.7333 26 50.8744 19.819 50.8744 13.0399C50.8744 5.30368 45.1719 0 37.4756 0C29.8989 0 23.718 6.34049 23.718 13.0798C23.718 20.7362 29.3805 26 37.0769 26ZM37.3959 25.5613C32.0922 25.5613 28.6229 20.7362 28.6229 13.1196C28.6229 5.02454 31.7732 0.438652 37.1965 0.438652C42.4204 0.438652 45.9296 5.34356 45.9296 12.9202C45.9296 21.0552 42.8192 25.5613 37.3959 25.5613Z" fill="black"/>
<path d="M51.5663 25.4816H70.9866L72.2626 16.6687H72.0234L71.7841 17.1871C69.551 22.2515 67.9958 25.1227 62.9314 25.1227L59.5019 24.9233V1.59509C59.5019 1.31595 60.1001 1.07669 61.416 0.957057L63.689 0.797548L63.8087 0.558285H51.6062L51.7258 0.797548L52.8823 0.917178C54.916 1.11657 55.0357 1.19632 55.0357 1.47546V24.4448C55.0357 24.684 54.6768 24.9233 53.2811 25.0828L51.686 25.2423L51.5663 25.4816Z" fill="black"/>
<path d="M72.9568 25.4816H84.7604L84.6408 25.2423L83.2052 25.1227C81.1715 24.9233 80.8923 24.8436 80.8923 24.5644V15.1534L84.0825 11.9632L88.9874 20.3773C91.2206 24.2454 91.2206 25.0031 89.2267 25.1626L88.2696 25.2423L88.1899 25.4816H99.6347L99.515 25.2423L98.7175 25.1626C97.0426 25.0429 96.6837 24.7638 94.8095 21.6135L87.1531 8.85276L87.3525 8.6135C93.8126 2.03374 94.2512 1.15644 97.4015 0.877301L98.0795 0.797548L98.1991 0.558285H87.8709L87.9506 0.797548L89.3463 0.917178C92.9752 1.2362 93.1347 2.1135 86.9936 8.37423L80.8923 14.5951V1.59509C80.8923 1.35583 81.4506 1.07669 82.8064 0.957057L84.6807 0.797548L84.8003 0.558285H72.9966L73.1163 0.797548L74.2727 0.917178C76.3064 1.11657 76.4261 1.19632 76.4261 1.47546V24.4448C76.4261 24.684 76.0273 24.9233 74.6715 25.0828L73.0764 25.2423L72.9568 25.4816Z" fill="black"/>
<path d="M99.0592 25.4816H119.676L120.952 17.2669L120.673 17.227L120.473 17.7454C118.878 21.773 116.765 25.0031 111.421 25.0828L107.035 24.8834V12.8405L108.47 12.9202C112.777 13.1595 114.013 13.638 114.213 16.6288L114.253 17.227L114.532 17.2669L115.489 8.29448L115.21 8.2546L114.97 8.89264C114.093 11.5644 112.657 12.2423 108.789 12.4417L107.035 12.4816V0.957057H110.584C115.768 0.917178 117.403 3.26994 118.918 8.01534L119.078 8.53374L119.357 8.49387L118.878 0.558285H99.0991L99.2188 0.797548L100.256 0.917178C102.289 1.11657 102.529 1.19632 102.529 1.47546V24.4448C102.529 24.684 101.93 24.9233 100.535 25.0828L99.1789 25.2423L99.0592 25.4816Z" fill="black"/>
<path d="M121.414 25.4816H133.696L133.576 25.2423L132.061 25.1227C130.865 25.0031 129.788 24.8436 129.788 24.5644V12.2822C130.586 12.6012 131.423 12.8804 132.221 13.0798L139.199 24.8834L139.518 25.4816H147.613L147.454 25.2423L146.975 25.2025C144.862 25.0031 144.024 24.2454 142.19 21.3742L136.807 13.0798C140.475 12.4018 142.948 9.92945 142.948 7.01841C142.948 2.67178 139.478 0.518405 132.779 0.518405L121.454 0.558285L121.573 0.797548L123.009 0.917178C125.043 1.11657 125.282 1.19632 125.282 1.47546V24.4448C125.282 24.684 124.365 24.9632 123.408 25.0828L121.534 25.2423L121.414 25.4816ZM132.38 12.4018C131.543 12.4018 130.745 12.2025 129.788 11.9233V1.03681L131.423 0.957057C135.929 0.837424 138.242 3.15031 138.242 6.81902C138.242 10.4479 136.049 12.4018 132.38 12.4018Z" fill="black"/>
<path d="M153.105 25.4816H164.59L164.47 25.2423L163.354 25.1227C161.28 24.9233 161.041 24.8436 161.041 24.5644V13H173.124V24.4448C173.124 24.684 172.605 24.9233 171.21 25.0828L169.655 25.2423L169.535 25.4816H181.02L180.9 25.2423L179.863 25.1227C177.829 24.9233 177.59 24.8436 177.59 24.5644V1.59509C177.59 1.35583 178.109 1.11657 179.464 0.957057L180.94 0.797548L181.059 0.558285H169.575L169.694 0.797548L170.811 0.917178C172.885 1.11657 173.124 1.19632 173.124 1.47546V12.6012H161.041V1.59509C161.041 1.35583 161.559 1.11657 162.955 0.957057L164.51 0.797548L164.63 0.558285H153.145L153.265 0.797548L154.302 0.917178C156.336 1.11657 156.575 1.19632 156.575 1.47546V24.4448C156.575 24.684 156.056 24.9233 154.701 25.0828L153.225 25.2423L153.105 25.4816Z" fill="black"/>
<path d="M181.467 25.4816H202.083L203.359 17.2669L203.08 17.227L202.881 17.7454C201.286 21.773 199.172 25.0031 193.829 25.0828L189.442 24.8834V12.8405L190.878 12.9202C195.184 13.1595 196.421 13.638 196.62 16.6288L196.66 17.227L196.939 17.2669L197.896 8.29448L197.617 8.2546L197.378 8.89264C196.5 11.5644 195.065 12.2423 191.197 12.4417L189.442 12.4816V0.957057H192.991C198.175 0.917178 199.81 3.26994 201.326 8.01534L201.485 8.53374L201.764 8.49387L201.286 0.558285H181.507L181.626 0.797548L182.663 0.917178C184.697 1.11657 184.936 1.19632 184.936 1.47546V24.4448C184.936 24.684 184.338 24.9233 182.942 25.0828L181.586 25.2423L181.467 25.4816Z" fill="black"/>
<path d="M203.821 25.4816H216.103L215.984 25.2423L214.469 25.1227C213.272 25.0031 212.195 24.8436 212.195 24.5644V12.2822C212.993 12.6012 213.83 12.8804 214.628 13.0798L221.607 24.8834L221.926 25.4816H230.021L229.861 25.2423L229.383 25.2025C227.269 25.0031 226.432 24.2454 224.597 21.3742L219.214 13.0798C222.883 12.4018 225.355 9.92945 225.355 7.01841C225.355 2.67178 221.886 0.518405 215.186 0.518405L203.861 0.558285L203.981 0.797548L205.416 0.917178C207.45 1.11657 207.689 1.19632 207.689 1.47546V24.4448C207.689 24.684 206.772 24.9632 205.815 25.0828L203.941 25.2423L203.821 25.4816ZM214.788 12.4018C213.95 12.4018 213.153 12.2025 212.195 11.9233V1.03681L213.83 0.957057C218.337 0.837424 220.649 3.15031 220.649 6.81902C220.649 10.4479 218.456 12.4018 214.788 12.4018Z" fill="black"/>
<path d="M229.384 25.4816H238.556L238.436 25.2423L237.719 25.2025C234.608 25.0429 233.85 24.365 233.85 23.6871L234.249 2.27301C234.409 2.47239 234.688 2.91104 234.807 3.3497L243.182 25.4816H243.541L252.513 2.31288H252.553L253.031 24.4448C253.031 24.684 252.712 24.9632 251.396 25.0828L249.482 25.2423L249.363 25.4816H261.047L260.927 25.2423L259.771 25.1227C257.777 24.9233 257.538 24.8436 257.538 24.5644L257.099 1.59509C257.099 1.35583 257.657 1.07669 258.973 0.957057L260.967 0.797548L261.087 0.558285H252.712L245.375 19.5399H245.335L238.317 0.558285H230.142L230.261 0.797548L231.378 0.877301C232.455 0.996934 233.252 1.19632 233.89 1.7546L233.372 23.5276C233.372 24.3252 232.973 25.0429 230.261 25.2025L229.504 25.2423L229.384 25.4816Z" fill="black"/>
<path d="M261.449 25.4816H282.065L283.341 17.2669L283.062 17.227L282.863 17.7454C281.268 21.773 279.154 25.0031 273.811 25.0828L269.424 24.8834V12.8405L270.86 12.9202C275.166 13.1595 276.403 13.638 276.602 16.6288L276.642 17.227L276.921 17.2669L277.878 8.29448L277.599 8.2546L277.36 8.89264C276.482 11.5644 275.047 12.2423 271.179 12.4417L269.424 12.4816V0.957057H272.973C278.157 0.917178 279.792 3.26994 281.308 8.01534L281.467 8.53374L281.746 8.49387L281.268 0.558285H261.488L261.608 0.797548L262.645 0.917178C264.679 1.11657 264.918 1.19632 264.918 1.47546V24.4448C264.918 24.684 264.32 24.9233 262.924 25.0828L261.568 25.2423L261.449 25.4816Z" fill="black"/>
<path d="M293.015 26C298.478 26 302.147 21.9325 302.147 17.9847C302.147 13.5982 299.196 11.6442 294.77 10.089C291.579 8.97239 289.027 7.7362 289.027 4.7454C289.027 2.27301 291.021 0.398775 293.653 0.398775C295.447 0.398775 296.684 0.996934 297.681 1.7546L300.632 7.17792H300.831L300.751 0.438652L299.236 0.957057C297.76 0.518405 295.846 0 293.693 0C288.748 0 285.638 3.42945 285.638 7.09816C285.638 11.0859 288.708 12.8804 292.616 14.2761C296.125 15.5123 298.558 16.908 298.558 20.1779C298.558 23.3681 296.405 25.6012 293.095 25.6012C290.144 25.6012 287.911 24.2454 286.395 21.135L285.079 18.4233H284.84L285.159 24.6043C287.352 25.362 290.383 26 293.015 26Z" fill="black"/>
</svg>
