<svg width="350" height="30" viewBox="0 0 350 30" fill="none" xmlns="http://www.w3.org/2000/svg">
<path d="M15.6846 29.954H16.0987L24.0588 8.69632C26.5895 1.79448 27.2336 1.24233 29.8563 0.966259L30.5925 0.874236L30.7306 0.59816H20.5159L20.6539 0.874236L21.5741 0.966259C26.0373 1.42638 25.8993 2.11656 23.6907 8.19018L18.1692 23.0521H18.0772L10.9913 4.69325C9.74899 1.47239 9.65696 1.01227 12.4637 0.920247L14.1202 0.874236L14.2122 0.59816H0.68457L0.776595 0.874236L2.11095 0.966259C4.45758 1.15031 4.5496 1.56442 6.52813 6.62577L15.6846 29.954Z" fill="black"/>
<path d="M43.4656 30C52.2999 30 59.3858 22.8681 59.3858 15.046C59.3858 6.11963 52.806 0 43.9257 0C35.1833 0 28.0514 7.31595 28.0514 15.092C28.0514 23.9264 34.5852 30 43.4656 30ZM43.8336 29.4939C37.714 29.4939 33.711 23.9264 33.711 15.138C33.711 5.79755 37.3459 0.506137 43.6036 0.506137C49.6312 0.506137 53.6803 6.16565 53.6803 14.908C53.6803 24.2945 50.0913 29.4939 43.8336 29.4939Z" fill="black"/>
<path d="M60.1842 29.4018H82.5921L84.0646 19.2331H83.7885L83.5124 19.8313C80.9357 25.6748 79.1412 28.9877 73.2977 28.9877L69.3406 28.7577V1.84049C69.3406 1.51841 70.0308 1.24233 71.5492 1.1043L74.1719 0.920247L74.3099 0.644174H60.2302L60.3682 0.920247L61.7026 1.05828C64.0492 1.28835 64.1872 1.38037 64.1872 1.70245V28.2055C64.1872 28.4816 63.7731 28.7577 62.1627 28.9417L60.3222 29.1258L60.1842 29.4018Z" fill="black"/>
<path d="M84.8654 29.4018H98.4851L98.347 29.1258L96.6906 28.9877C94.344 28.7577 94.0219 28.6656 94.0219 28.3436V17.4847L97.7029 13.8037L103.362 23.5123C105.939 27.9755 105.939 28.8497 103.638 29.0337L102.534 29.1258L102.442 29.4018H115.648L115.51 29.1258L114.589 29.0337C112.657 28.8957 112.243 28.5736 110.08 24.9387L101.246 10.2147L101.476 9.93865C108.93 2.34663 109.436 1.33436 113.071 1.01227L113.853 0.920247L113.991 0.644174H102.074L102.166 0.920247L103.776 1.05828C107.964 1.42638 108.148 2.43865 101.062 9.66258L94.0219 16.8405V1.84049C94.0219 1.56442 94.6661 1.24233 96.2305 1.1043L98.3931 0.920247L98.5311 0.644174H84.9115L85.0495 0.920247L86.3839 1.05828C88.7305 1.28835 88.8685 1.38037 88.8685 1.70245V28.2055C88.8685 28.4816 88.4084 28.7577 86.844 28.9417L85.0035 29.1258L84.8654 29.4018Z" fill="black"/>
<path d="M114.984 29.4018H138.772L140.244 19.9233L139.922 19.8773L139.692 20.4755C137.852 25.1227 135.413 28.8497 129.248 28.9417L124.186 28.7117V14.816L125.843 14.908C130.812 15.184 132.238 15.7362 132.468 19.1871L132.514 19.8773L132.836 19.9233L133.941 9.57055L133.619 9.52454L133.343 10.2607C132.33 13.3436 130.674 14.1258 126.211 14.3558L124.186 14.4018V1.1043H128.281C134.263 1.05828 136.149 3.77301 137.898 9.24847L138.082 9.84663L138.404 9.80061L137.852 0.644174H115.03L115.168 0.920247L116.364 1.05828C118.711 1.28835 118.987 1.38037 118.987 1.70245V28.2055C118.987 28.4816 118.297 28.7577 116.686 28.9417L115.122 29.1258L114.984 29.4018Z" fill="black"/>
<path d="M140.778 29.4018H154.949L154.811 29.1258L153.063 28.9877C151.682 28.8497 150.44 28.6656 150.44 28.3436V14.1718C151.36 14.5399 152.327 14.862 153.247 15.092L161.299 28.7117L161.667 29.4018H171.008L170.824 29.1258L170.271 29.0798C167.833 28.8497 166.867 27.9755 164.75 24.6626L158.538 15.092C162.771 14.3098 165.624 11.4571 165.624 8.09816C165.624 3.08282 161.621 0.59816 153.891 0.59816L140.824 0.644174L140.962 0.920247L142.618 1.05828C144.965 1.28835 145.241 1.38037 145.241 1.70245V28.2055C145.241 28.4816 144.182 28.8037 143.078 28.9417L140.916 29.1258L140.778 29.4018ZM153.431 14.3098C152.465 14.3098 151.544 14.0798 150.44 13.7577V1.19632L152.327 1.1043C157.526 0.966259 160.195 3.63497 160.195 7.8681C160.195 12.0552 157.664 14.3098 153.431 14.3098Z" fill="black"/>
<path d="M177.345 29.4018H190.596L190.458 29.1258L189.17 28.9877C186.777 28.7577 186.501 28.6656 186.501 28.3436V15H200.443V28.2055C200.443 28.4816 199.845 28.7577 198.234 28.9417L196.44 29.1258L196.302 29.4018H209.553L209.415 29.1258L208.219 28.9877C205.872 28.7577 205.596 28.6656 205.596 28.3436V1.84049C205.596 1.56442 206.194 1.28835 207.759 1.1043L209.461 0.920247L209.599 0.644174H196.348L196.486 0.920247L197.774 1.05828C200.167 1.28835 200.443 1.38037 200.443 1.70245V14.5399H186.501V1.84049C186.501 1.56442 187.099 1.28835 188.71 1.1043L190.504 0.920247L190.642 0.644174H177.391L177.529 0.920247L178.725 1.05828C181.072 1.28835 181.348 1.38037 181.348 1.70245V28.2055C181.348 28.4816 180.75 28.7577 179.185 28.9417L177.483 29.1258L177.345 29.4018Z" fill="black"/>
<path d="M210.069 29.4018H233.857L235.33 19.9233L235.008 19.8773L234.778 20.4755C232.937 25.1227 230.499 28.8497 224.333 28.9417L219.272 28.7117V14.816L220.928 14.908C225.897 15.184 227.324 15.7362 227.554 19.1871L227.6 19.8773L227.922 19.9233L229.026 9.57055L228.704 9.52454L228.428 10.2607C227.416 13.3436 225.759 14.1258 221.296 14.3558L219.272 14.4018V1.1043H223.367C229.348 1.05828 231.235 3.77301 232.983 9.24847L233.167 9.84663L233.489 9.80061L232.937 0.644174H210.115L210.253 0.920247L211.449 1.05828C213.796 1.28835 214.072 1.38037 214.072 1.70245V28.2055C214.072 28.4816 213.382 28.7577 211.772 28.9417L210.207 29.1258L210.069 29.4018Z" fill="black"/>
<path d="M235.863 29.4018H250.035L249.897 29.1258L248.148 28.9877C246.768 28.8497 245.526 28.6656 245.526 28.3436V14.1718C246.446 14.5399 247.412 14.862 248.332 15.092L256.384 28.7117L256.753 29.4018H266.093L265.909 29.1258L265.357 29.0798C262.918 28.8497 261.952 27.9755 259.835 24.6626L253.624 15.092C257.857 14.3098 260.71 11.4571 260.71 8.09816C260.71 3.08282 256.707 0.59816 248.976 0.59816L235.909 0.644174L236.047 0.920247L237.703 1.05828C240.05 1.28835 240.326 1.38037 240.326 1.70245V28.2055C240.326 28.4816 239.268 28.8037 238.164 28.9417L236.001 29.1258L235.863 29.4018ZM248.516 14.3098C247.55 14.3098 246.63 14.0798 245.526 13.7577V1.19632L247.412 1.1043C252.611 0.966259 255.28 3.63497 255.28 7.8681C255.28 12.0552 252.749 14.3098 248.516 14.3098Z" fill="black"/>
<path d="M265.359 29.4018H275.941L275.803 29.1258L274.975 29.0798C271.386 28.8957 270.512 28.1135 270.512 27.3313L270.972 2.6227C271.156 2.85276 271.478 3.3589 271.616 3.86503L281.279 29.4018H281.693L292.046 2.66871H292.092L292.644 28.2055C292.644 28.4816 292.276 28.8037 290.757 28.9417L288.549 29.1258L288.411 29.4018H301.892L301.754 29.1258L300.42 28.9877C298.119 28.7577 297.843 28.6656 297.843 28.3436L297.337 1.84049C297.337 1.56442 297.981 1.24233 299.5 1.1043L301.8 0.920247L301.938 0.644174H292.276L283.81 22.546H283.764L275.665 0.644174H266.233L266.371 0.920247L267.659 1.01227C268.902 1.15031 269.822 1.38037 270.558 2.02454L269.96 27.1472C269.96 28.0675 269.5 28.8957 266.371 29.0798L265.497 29.1258L265.359 29.4018Z" fill="black"/>
<path d="M302.356 29.4018H326.144L327.617 19.9233L327.295 19.8773L327.065 20.4755C325.224 25.1227 322.786 28.8497 316.62 28.9417L311.559 28.7117V14.816L313.215 14.908C318.184 15.184 319.611 15.7362 319.841 19.1871L319.887 19.8773L320.209 19.9233L321.313 9.57055L320.991 9.52454L320.715 10.2607C319.703 13.3436 318.046 14.1258 313.583 14.3558L311.559 14.4018V1.1043H315.654C321.635 1.05828 323.522 3.77301 325.27 9.24847L325.454 9.84663L325.776 9.80061L325.224 0.644174H302.402L302.54 0.920247L303.736 1.05828C306.083 1.28835 306.359 1.38037 306.359 1.70245V28.2055C306.359 28.4816 305.669 28.7577 304.059 28.9417L302.494 29.1258L302.356 29.4018Z" fill="black"/>
<path d="M338.779 30C345.082 30 349.316 25.3067 349.316 20.7515C349.316 15.6902 345.911 13.4356 340.803 11.6411C337.122 10.3528 334.177 8.92638 334.177 5.47546C334.177 2.6227 336.478 0.460125 339.515 0.460125C341.585 0.460125 343.012 1.15031 344.162 2.02454L347.567 8.28221H347.797L347.705 0.506137L345.957 1.1043C344.254 0.59816 342.046 0 339.561 0C333.855 0 330.266 3.95706 330.266 8.19018C330.266 12.7914 333.809 14.862 338.319 16.4724C342.368 17.8988 345.174 19.5092 345.174 23.2822C345.174 26.9632 342.69 29.5399 338.871 29.5399C335.466 29.5399 332.889 27.9755 331.141 24.3865L329.622 21.2577H329.346L329.714 28.3896C332.245 29.2638 335.742 30 338.779 30Z" fill="black"/>
</svg>
