<svg width="340" height="26" viewBox="0 0 340 26" fill="none" xmlns="http://www.w3.org/2000/svg">
<path d="M18.7798 25.6232L29.3158 0.376811H22.4939L14.9898 19.8957H14.6108L6.99308 0.376811H0.133301L10.6693 25.6232H18.7798Z" fill="black"/>
<path d="M44.7372 26C53.3404 26 58.5326 20.8754 58.5326 13C58.5326 5.12464 53.3404 0 44.7372 0C36.3236 0 31.0935 5.12464 31.0935 13C31.0935 20.8754 36.3236 26 44.7372 26ZM44.7372 20.5739C39.166 20.5739 37.1195 18.6145 37.1195 13C37.1195 7.38551 39.166 5.42609 44.7372 5.42609C50.3084 5.42609 52.4687 7.38551 52.4687 13C52.4687 18.6145 50.3084 20.5739 44.7372 20.5739Z" fill="black"/>
<path d="M82.9554 25.6232V20.5362H67.8336V0.376811H62.1487V25.6232H82.9554Z" fill="black"/>
<path d="M92.0655 25.6232V15.9014H98.4705L105.027 25.6232H111.849L103.132 12.8116L111.963 0.376811H105.141L98.3947 10.4H92.0655V0.376811H86.3806V25.6232H92.0655Z" fill="black"/>
<path d="M136.025 25.6232V20.5362H120.221V15.4493H135.456V10.4H120.221V5.46377H136.025V0.376811H114.536V25.6232H136.025Z" fill="black"/>
<path d="M145.415 25.6232V16.4667H149.167C152.123 16.4667 153.07 17.1072 154.094 19.0667L157.58 25.6232H164.175L160.499 18.8406C159.551 17.0696 158.679 15.8638 156.405 15.2609V14.9594C161.181 14.5072 163.568 12.058 163.568 7.95072C163.568 3.12754 160.006 0.376811 153.753 0.376811H139.73V25.6232H145.415ZM145.415 5.46377H153.715C156.406 5.46377 157.618 6.33043 157.618 8.81739C157.618 11.4551 156.406 12.2087 153.715 12.2087H145.415V5.46377Z" fill="black"/>
<path d="M179.777 25.6232V15.487H193.042V25.6232H198.727V0.376811H193.042V10.4H179.777V0.376811H174.092V25.6232H179.777Z" fill="black"/>
<path d="M224.403 25.6232V20.5362H208.599V15.4493H223.834V10.4H208.599V5.46377H224.403V0.376811H202.914V25.6232H224.403Z" fill="black"/>
<path d="M233.793 25.6232V16.4667H237.545C240.501 16.4667 241.448 17.1072 242.472 19.0667L245.958 25.6232H252.553L248.877 18.8406C247.929 17.0696 247.057 15.8638 244.783 15.2609V14.9594C249.559 14.5072 251.946 12.058 251.946 7.95072C251.946 3.12754 248.384 0.376811 242.13 0.376811H228.108V25.6232H233.793ZM233.793 5.46377H242.093C244.783 5.46377 245.996 6.33043 245.996 8.81739C245.996 11.4551 244.783 12.2087 242.093 12.2087H233.793V5.46377Z" fill="black"/>
<path d="M261.17 25.6232V12.8116L260.943 8.85507H261.36L262.838 12.8116L268.144 24.1159H275.042L280.348 12.8116L281.826 8.85507H282.242L282.053 12.8116V25.6232H287.738V0.376811H280.006L274.246 12.8116L271.934 18.7275H271.517L269.129 12.8116L263.179 0.376811H255.486V25.6232H261.17Z" fill="black"/>
<path d="M313.346 25.6232V20.5362H297.542V15.4493H312.777V10.4H297.542V5.46377H313.346V0.376811H291.857V25.6232H313.346Z" fill="black"/>
<path d="M328.573 26C336.645 26 339.867 22.3072 339.867 18.2C339.867 14.7333 337.82 11.9826 332.135 11.0783L325.01 9.94783C322.888 9.57101 322.054 9.04348 322.054 7.57391C322.054 5.95362 323.305 5.16232 327.398 5.16232C332.438 5.16232 333.689 6.17971 333.689 8.5913V9.11884H339.412V8.89275C339.412 3.57971 335.773 0 327.966 0C319.439 0 316.331 3.9942 316.331 7.8C316.331 11.9072 319.022 14.1681 323.57 14.8841L330.695 15.9014C333.31 16.3536 334.182 16.9188 334.182 18.4638C334.182 20.1594 333.121 20.8377 328.573 20.8377C323.418 20.8377 322.243 19.8957 322.243 17.5594V16.8812H316.559V17.1072C316.559 22.9855 320.879 26 328.573 26Z" fill="black"/>
</svg>